<?xml version="1.0" encoding="utf-8" ?>
<svg baseProfile="full" height="200mm" version="1.1" viewBox="0,0,200,200" width="200mm" xmlns="http://www.w3.org/2000/svg" xmlns:ev="http://www.w3.org/2001/xml-events" xmlns:xlink="http://www.w3.org/1999/xlink"><defs /><rect fill="#1a1a1a" height="200" width="200" x="0" y="0" /><rect fill="#1a1a1a" height="200" width="180" x="10" y="0" /><text alignment-baseline="middle" fill="#e1ed5e" style="dominant-baseline: central; font-size:9.0px; font-family:Arial;" text-anchor="middle" x="100.0" y="100.0">2022</text><line stroke="#e1ed5e" stroke-width="0.3" x1="100.0" x2="100.0" y1="15.0" y2="10.0" /><path d="M 100.0 14.0 a86.0,86.0 0 0,1 42.46469731375804,11.215312516191453" fill="none" id="id13" stroke="none" /><text fill="#e1ed5e" style="font-size:6.75px; font-family:Arial;" text-anchor="middle"><textPath startOffset="22.20632615414155" xlink:href="#id13">January</textPath></text><line stroke="#e1ed5e" stroke-width="0.3" x1="143.23703022742887" x2="145.7803849466894" y1="26.81831364943548" y2="22.513508569990506" /><path d="M 143.74570117128098 25.957352633546492 a86.0,86.0 0 0,1 28.547481713284135,27.462654790039103" fill="none" id="id14" stroke="none" /><text fill="#e1ed5e" style="font-size:6.75px; font-family:Arial;" text-anchor="middle"><textPath startOffset="19.985693538727396" xlink:href="#id14">February</textPath></text><line stroke="#e1ed5e" stroke-width="0.3" x1="172.23445277983987" x2="176.4835382374775" y1="55.19839476539836" y2="52.563006222186495" /><path d="M 173.08426987136738 54.67131705675599 a86.0,86.0 0 0,1 12.851231095245387,41.99856678651699" fill="none" id="id15" stroke="none" /><text fill="#e1ed5e" style="font-size:6.75px; font-family:Arial;" text-anchor="middle"><textPath startOffset="22.20632615414155" xlink:href="#id15">March</textPath></text><line stroke="#e1ed5e" stroke-width="0.3" x1="184.98032266829074" x2="189.97916517819016" y1="98.17113171792111" y2="98.06355123074" /><path d="M 185.9800911702706 98.14961562048488 a86.0,86.0 0 0,1 -9.607161424134198,41.387399972396054" fill="none" id="id16" stroke="none" /><text fill="#e1ed5e" style="font-size:6.75px; font-family:Arial;" text-anchor="middle"><textPath startOffset="21.466115282336823" xlink:href="#id16">April</textPath></text><line stroke="#e1ed5e" stroke-width="0.3" x1="174.80103733775053" x2="179.2010983576182" y1="140.37084112569926" y2="142.7455964860345" /><path d="M 175.68104954172406 140.8457921977663 a86.0,86.0 0 0,1 -30.038265399797805,32.042727171017184" fill="none" id="id17" stroke="none" /><text fill="#e1ed5e" style="font-size:6.75px; font-family:Arial;" text-anchor="middle"><textPath startOffset="22.206326154141568" xlink:href="#id17">May</textPath></text><path d="M 116.0416608686014 113.55231037782055 l 5.669459310130332 4.789670650356386 a28.421840324886332,28.421840324886332 0 0,0 -0.31894378877822643,0.37100368176312865 l -5.586173011781327 -4.886551431281043" fill="red" stroke="none" /><path d="M 115.32070863581623 114.36230785411682 l 12.339508888131695 11.567599752249729 a37.913688055197454,37.913688055197454 0 0,0 -0.45043889442063684,0.4722833799690695 l -12.138563442332092 -11.778290248801305" fill="red" stroke="none" /><path d="M 115.07121518719521 114.62390073753431 l 16.931327495416138 16.428804815819937 a44.59185195005561,44.59185195005561 0 0,0 -0.5392628023262962,0.5462703716742211 l -16.646024068034304 -16.71781568147482" fill="red" stroke="none" /><path d="M 114.81725581225074 114.88116024355365 l 12.875437786717407 12.930967470483543 a39.247926400616976,39.247926400616976 0 0,0 -0.48284303117860566,0.4725635309951653 l -12.650944803163007 -13.150681104401281" fill="red" stroke="none" /><path d="M 113.75828350139079 115.86535959552629 l 11.077566635539057 12.774091920584812 a37.90827924303234,37.90827924303234 0 0,0 -0.4966607782531388,0.4232650900528007 l -10.85604038070887 -12.96288140086056" fill="red" stroke="none" /><path d="M 113.48314897796784 116.09983520530334 l 3.696090645515582 4.413394110967752 a26.756659937723665,26.756659937723665 0 0,0 -0.3556468118566771,0.2926731138463672 l -3.619573705114214 -4.476362343671298" fill="red" stroke="none" /><path d="M 113.20401910651253 116.32954008644616 l 11.250398766799178 13.913478628665395 a38.8929136800669,38.8929136800669 0 0,0 -0.5242070382635129,0.4164617748653874 l -11.009234235818314 -14.105074317535909" fill="red" stroke="none" /><path d="M 112.92097659922987 116.55440617244103 l 15.699375713516227 20.114102074203444 a46.51563246415065,46.51563246415065 0 0,0 -0.635428506186677,0.4872194824824126 l -15.350818478836057 -20.38136089851323" fill="red" stroke="none" /><path d="M 112.63410532772338 116.77436683061366 l 17.519875682634797 23.26122933947561 a50.1209689797345,50.1209689797345 0 0,0 -0.693614613461703,0.5131195090555032 l -17.11687609875453 -23.559358797270882" fill="red" stroke="none" /><path d="M 112.34349029814194 116.9893568818739 l 21.075519366382274 29.007963820428635 a56.8558151709043,56.8558151709043 0 0,0 -0.7967196503653302,0.5684383163169452 l -20.573072388168058 -29.3664463985898" fill="red" stroke="none" /><path d="M 111.7513745106137 117.40417183066458 l 4.29459496095998 6.360436268637846 a28.67454854738092,28.67454854738092 0 0,0 -0.4114460466445276,0.27268400424881095 l -4.184474215575488 -6.433418293977976" fill="red" stroke="none" /><path d="M 111.45004920935366 117.60387380957326 l 19.623014311570607 30.169395902870406 a56.98965323278676,56.98965323278676 0 0,0 -0.8269421159554812,0.5277935838148381 l -19.100790393568197 -30.502703915509052" fill="red" stroke="none" /><path d="M 111.1453310114006 117.79835938074945 l 19.341544407609767 30.887172215273925 a57.44328123985998,57.44328123985998 0 0,0 -0.8425583545721462,0.5175681578001224 l -18.807006853105314 -31.215528839902426" fill="red" stroke="none" /><line stroke="#e1ed5e" stroke-width="0.3" x1="143.8653032363475" x2="146.44561519142675" y1="172.8068346515853" y2="177.08958963109032" /><path d="M 144.38136562736335 173.6633856474863 a86.0,86.0 0 0,1 -40.68145358897372,12.25698825130547" fill="none" id="id18" stroke="none" /><text fill="#e1ed5e" style="font-size:6.75px; font-family:Arial;" text-anchor="middle"><textPath startOffset="21.466115282336833" xlink:href="#id18">June</textPath></text><path d="M 110.8373102113329 117.98757091392108 l 7.24963796801055 12.032817600208364 a35.04798740272443,35.04798740272443 0 0,0 -0.5194314159771605,0.3068892362782691 l -7.041438681005007 -12.155825408780382" fill="red" stroke="none" /><path d="M 110.5260780823613 118.17145234162733 l 22.832246373452698 39.415922395895485 a66.55136016385569,66.55136016385569 0 0,0 -0.9962143871704489,0.5656765286337961 l -22.15038321936105 -39.80310209032391" fill="red" stroke="none" /><path d="M 110.21172684928248 118.3499491758327 l 7.064532534225558 12.694602476873346 a35.52792318168603,35.52792318168603 0 0,0 -0.5369405885500078,0.2927828204834059 l -6.844969133806901 -12.814325949116522" fill="red" stroke="none" /><path d="M 109.89434966115114 118.52300852407294 l 12.874462387200513 24.10201627271242 a48.32506121071891,48.32506121071891 0 0,0 -0.7370931781789156,0.38561231364820453 l -12.4576783064951 -24.32005800530534" fill="red" stroke="none" /><path d="M 109.57404056367764 118.69057910512821 l 10.31015081926633 20.127624088452546 a43.61460725641888,43.61460725641888 0 0,0 -0.6711376144220419,0.3365223324595415 l -9.962159297161527 -20.30211426182139" fill="red" stroke="none" /><path d="M 109.2508944713604 118.85261126421891 l 11.640371702592445 23.722182039735 a47.424234598202474,47.424234598202474 0 0,0 -0.7359503469209171,0.3533008901509706 l -11.230308687671295 -23.91903720638553" fill="red" stroke="none" /><path d="M 108.92500713936063 119.00905698771935 l 26.775021418081884 57.02717096315804 a84.0,84.0 0 0,0 -1.3141280169303222,0.6032517186637025 l -25.789425405384144 -57.479609752155824" fill="red" stroke="none" /><path d="M 108.59647513512805 119.15986991738527 l 14.331291124033124 31.941658571500398 a56.00936242750067,56.00936242750067 0 0,0 -0.8830258059688703,0.38709256360038585 l -13.7793446434065 -32.183615688395236" fill="red" stroke="none" /><path d="M 108.2653958097858 119.30500536409082 l 5.571900380990566 13.013964390652712 a35.15660068720099,35.15660068720099 0 0,0 -0.5583680817253668,0.2333979034461956 l -5.347060839767738 -13.10794733711888" fill="red" stroke="none" /><path d="M 107.93186726928326 119.44442032107085 l 14.472255019452266 35.47772548863963 a59.315991063723395,59.315991063723395 0 0,0 -0.9487138691425567,0.377512827754669 l -13.859420074267842 -35.72158516080036" fill="red" stroke="none" /><path d="M 107.59598834532513 119.57807347666477 l 16.730880290065723 43.12255216265328 a67.25447935390974,67.25447935390974 0 0,0 -1.0828924884200075,0.4094572796935631 l -15.986117580885441 -43.404157692453474" fill="red" stroke="none" /><path d="M 106.91757812671514 119.82793768551818 l 10.25055429385185 29.381287505173265 a52.118064187748814,52.118064187748814 0 0,0 -0.8495995634374666,0.2882303001627166 l -9.743284997477158 -29.553380792234105" fill="red" stroke="none" /><path d="M 106.57524785965236 119.94407469862006 l 5.140124164879994 15.591050328856907 a37.416507752482936,37.416507752482936 0 0,0 -0.6134145219247251,0.19639595892815306 l -4.870988297864329 -15.677219134444766" fill="red" stroke="none" /><path d="M 105.88484417918355 120.15858648285463 l 4.963259580772355 17.00169018064593 a38.71133576737793,38.71133576737793 0 0,0 -0.6412603406908646,0.18122657765565103 l -4.669868071976885 -17.0846055516401" fill="red" stroke="none" /><path d="M 104.13013068566511 120.58985236759428 l 3.292700527172037 16.41502966975834 a37.742015285522996,37.742015285522996 0 0,0 -0.6380779865566869,0.12228916476199644 l -3.0096549260436456 -16.469276032868805" fill="red" stroke="none" /><line stroke="#e1ed5e" stroke-width="0.3" x1="102.19456741930631" x2="102.32365962044197" y1="184.97166512339345" y2="189.96999836594603" /><path d="M 102.22038585953345 185.97133177190398 a86.0,86.0 0 0,1 -42.740103519485714,-10.115201625700543" fill="none" id="id19" stroke="none" /><text fill="#e1ed5e" style="font-size:6.75px; font-family:Arial;" text-anchor="middle"><textPath startOffset="22.20632615414155" xlink:href="#id19">July</textPath></text><path d="M 94.11515582081647 120.15858648285463 l -4.747171100990907 16.261477156309404 a37.94022646741347,37.94022646741347 0 0,0 -0.6253362788464928,-0.18840869110473307 l 5.026382354277645 -16.177353096098944" fill="red" stroke="none" /><line stroke="#e1ed5e" stroke-width="0.3" x1="58.666819895761336" x2="56.23545636021788" y1="174.27360380694188" y2="178.64263932499728" /><path d="M 58.180547188652646 175.14741091055294 a86.0,86.0 0 0,1 -31.652253787137756,-30.449443065178592" fill="none" id="id20" stroke="none" /><text fill="#e1ed5e" style="font-size:6.75px; font-family:Arial;" text-anchor="middle"><textPath startOffset="22.20632615414155" xlink:href="#id20">August</textPath></text><path d="M 88.54995079064634 117.60387380957326 l -16.20079416706395 24.907904841045045 a50.71311924410038,50.71311924410038 0 0,0 -0.7276736159078471,-0.48226239379422803 l 16.62714248171176 -24.6253444261595" fill="red" stroke="none" /><path d="M 88.24862548938628 117.40417183066458 l -3.3908747852319947 5.0219969898111465 a27.059578003029117,27.059578003029117 0 0,0 -0.38378614348629053,-0.26397160903876277 l 3.476817813341176 -4.962884591407282" fill="red" stroke="none" /><path d="M 87.95078237400918 117.19931262002967 l -9.61472001762816 13.724258326992059 a37.75703158806447,37.75703158806447 0 0,0 -0.5290886941863675,-0.37749073512586695 l 9.849536039663414 -13.556723330021972" fill="red" stroke="none" /><path d="M 85.70375840098266 115.38237550388516 l -28.515528820699085 30.68195014569444 a62.886960365571994,62.886960365571994 0 0,0 -0.7865786177200349,-0.7437591788161687 l 29.039443272809937 -30.18655633013234" fill="red" stroke="none" /><path d="M 85.44109423537348 115.13401014063109 l -9.693143676348983 10.076041226180905 a34.981546449589956,34.981546449589956 0 0,0 -0.43035639005809195,-0.42119430568515087 l 9.86515001878287 -9.907696817573186" fill="red" stroke="none" /><path d="M 84.9287848128048 114.62390073753433 l -5.094912360140857 4.943695096626295 a28.099172709965785,28.099172709965785 0 0,0 -0.3338361668003642,-0.3500258862307749 l 5.179255078320178 -4.85526209381302" fill="red" stroke="none" /><path d="M 84.67929136418377 114.36230785411682 l -20.906583324769173 19.59875310115399 a49.65652368022872,49.65652368022872 0 0,0 -0.5792163734246271,-0.6286249767293404 l 21.24084610618953 -19.235976869623304" fill="red" stroke="none" /><path d="M 84.43433777217949 114.09645910891817 l -24.517726273968123 22.203560684165815 a54.077439572927354,54.077439572927354 0 0,0 -0.6189063826204683,-0.695347881855617 l 24.896291506236928 -21.778238632569334" fill="red" stroke="none" /><path d="M 84.19399662182784 113.82643327865904 l -44.14321846412038 38.61464851021758 a79.64908197012727,79.64908197012727 0 0,0 -0.8938048939081679,-1.039697018989159 l 44.80136586759933 -37.84907439206689" fill="red" stroke="none" /><path d="M 83.95833913139862 113.55231037782056 l -20.443712068932115 17.271249747914663 a47.7626872905589,47.7626872905589 0 0,0 -0.5251712167249619,-0.6326025618983139 l 20.737979285550615 -16.916785928902588" fill="red" stroke="none" /><path d="M 83.72743513129214 113.27417163493432 l -31.029523367334363 25.312003501074905 a61.044086225588636,61.044086225588636 0 0,0 -0.6571892605040087,-0.8199446499470147 l 31.460630539893234 -24.774131017549628" fill="red" stroke="none" /><path d="M 83.50135304334701 112.99209946851258 l -33.24209796275479 26.176973445691832 a63.31159434176218,63.31159434176218 0 0,0 -0.6668615742596622,-0.8620084785754611 l 33.687766354232515 -25.60088697300312" fill="red" stroke="none" /><path d="M 83.28015986056508 112.70617746262583 l -12.759632883382881 9.69663336623854 a37.026007923308796,37.026007923308796 0 0,0 -0.3812598596511447,-0.5107598865985177 l 12.924654009729112 -9.475560600130713" fill="red" stroke="none" /><path d="M 83.06392112726016 112.41649034213515 l -29.147239142505512 21.36896125911084 a57.141306768347285,57.141306768347285 0 0,0 -0.574733270454258,-0.7982542450685961 l 29.51075220533538 -20.864073408591103" fill="red" stroke="none" /><path d="M 82.24976979558568 111.22182372390057 l -28.316282916636382 17.901758554520963 a54.500519959537314,54.500519959537314 0 0,0 -0.4944893432749621,-0.7972742701938336 l 28.6202368995793 -17.411687952961866" fill="red" stroke="none" /><line stroke="#e1ed5e" stroke-width="0.3" x1="26.63291911575756" x2="22.317208475507996" y1="142.92168965132927" y2="145.44649492493687" /><path d="M 25.769776987707644 143.4266507060508 a86.0,86.0 0 0,1 -11.730757126820373,-40.83630448921669" fill="none" id="id21" stroke="none" /><text fill="#e1ed5e" style="font-size:6.75px; font-family:Arial;" text-anchor="middle"><textPath startOffset="21.46611528233685" xlink:href="#id21">September</textPath></text><path d="M 81.51974371655577 109.97397251340807 l -48.43982783550849 26.143442167433868 a76.04449553857009,76.04449553857009 0 0,0 -0.6117869897402504,-1.157270426641765 l 48.88266733347363 -25.305756725705976" fill="red" stroke="none" /><path d="M 81.35079622478065 109.6543875284942 l -35.83219542038105 18.54974103745749 a61.348966792237825,61.348966792237825 0 0,0 -0.47741570287741214,-0.9419864742166155 l 36.14618979304473 -17.93020035153819" fill="red" stroke="none" /><path d="M 81.18737489456691 109.33194174019688 l -5.3289518107203175 2.643409282609731 a26.948557811467133,26.948557811467133 0 0,0 -0.20255914711762207,-0.4173318390998622 l 5.373664214452659 -2.551288487544584" fill="red" stroke="none" /><path d="M 80.87730276802145 108.67885076344099 l -34.58797552810049 15.69777914571284 a58.983526972097465,58.983526972097465 0 0,0 -0.4116457967501857,-0.9281526003551214 l 34.85306240958196 -15.100078208865023" fill="red" stroke="none" /><path d="M 80.73074385275274 108.34839909993369 l -15.053383504681674 6.521873617804086 a37.405462213105466,37.405462213105466 0 0,0 -0.2508820309887694,-0.5930110119035576 l 15.16341651686275 -6.2617880802343695" fill="red" stroke="none" /><path d="M 80.58989483394504 108.01547362559985 l -21.804017216889594 9.004048326319548 a44.589999005025746,44.589999005025746 0 0,0 -0.28685677599260273,-0.7119549930606577 l 21.955776607139583 -8.627393965416084" fill="red" stroke="none" /><path d="M 80.45479744820244 107.68017299344265 l -13.636462126297031 5.35836801235186 a35.651457506942066,35.651457506942066 0 0,0 -0.21952082840364487,-0.5730996124948925 l 13.726677234294186 -5.1228448330238106" fill="red" stroke="none" /><line stroke="#e1ed5e" stroke-width="0.3" x1="15.007084014347285" x2="10.007500721073583" y1="101.09737516637583" y2="101.16192664675087" /><path d="M 14.007167355692545 101.11028546245083 a86.0,86.0 0 0,1 10.666146001902534,-42.60595125391555" fill="none" id="id22" stroke="none" /><text fill="#e1ed5e" style="font-size:6.75px; font-family:Arial;" text-anchor="middle"><textPath startOffset="22.20632615414155" xlink:href="#id22">October</textPath></text><path d="M 80.65960295795068 91.81776055985345 l -6.60459404419784 -2.794170655188698 a28.17133545017741,28.17133545017741 0 0,0 0.19278488668231997,-0.44497409842674795 l 6.555518447672839 2.9074438982020454" fill="red" stroke="none" /><line stroke="#e1ed5e" stroke-width="0.3" x1="26.266209847984243" x2="21.928928074336255" y1="57.711370442889674" y2="55.22380399835377" /><path d="M 25.398753493254645 57.213857153982495 a86.0,86.0 0 0,1 29.58750427330803,-30.492523968695096" fill="none" id="id23" stroke="none" /><text fill="#e1ed5e" style="font-size:6.75px; font-family:Arial;" text-anchor="middle"><textPath startOffset="21.46611528233685" xlink:href="#id23">November</textPath></text><line stroke="#e1ed5e" stroke-width="0.3" x1="56.762969772571076" x2="54.21961505331055" y1="26.818313649435495" y2="22.513508569990535" /><path d="M 56.25429882871897 25.957352633546506 a86.0,86.0 0 0,1 42.265352541879196,-11.944610805530505" fill="none" id="id24" stroke="none" /><text fill="#e1ed5e" style="font-size:6.75px; font-family:Arial;" text-anchor="middle"><textPath startOffset="22.20632615414155" xlink:href="#id24">December</textPath></text></svg>