<?xml version="1.0" encoding="utf-8" ?>
<svg baseProfile="full" height="200mm" version="1.1" viewBox="0,0,200,200" width="200mm" xmlns="http://www.w3.org/2000/svg" xmlns:ev="http://www.w3.org/2001/xml-events" xmlns:xlink="http://www.w3.org/1999/xlink"><defs /><rect fill="#1a1a1a" height="200" width="200" x="0" y="0" /><rect fill="#1a1a1a" height="200" width="180" x="10" y="0" /><text alignment-baseline="middle" fill="#e1ed5e" style="dominant-baseline: central; font-size:9.0px; font-family:Arial;" text-anchor="middle" x="100.0" y="100.0">2023</text><line stroke="#e1ed5e" stroke-width="0.3" x1="100.0" x2="100.0" y1="15.0" y2="10.0" /><path d="M 100.0 14.0 a86.0,86.0 0 0,1 42.46469731375804,11.215312516191453" fill="none" id="id25" stroke="none" /><text fill="#e1ed5e" style="font-size:6.75px; font-family:Arial;" text-anchor="middle"><textPath startOffset="22.20632615414155" xlink:href="#id25">January</textPath></text><line stroke="#e1ed5e" stroke-width="0.3" x1="143.23703022742887" x2="145.7803849466894" y1="26.81831364943548" y2="22.513508569990506" /><path d="M 143.74570117128098 25.957352633546492 a86.0,86.0 0 0,1 28.547481713284135,27.462654790039103" fill="none" id="id26" stroke="none" /><text fill="#e1ed5e" style="font-size:6.75px; font-family:Arial;" text-anchor="middle"><textPath startOffset="19.985693538727396" xlink:href="#id26">February</textPath></text><path d="M 117.04232023915458 87.72973835380427 l 6.309076811897835 -4.542457960042016 a28.774212148968925,28.774212148968925 0 0,0 0.28594356907502905,0.4044469000098377 l -6.386333000776747 4.433184559700385" fill="red" stroke="none" /><path d="M 117.2510076193507 88.02491185347247 l 15.807735885498891 -10.973215872534672 a40.243076168090596,40.243076168090596 0 0,0 0.390119320669186,0.5724519648862676 l -15.99427967183681 10.699485884377998" fill="red" stroke="none" /><path d="M 117.45458315368197 88.32363383020206 l 50.287636340457695 -33.64026803475735 a81.50218179669588,81.50218179669588 0 0,0 0.7700146235302165,1.1727850993032922 l -50.859247599345835 32.76966487147638" fill="red" stroke="none" /><path d="M 117.65298651832404 88.62581576622439 l 34.818163225135244 -22.434062519295328 a62.41970124822017,62.41970124822017 0 0,0 0.5741792253203815,0.9082136450176272 l -35.19917004670158 21.831401226563493" fill="red" stroke="none" /><line stroke="#e1ed5e" stroke-width="0.3" x1="172.23445277983987" x2="176.4835382374775" y1="55.19839476539836" y2="52.563006222186495" /><path d="M 173.08426987136738 54.67131705675599 a86.0,86.0 0 0,1 12.851231095245387,41.99856678651699" fill="none" id="id27" stroke="none" /><text fill="#e1ed5e" style="font-size:6.75px; font-family:Arial;" text-anchor="middle"><textPath startOffset="22.20632615414155" xlink:href="#id27">March</textPath></text><path d="M 118.03404312379186 89.2402003453031 l 29.17151636492794 -17.404842028809558 a54.96919035062617,54.96919035062617 0 0,0 0.47781399527170687,0.8167390036015698 l -29.466790034669973 16.90012361285409" fill="red" stroke="none" /><path d="M 118.21658344932153 89.55222093294921 l 21.76282597037332 -12.48165981539223 a46.088093310651026,46.088093310651026 0 0,0 0.38876921701824585,0.6915770570404788 l -21.974452828684 12.105199248416957" fill="red" stroke="none" /><path d="M 118.3937258080291 89.86733742301442 l 31.923454462862434 -17.58586573160458 a57.44680532464369,57.44680532464369 0 0,0 0.46967386666737576,0.8702343438365393 l -32.22143642874827 17.033750404435583" fill="red" stroke="none" /><path d="M 118.56541770881063 90.18545643968196 l 24.797497900100133 -13.109111098099799 a49.04932612181251,49.04932612181251 0 0,0 0.38816834815706347,0.7498176971357157 l -25.019475681417312 12.680320678703739" fill="red" stroke="none" /><path d="M 118.73160827565052 90.50648371742162 l 32.417408703041815 -16.429726312469455 a57.34314644775136,57.34314644775136 0 0,0 0.4386477286941714,0.8842870544002277 l -32.69541644468939 15.869279669570277" fill="red" stroke="none" /><path d="M 118.89224826269711 90.83032412892265 l 32.36576686895756 -15.709278608898869 a56.976718852998786,56.976718852998786 0 0,0 0.42065587618759015,0.8860085558744459 l -32.6313809389869 15.149827637383883" fill="red" stroke="none" /><path d="M 119.196687751892 91.48605970444005 l 32.96168472091927 -14.618866513954634 a57.05806314535082,57.05806314535082 0 0,0 0.3904654167795174,0.9012480168354524 l -33.20844084754147 14.049319352532578" fill="red" stroke="none" /><path d="M 119.47837535516314 92.15188598940014 l 31.988202868083548 -12.888501146804927 a55.48707851559567,55.48707851559567 0 0,0 0.34932141323725097,0.8889848943808527 l -32.2053178312025 12.33596724752829" fill="red" stroke="none" /><path d="M 119.61058180528143 92.48833698450437 l 6.582452181785239 -2.5213511305344545 a28.04882176316983,28.04882176316983 0 0,0 0.16882106518097237,0.45235652213208205 l -6.624877835467837 2.407671471373039" fill="red" stroke="none" /><path d="M 119.85752413597 93.16781622104841 l 32.068331988279446 -11.033436803507861 a54.913340210122456,54.913340210122456 0 0,0 0.29983391412019605,0.8964652396384575 l -32.253503196171415 10.47979846094709" fill="red" stroke="none" /><path d="M 119.97218684219823 93.5106431181261 l 8.42934768639883 -2.7388610897062597 a29.863140667218605,29.863140667218605 0 0,0 0.15464060881041408,0.49025298928609756 l -8.47524377897745 2.593357933993743" fill="red" stroke="none" /><path d="M 120.08093135843002 93.85539295169968 l 17.382109150997305 -5.318788680521333 a39.17765748288888,39.17765748288888 0 0,0 0.19177295972469363,0.6465630847466287 l -17.471088007833703 5.018796209028175" fill="red" stroke="none" /><path d="M 120.28053869075195 94.5502522615342 l 9.539576406056756 -2.5634568064277534 a30.877997206185853,30.877997206185853 0 0,0 0.13351597194382006,0.51449150449224 l -9.582288709870879 2.3988688763866626" fill="red" stroke="none" /><path d="M 120.37134235888165 94.90015583598534 l 17.361057768223812 -4.346237355428649 a38.896818320062586,38.896818320062586 0 0,0 0.15700830322644585,0.6509007809109981 l -17.433298871711077 4.046751342858244" fill="red" stroke="none" /><path d="M 120.83666639777658 97.38593545837742 l 14.574175430491719 -1.8284035694068927 a35.68841887649479,35.68841887649479 0 0,0 0.07122328747495002,0.6101976317567133 l -14.603489070970259 1.5772621993253269" fill="red" stroke="none" /><path d="M 120.87857604477298 97.74499172005257 l 6.655685936076041 -0.7188529937288795 a27.694393542829207,27.694393542829207 0 0,0 0.04711063523035169,0.47439766760270285 l -6.667073696988622 0.6041797954217417" fill="red" stroke="none" /><path d="M 120.94382443527127 98.46500227214037 l 6.942358198861135 -0.5088136645804305 a27.96097900489279,27.96097900489279 0 0,0 0.031049214539621235,0.48031760622029807 l -6.950088004405172 0.38923699410709717" fill="red" stroke="none" /><path d="M 120.96714384426684 98.82574320788733 l 23.450531084021762 -1.3133379352281869 a44.48727878351982,44.48727878351982 0 0,0 0.0362388961665024,0.7649458221569178 l -23.46966358842176 0.9094810064482692" fill="red" stroke="none" /><path d="M 120.98425023603335 99.18683210126433 l 7.795874047051357 -0.3021005967019486 a28.80172525330241,28.80172525330241 0 0,0 0.014933427845834298,0.4955677685562591 l -7.799919169352837 0.16786268072069044" fill="red" stroke="none" /><line stroke="#e1ed5e" stroke-width="0.3" x1="184.98032266829074" x2="189.97916517819016" y1="98.17113171792111" y2="98.06355123074" /><path d="M 185.9800911702706 98.14961562048488 a86.0,86.0 0 0,1 -9.607161424134198,41.387399972396054" fill="none" id="id28" stroke="none" /><text fill="#e1ed5e" style="font-size:6.75px; font-family:Arial;" text-anchor="middle"><textPath startOffset="21.466115282336823" xlink:href="#id28">April</textPath></text><path d="M 120.8583938346157 102.4346265915055 l 31.478921241021965 3.6742723017393675 a52.69262941830155,52.69262941830155 0 0,0 -0.11290899036374766,0.8999957453456419 l -31.411010741411367 -4.215585801372404" fill="red" stroke="none" /><path d="M 120.64145759157962 103.86396538481128 l 6.786701913152238 1.2704326306951434 a27.904587020750714,27.904587020750714 0 0,0 -0.09244399949143049,0.4713699617833003 l -6.763827980685143 -1.3870663195463886" fill="red" stroke="none" /><path d="M 120.5718875245553 104.21870165774334 l 45.70978607525333 9.373760675124684 a67.66103226719204,67.66103226719204 0 0,0 -0.24379224035207428,1.1389161843090028 l -45.54165979617681 -10.159190678849855" fill="red" stroke="none" /><path d="M 120.49622156327973 104.57218783832717 l 30.264306486918613 6.751200148167852 a52.00817554411684,52.00817554411684 0 0,0 -0.2024342302838368,0.872081365866733 l -30.143611690704223 -7.27115017138315" fill="red" stroke="none" /><path d="M 120.41448212921028 104.9243191809786 l 10.015162111253362 2.4158268905821565 a31.302411935073494,31.302411935073494 0 0,0 -0.13085702872260488,0.522708782159284 l -9.972093768235696 -2.5878635121388363" fill="red" stroke="none" /><path d="M 120.32669344350535 105.2749913415812 l 6.390117499791999 1.6583028900777483 a27.601785374910953,27.601785374910953 0 0,0 -0.1233036467819903,0.45885873975828395 l -6.360625776668231 -1.7680525630115806" fill="red" stroke="none" /><path d="M 119.54520255179757 107.68017299344265 l 6.340440482108889 2.4914389926721245 a27.81237504556027,27.81237504556027 0 0,0 -0.17892281714038705,0.44407175878900557 l -6.296615050711109 -2.6002101193039437" fill="red" stroke="none" /><path d="M 119.26925614724726 108.34839909993367 l 13.37689284003241 5.7955345703154855 a35.57839096091994,35.57839096091994 0 0,0 -0.24830144696376724,0.5598542132356913 l -13.275150308337368 -6.024937120043864" fill="red" stroke="none" /><path d="M 119.12269723197855 108.67885076344098 l 18.75616278305322 8.51249882347703 a41.59748233556928,41.59748233556928 0 0,0 -0.3015329850966848,0.6494752242645947 l -18.606855181116703 -8.834094115020456" fill="red" stroke="none" /><path d="M 118.97047184881838 109.00673069616215 l 13.979823411717637 6.6372890275307705 a36.47543434795253,36.47543434795253 0 0,0 -0.2741680250184809,0.5648673374246521 l -13.863502130084441 -6.876945320920698" fill="red" stroke="none" /><path d="M 118.64920377521936 109.65438752849418 l 8.4550079893968 4.377019237390526 a30.520790802514803,30.520790802514803 0 0,0 -0.24554338347988708,0.46447554610385444 l -8.37841209769202 -4.521909798580515" fill="red" stroke="none" /><line stroke="#e1ed5e" stroke-width="0.3" x1="174.80103733775053" x2="179.2010983576182" y1="140.37084112569926" y2="142.7455964860345" /><path d="M 175.68104954172406 140.8457921977663 a86.0,86.0 0 0,1 -30.038265399797805,32.042727171017184" fill="none" id="id29" stroke="none" /><text fill="#e1ed5e" style="font-size:6.75px; font-family:Arial;" text-anchor="middle"><textPath startOffset="22.206326154141568" xlink:href="#id29">May</textPath></text><path d="M 118.48025628344425 109.97397251340804 l 11.266042815009268 6.0803919409086395 a33.80214383861893,33.80214383861893 0 0,0 -0.2807567284080213,0.5096550133649876 l -11.159709677149737 -6.273417472671432" fill="red" stroke="none" /><path d="M 118.12598468904814 110.60418214915192 l 20.085346270589856 11.750460680396229 a44.270033541252914,44.270033541252914 0 0,0 -0.3904598497771892,0.6544331674351663 l -19.88010554511444 -12.094455941717499" fill="red" stroke="none" /><path d="M 117.94076556474637 110.91462005526583 l 5.993936899887444 3.64653022533569 a28.016014698111675,28.016014698111675 0 0,0 -0.25419245026535026,0.4098391664659203 l -5.930279809954131 -3.749165723166884" fill="red" stroke="none" /><path d="M 117.35343817320211 111.8261652097733 l 42.10142349666879 28.69162784162919 a71.94839907836561,71.94839907836561 0 0,0 -0.7062560817690897,1.0174145608560028 l -41.60130650773756 -29.412083664672213" fill="red" stroke="none" /><path d="M 117.14729908036423 112.12312394758627 l 25.4229575761583 17.974006539777907 a52.135055532488195,52.135055532488195 0 0,0 -0.5243798692419825,0.7283177748176722 l -25.109797914540714 -18.408957920046713" fill="red" stroke="none" /><path d="M 116.93607887273984 112.41649034213515 l 6.322663951572345 4.6353879478930295 a28.839827859843886,28.839827859843886 0 0,0 -0.29696608786401124,0.3978346041983434 l -6.241936597013241 -4.743535431600688" fill="red" stroke="none" /><path d="M 116.71984013943494 112.70617746262583 l 14.655761699303522 11.137589082690756 a39.40753219640385,39.40753219640385 0 0,0 -0.41507987962400045,0.5365466977448746 l -14.461875002461452 -11.388213774548882" fill="red" stroke="none" /><path d="M 116.498646956653 112.99209946851258 l 35.49213162472082 27.948795172683557 a66.17550839637698,66.17550839637698 0 0,0 -0.7124331956706882,0.8888699532107973 l -35.00578051699528 -28.555592959472605" fill="red" stroke="none" /><path d="M 116.27256486870786 113.27417163493432 l 6.866755461497915 5.601482698423798 a29.8616555444653,29.8616555444653 0 0,0 -0.32834170071515173,0.3955087301732945 l -6.76931776088922 -5.718852685710863" fill="red" stroke="none" /><path d="M 116.0416608686014 113.55231037782055 l 35.27299952525809 29.799323239570022 a67.17557970448487,67.17557970448487 0 0,0 -0.7538299300612873,0.8768745130523514 l -34.754827085626026 -30.4020748517839" fill="red" stroke="none" /><path d="M 115.56566222782051 114.09645910891815 l 26.75961927751223 24.23384713060721 a57.1020300070099,57.1020300070099 0 0,0 -0.6660641600453878,0.7228810964600052 l -26.33850870947112 -24.69087948186855" fill="red" stroke="none" /><path d="M 115.32070863581623 114.36230785411682 l 27.4318475217547 25.71582349615269 a58.60066271413415,58.60066271413415 0 0,0 -0.6962134015251171,0.7299769680745866 l -26.98512756885062 -26.184207580809783" fill="red" stroke="none" /><path d="M 115.07121518719521 114.62390073753431 l 19.571339474052994 18.990461101790057 a48.270404134651656,48.270404134651656 0 0,0 -0.5837486505882298,0.5913343010968651 l -19.24155019840923 -19.324535896867587" fill="red" stroke="none" /><path d="M 114.81725581225074 114.88116024355365 l 26.19536690130154 26.308343288144695 a58.125815461221485,58.125815461221485 0 0,0 -0.7150860567905889,0.6998622122338775 l -25.738630892135156 -26.755355603301144" fill="red" stroke="none" /><path d="M 114.55890576462653 115.13401014063108 l 20.077067334754197 20.87014955317264 a49.959485063378565,49.959485063378565 0 0,0 -0.62488411706844,0.5908669359882252 l -19.71484738329495 -21.21265112590679" fill="red" stroke="none" /><path d="M 114.29624159901734 115.38237550388516 l 15.027694588167344 16.169399454523905 a43.074444123356585,43.074444123356585 0 0,0 -0.5474565972851556,0.5000886215493519 l -14.747138441415325 -16.42568084265984" fill="red" stroke="none" /><path d="M 114.0293411484842 115.62618273729858 l 26.470521281332168 29.483437484043087 a60.62274072778076,60.62274072778076 0 0,0 -0.7824884505726776,0.690455079258272 l -25.959090477852904 -29.93471570507365" fill="red" stroke="none" /><path d="M 113.75828350139079 115.86535959552629 l 21.080699395929717 24.309200810392493 a53.176592906358785,53.176592906358785 0 0,0 -0.6967007879308282,0.593743526075457 l -20.65913313142184 -24.668468726690897" fill="red" stroke="none" /><path d="M 113.48314897796784 116.09983520530334 l 5.971646188142616 7.130568659485689 a30.300836930298143,30.300836930298143 0 0,0 -0.4027556532067808,0.3314404831239121 l -5.848020406391144 -7.23230426146678" fill="red" stroke="none" /><path d="M 112.63410532772338 116.77436683061366 l 4.5200527530476595 6.001297361908993 a28.513085046529792,28.513085046529792 0 0,0 -0.3945871930597737,0.29190617217813164 l -4.416080589569321 -6.078213482826894" fill="red" stroke="none" /><path d="M 112.34349029814194 116.9893568818739 l 12.9449450823197 17.817188372797055 a43.02325599669603,43.02325599669603 0 0,0 -0.6028842146090114,0.4301418795548302 l -12.636333539861804 -18.037374514196106" fill="red" stroke="none" /><path d="M 111.7513745106137 117.40417183066458 l 18.57126731747554 27.50465719687712 a54.18731892296905,54.18731892296905 0 0,0 -0.77752429518749,0.5153007057463223 l -18.095068323548087 -27.82025592371476" fill="red" stroke="none" /><path d="M 111.45004920935366 117.60387380957326 l 28.681054659048243 44.09567659594879 a73.6025815983381,73.6025815983381 0 0,0 -1.068002191873302,0.6816495296283335 l -27.917770665128014 -44.58284055440093" fill="red" stroke="none" /><path d="M 111.1453310114006 117.79835938074945 l 19.177584582142646 30.62533917552986 a57.13434861764467,57.13434861764467 0 0,0 -0.8380270367882525,0.5147846523193563 l -18.647578345422083 -30.950912294677593" fill="red" stroke="none" /><line stroke="#e1ed5e" stroke-width="0.3" x1="143.8653032363475" x2="146.44561519142675" y1="172.8068346515853" y2="177.08958963109032" /><path d="M 144.38136562736335 173.6633856474863 a86.0,86.0 0 0,1 -40.68145358897372,12.25698825130547" fill="none" id="id30" stroke="none" /><text fill="#e1ed5e" style="font-size:6.75px; font-family:Arial;" text-anchor="middle"><textPath startOffset="21.466115282336833" xlink:href="#id30">June</textPath></text><path d="M 110.8373102113329 117.98757091392108 l 8.113954407529388 13.467394348934718 a36.72281675391481,36.72281675391481 0 0,0 -0.5442533542931193,0.3215544749573748 l -7.880933182207887 -13.605067396185841" fill="red" stroke="none" /><path d="M 110.21172684928248 118.3499491758327 l 7.986857425000013 14.351972980326037 a37.424646722389085,37.424646722389085 0 0,0 -0.5656061496933829,0.3084135699951189 l -7.738628463437982 -14.487327202080927" fill="red" stroke="none" /><path d="M 109.89434966115114 118.52300852407294 l 21.63905958144439 40.510038436764084 a66.92724805295222,66.92724805295222 0 0,0 -1.020828877153642,0.5340494211744894 l -20.93853980176425 -40.87651727688329" fill="red" stroke="none" /><path d="M 109.57404056367764 118.69057910512821 l 10.657801545476309 20.80631281511561 a44.37715523204655,44.37715523204655 0 0,0 -0.6828716333995896,0.34240601316912206 l -10.298076004393959 -20.986686669194036" fill="red" stroke="none" /><path d="M 109.2508944713604 118.85261126421891 l 10.21649884375096 20.820438691509015 a44.191970936754174,44.191970936754174 0 0,0 -0.685790643066194,0.3292211841005201 l -9.856595532684533 -20.993214152109093" fill="red" stroke="none" /><path d="M 108.92500713936063 119.00905698771935 l 8.989351024844822 19.146100753274023 a42.15139725650291,42.15139725650291 0 0,0 -0.6594325248515523,0.30271312903645065 l -8.65845050422585 -19.29800095264455" fill="red" stroke="none" /><path d="M 108.59647513512805 119.15986991738527 l 10.755638064605197 23.97222384256259 a47.2745364589884,47.2745364589884 0 0,0 -0.7453153160337762,0.32672433175108934 l -10.341402073913667 -24.153812727608138" fill="red" stroke="none" /><path d="M 108.2653958097858 119.30500536409082 l 4.2820123319844345 10.001247724905362 a31.879365131577828,31.879365131577828 0 0,0 -0.5063180059277468,0.21164096754140427 l -4.109222866559227 -10.073473735466738" fill="red" stroke="none" /><path d="M 107.93186726928326 119.44442032107085 l 4.986332445429679 12.223646795628854 a34.20155491753272,34.20155491753272 0 0,0 -0.5470276887331385,0.21767360671178 l -4.775183680654675 -12.307667246746703" fill="red" stroke="none" /><path d="M 107.59598834532513 119.57807347666477 l 3.2661749330739074 8.41831370985662 a30.029723385076657,30.029723385076657 0 0,0 -0.48352113042028494,0.18282631826647042 l -3.120783581893348 -8.47328827822972" fill="red" stroke="none" /><path d="M 106.57524785965236 119.94407469862006 l 5.086991528923832 15.42988815169446 a37.24681295482729,37.24681295482729 0 0,0 -0.6106325077970132,0.19550524585757026 l -4.8206376760358784 -15.515166244211736" fill="red" stroke="none" /><path d="M 106.2309692047433 120.05430185196036 l 12.588108370666127 40.5146802552569 a63.42522585134153,63.42522585134153 0 0,0 -1.0453837104251793,0.31496553653776876 l -11.888849685800702 -40.72536116090039" fill="red" stroke="none" /><path d="M 105.88484417918355 120.15858648285463 l 11.57747069734087 39.65872964497771 a62.31407344720707,62.31407344720707 0 0,0 -1.0322439971773203,0.2917224644089085 l -10.893095532058943 -39.85214090272514" fill="red" stroke="none" /><path d="M 105.53697534728816 120.25689768951611 l 15.924474879627164 58.25932718914253 a81.39650738845285,81.39650738845285 0 0,0 -1.3547074882870873,0.35779056040137813 l -14.91927694852858 -58.5248090988475" fill="red" stroke="none" /><path d="M 105.18746579009965 120.34920634021253 l 2.447458279222901 9.600802308522123 a30.90784825256526,30.90784825256526 0 0,0 -0.5166713621294436,0.12698525025963042 l -2.2818336323502466 -9.641508817095783" fill="red" stroke="none" /><path d="M 104.83641907484287 120.43548508189849 l 7.092071066264146 29.96636772612879 a51.79416611481003,51.79416611481003 0 0,0 -0.8693523778318822,0.19786177082619408 l -6.575198539039402 -30.084006230532673" fill="red" stroke="none" /><path d="M 104.48393922423573 120.51570834832081 l 3.0666550022803483 14.031099996103606 a35.362316665624306,35.362316665624306 0 0,0 -0.5957852180921945,0.12485258516239059 l -2.8246783227587757 -14.081808561992537" fill="red" stroke="none" /><path d="M 104.13013068566511 120.58985236759428 l 3.2809299001778447 16.356349814196964 a37.68216653358496,37.68216653358496 0 0,0 -0.6370661653583314,0.12209524682117685 l -2.998896120247809 -16.41040225936661" fill="red" stroke="none" /><path d="M 103.7750983002368 120.6578951692458 l 4.003400687199519 21.907199532119844 a43.26999345312839,43.26999345312839 0 0,0 -0.733840603463302,0.12758759533354602 l -3.6257111122641668 -21.972865705974396" fill="red" stroke="none" /><path d="M 103.41894727170886 120.7198165907248 l 1.0926169413909583 6.6215770032112875 a27.711117178985262,27.711117178985262 0 0,0 -0.4713055826512122,0.07360823912126159 l -0.978475495131229 -6.639403549679654" fill="red" stroke="none" /><path d="M 103.06178313531738 120.77559828337769 l 0.9808829044245407 6.655738922294584 a27.727628993481982,27.727628993481982 0 0,0 -0.4727843417497609,0.06552360174578353 l -0.8661699714879494 -6.67163708953297" fill="red" stroke="none" /><path d="M 101.62511606390274 120.93702456842531 l 1.8450661326289364 23.77072986187259 a44.84222865421552,44.84222865421552 0 0,0 -0.7700846448750583,0.05310954581950543 l -1.4356187269749476 -23.79896775220838" fill="red" stroke="none" /><line stroke="#e1ed5e" stroke-width="0.3" x1="102.19456741930631" x2="102.32365962044197" y1="184.97166512339345" y2="189.96999836594603" /><path d="M 102.22038585953345 185.97133177190398 a86.0,86.0 0 0,1 -42.740103519485714,-10.115201625700543" fill="none" id="id31" stroke="none" /><text fill="#e1ed5e" style="font-size:6.75px; font-family:Arial;" text-anchor="middle"><textPath startOffset="22.20632615414155" xlink:href="#id31">July</textPath></text><path d="M 100.54218724476979 120.99299961872073 l 0.36229181572148067 14.027611351380862 a35.032289035831894,35.032289035831894 0 0,0 -0.6029562577562271,0.010380438785167138 l -0.12077586807258564 -14.03176926744519" fill="red" stroke="none" /><path d="M 100.18074693466247 120.99922214144158 l 0.07663779655217683 8.903797551173582 a29.904127367920175,29.904127367920175 0 0,0 -0.5147694624292585,0.0 l 0.07663779655217069 -8.903797551173582" fill="red" stroke="none" /><path d="M 99.81925306533755 120.99922214144158 l -0.2341960059775638 27.208948042995424 a48.20995592380922,48.20995592380922 0 0,0 -0.8297629247315436,-0.014285121243172105 l 0.7025186206017752 -27.200885444473094" fill="red" stroke="none" /><path d="M 99.09653310690486 120.98055641714683 l -1.0427498985017034 24.215024636420598 a45.237465739909396,45.237465739909396 0 0,0 -0.7776792803258719,-0.04019713582357051 l 1.4594172472410643 -24.193487693834825" fill="red" stroke="none" /><path d="M 98.37488393609728 120.93702456842531 l -1.6044134809190154 20.67030485640751 a41.732478035068034,41.732478035068034 0 0,0 -0.7157232904312406,-0.06175561710495213 l 1.959981089091798 -20.639624987023893" fill="red" stroke="none" /><path d="M 98.01472825383883 120.90594882070398 l -2.992848062267955 31.51625390272253 a52.65803846710491,52.65803846710491 0 0,0 -0.901624483783795,-0.09345706426427833 l 3.5349051426573435 -31.46006747000249" fill="red" stroke="none" /><path d="M 97.65516085044442 120.86867818915974 l -0.8571021735671155 7.628066700776261 a28.676068376937838,28.676068376937838 0 0,0 -0.4900502169136307,-0.059338256645504045 l 0.9882798135321356 -7.612182915405408" fill="red" stroke="none" /><path d="M 96.93821686468263 120.77559828337769 l -2.0370282615020603 13.822167992465415 a34.971464209240686,34.971464209240686 0 0,0 -0.5947882291732906,-0.09289368895912166 l 2.274652354283868 -13.785055996159187" fill="red" stroke="none" /><path d="M 96.58105272829116 120.7198165907248 l -2.600059649177011 15.757119011948218 a36.970194417601135,36.970194417601135 0 0,0 -0.6269987031765201,-0.10901176146155354 l 2.8709073238255813 -15.71002867196566" fill="red" stroke="none" /><path d="M 96.22490169976321 120.6578951692458 l -2.8077540616680836 15.364444698916888 a36.618887405218366,36.618887405218366 0 0,0 -0.619090045105009,-0.1186500805910977 l 3.0718117213447873 -15.313837419977324" fill="red" stroke="none" /><path d="M 95.86986931433489 120.58985236759428 l -2.7710496217402203 13.814454543275811 a35.089636983768614,35.089636983768614 0 0,0 -0.5911911038190721,-0.12388984384872445 l 3.008432186988679 -13.764708718700547" fill="red" stroke="none" /><path d="M 95.51606077576429 120.51570834832081 l -4.553055089977209 20.831939428378757 a42.32369599764564,42.32369599764564 0 0,0 -0.7103928591615254,-0.16168310190457713 l 4.9109680985315975 -20.750479592896493" fill="red" stroke="none" /><path d="M 94.46302465271185 120.25689768951611 l -2.6099763531014486 9.548538803360685 a30.89881658800856,30.89881658800856 0 0,0 -0.511844534924777,-0.14465237824661112 l 2.7739520561308395 -9.502197631775553" fill="red" stroke="none" /><path d="M 94.11515582081647 120.15858648285463 l -5.391718815952541 18.469381131123416 a40.240287709828934,40.240287709828934 0 0,0 -0.6632462196236382,-0.19983064528090083 l 5.7088400100164245 -18.37383511673679" fill="red" stroke="none" /><path d="M 93.76903079525671 120.05430185196036 l -11.095860252419577 35.71189705765186 a58.395958420630805,58.395958420630805 0 0,0 -0.957356286532388,-0.30651525063258434 l 11.708937884042905 -35.515608960359565" fill="red" stroke="none" /><path d="M 93.42475214034765 119.94407469862007 l -3.4496446116385577 10.463479291843642 a32.01746099777293,32.01746099777293 0 0,0 -0.5219307606685506,-0.17706725178034236 l 3.629245105244334 -10.402549053165176" fill="red" stroke="none" /><path d="M 92.7421414339146 119.70592522655815 l -6.777711593459529 18.402270676917762 a40.61073533834627,40.61073533834627 0 0,0 -0.6538904273675047,-0.2472454084506647 l 7.093472241587316 -18.282877018360466" fill="red" stroke="none" /><path d="M 92.40401165467489 119.57807347666478 l -8.64084785459338 22.271118188592975 a44.88863656671322,44.88863656671322 0 0,0 -0.7179593784750351,-0.2856908536881167 l 9.022928309110274 -22.119080490498792" fill="red" stroke="none" /><path d="M 92.06813273071674 119.44442032107085 l -4.510551540498086 11.057303035433122 a32.941902093757434,32.941902093757434 0 0,0 -0.5231935488908765,-0.21869494586864038 l 4.7002165488864245 -10.978023046544509" fill="red" stroke="none" /><path d="M 91.7346041902142 119.30500536409082 l -6.6290599905795515 15.483110745344286 a37.84254003145898,37.84254003145898 0 0,0 -0.5966134582310848,-0.2615378072351606 l 6.894594123468379 -15.366708384814673" fill="red" stroke="none" /><path d="M 91.40352486487194 119.15986991738527 l -10.602994817757592 23.632011754771334 a46.9016501150611,46.9016501150611 0 0,0 -0.7337472911483937,-0.3368273933342173 l 11.008210104673404 -23.445997291103044" fill="red" stroke="none" /><path d="M 91.07499286063937 119.00905698771935 l -4.869369486843048 10.371097818112464 a32.4573308039986,32.4573308039986 0 0,0 -0.5036872828356506,-0.2418005047868858 l 5.047169437678941 -10.285743036826016" fill="red" stroke="none" /><path d="M 90.7491055286396 118.85261126421891 l -8.417277794803008 17.153764607264737 a40.107647832120314,40.107647832120314 0 0,0 -0.6171728413802706,-0.3094632749660859 l 8.711304543866039 -17.00633349138935" fill="red" stroke="none" /><path d="M 90.42595943632237 118.69057910512821 l -7.689912560555641 15.012357433482018 a37.86729471194519,37.86729471194519 0 0,0 -0.5775828091879224,-0.30216402751772903 l 7.947186272270058 -14.877763987019573" fill="red" stroke="none" /><line stroke="#e1ed5e" stroke-width="0.3" x1="58.666819895761336" x2="56.23545636021788" y1="174.27360380694188" y2="178.64263932499728" /><path d="M 58.180547188652646 175.14741091055294 a86.0,86.0 0 0,1 -31.652253787137756,-30.449443065178592" fill="none" id="id32" stroke="none" /><text fill="#e1ed5e" style="font-size:6.75px; font-family:Arial;" text-anchor="middle"><textPath startOffset="22.20632615414155" xlink:href="#id32">August</textPath></text><line stroke="#e1ed5e" stroke-width="0.3" x1="26.63291911575756" x2="22.317208475507996" y1="142.92168965132927" y2="145.44649492493687" /><path d="M 25.769776987707644 143.4266507060508 a86.0,86.0 0 0,1 -11.730757126820373,-40.83630448921669" fill="none" id="id33" stroke="none" /><text fill="#e1ed5e" style="font-size:6.75px; font-family:Arial;" text-anchor="middle"><textPath startOffset="21.46611528233685" xlink:href="#id33">September</textPath></text><line stroke="#e1ed5e" stroke-width="0.3" x1="15.007084014347285" x2="10.007500721073583" y1="101.09737516637583" y2="101.16192664675087" /><path d="M 14.007167355692545 101.11028546245083 a86.0,86.0 0 0,1 10.666146001902534,-42.60595125391555" fill="none" id="id34" stroke="none" /><text fill="#e1ed5e" style="font-size:6.75px; font-family:Arial;" text-anchor="middle"><textPath startOffset="22.20632615414155" xlink:href="#id34">October</textPath></text><line stroke="#e1ed5e" stroke-width="0.3" x1="26.266209847984243" x2="21.928928074336255" y1="57.711370442889674" y2="55.22380399835377" /><path d="M 25.398753493254645 57.213857153982495 a86.0,86.0 0 0,1 29.58750427330803,-30.492523968695096" fill="none" id="id35" stroke="none" /><text fill="#e1ed5e" style="font-size:6.75px; font-family:Arial;" text-anchor="middle"><textPath startOffset="21.46611528233685" xlink:href="#id35">November</textPath></text><path d="M 85.57189188830299 84.74124197986013 l -8.00578948497111 -8.466695949714934 a32.652364806449945,32.652364806449945 0 0,0 0.4117185131524878,-0.3826474872707101 l 7.8588630880237655 8.603248023060292" fill="red" stroke="none" /><path d="M 85.83668400450813 84.49514656593479 l -5.301900803002171 -5.804092410186071 a28.86114755177987,28.86114755177987 0 0,0 0.3696824560381055,-0.33190455913385436 l 5.2012073593680945 5.8944959780892034" fill="red" stroke="none" /><path d="M 86.10567301691215 84.25364557470407 l -22.58079281655408 -25.59067217335755 a55.12879585494333,55.12879585494333 0 0,0 0.7169531438629081,-0.6217347013843137 l 22.136945874044397 25.975571868161545" fill="red" stroke="none" /><path d="M 86.37877921826538 84.01681056812374 l -16.670270494736624 -19.560955326066026 a46.70075663547743,46.70075663547743 0 0,0 0.6163220342775898,-0.5161519792346452 l 16.33109092349992 19.845008462694484" fill="red" stroke="none" /><path d="M 86.65592168130627 83.78471172551755 l -8.400747997862556 -10.20831467361752 a34.22052402135356,34.22052402135356 0 0,0 0.4580606191306838,-0.370386498022852 l 8.223783980167372 10.351407268904508" fill="red" stroke="none" /><path d="M 86.93701828274178 83.55741782278169 l -15.23973413928749 -19.182494959258655 a45.49933896043214,45.49933896043214 0 0,0 0.61742049359474,-0.48190648861228286 l 14.907281090533324 19.44197983709416" fill="red" stroke="none" /><path d="M 87.22198572758235 83.33499621200491 l -15.375336603376084 -20.052414817696256 a46.26856378364391,46.26856378364391 0 0,0 0.636201226314402,-0.47917357382537096 l 15.027889223303292 20.31410498102748" fill="red" stroke="none" /><path d="M 87.51073957382395 83.11751280151077 l -37.467781278528136 -50.64746159546771 a84.0,84.0 0 0,0 1.1698187345848732,-0.8499230607333286 l 36.59041722758948 51.284903891017706" fill="red" stroke="none" /><line stroke="#e1ed5e" stroke-width="0.3" x1="56.762969772571076" x2="54.21961505331055" y1="26.818313649435495" y2="22.513508569990535" /><path d="M 56.25429882871897 25.957352633546506 a86.0,86.0 0 0,1 42.265352541879196,-11.944610805530505" fill="none" id="id36" stroke="none" /><text fill="#e1ed5e" style="font-size:6.75px; font-family:Arial;" text-anchor="middle"><textPath startOffset="22.20632615414155" xlink:href="#id36">December</textPath></text><path d="M 90.91171255644093 81.06846463323043 l -5.7248355924232825 -11.925231036097143 a34.22818497846817,34.22818497846817 0 0,0 0.5333432339343918,-0.25041179968419 l 5.518714147189282 12.022007818421342" fill="red" stroke="none" /><path d="M 91.23893434514133 80.91482961587045 l -5.47733115196408 -11.931858794775959 a34.12899123492542,34.12899123492542 0 0,0 0.5360167422842442,-0.24049508774993072 l 5.271132291213061 12.02437421304242" fill="red" stroke="none" /><path d="M 97.83486435360386 79.11191278185805 l -1.1822547281559994 -11.405770311383474 a32.466879376634424,32.466879376634424 0 0,0 0.5563816233068066,-0.052835139237514095 l 0.9857479777589565 11.424430995136168" fill="red" stroke="none" /><path d="M 98.19473922651362 79.07773832637324 l -1.0317139256899743 -11.957158235883647 a33.00158600779175,33.00158600779175 0 0,0 0.5663854935148032,-0.04396241504442328 l 0.8257382428128369 11.97314591311653" fill="red" stroke="none" /><path d="M 98.55514903715128 79.0497635885617 l -1.5177478699822358 -22.00723639093711 a43.05951069637362,43.05951069637362 0 0,0 0.7398812198879903,-0.044631655711608535 l 1.1387046012546225 22.030101316029025" fill="red" stroke="none" /><path d="M 98.91598698831166 79.02799685794201 l -1.188694658696089 -22.997240668075396 a44.02794114411867,44.02794114411867 0 0,0 0.7571949797724633,-0.03260640863095683 l 0.7926588465343015 23.014294803230545" fill="red" stroke="none" /><path d="M 99.27714615592234 79.0124445844662 l -1.0856631281838802 -31.521469038370284 a52.54015971368621,52.54015971368621 0 0,0 0.9041244906253927,-0.023350868165783596 l 0.5429120023636085 31.53548669867843" fill="red" stroke="none" /></svg>