<?xml version="1.0" encoding="utf-8" ?>
<svg baseProfile="full" height="200mm" version="1.1" viewBox="0,0,200,200" width="200mm" xmlns="http://www.w3.org/2000/svg" xmlns:ev="http://www.w3.org/2001/xml-events" xmlns:xlink="http://www.w3.org/1999/xlink"><defs /><rect fill="#1a1a1a" height="200" width="200" x="0" y="0" /><rect fill="#1a1a1a" height="200" width="180" x="10" y="0" /><text alignment-baseline="middle" fill="#e1ed5e" style="dominant-baseline: central; font-size:9.0px; font-family:Arial;" text-anchor="middle" x="100.0" y="100.0">2026</text><line stroke="#e1ed5e" stroke-width="0.3" x1="100.0" x2="100.0" y1="15.0" y2="10.0" /><path d="M 100.0 14.0 a86.0,86.0 0 0,1 42.46469731375804,11.215312516191453" fill="none" id="id61" stroke="none" /><text fill="#e1ed5e" style="font-size:6.75px; font-family:Arial;" text-anchor="middle"><textPath startOffset="22.20632615414155" xlink:href="#id61">January</textPath></text><path d="M 100.36148047927253 79.00311137660856 l 0.8537791693531318 -49.59245977530094 a70.59980852215926,70.59980852215926 0 0,0 1.214899540964321,0.031377270840329596 l -1.7073053455123206 49.57041571231825" fill="red" stroke="none" /><path d="M 102.88285421437855 79.19881850522331 l 2.700933913049949 -19.488538910685193 a40.674811126817815,40.674811126817815 0 0,0 0.6926940082931291,0.10208509057590917 l -3.035996901771734 19.439159335948315" fill="red" stroke="none" /><path d="M 105.36241919743992 79.69619591428918 l 3.7206403664752443 -14.087513544328234 a35.57055944699024,35.57055944699024 0 0,0 0.5906442457456652,0.16144538407793332 l -3.9625825014446203 14.021381619424005" fill="red" stroke="none" /><path d="M 106.0581310904928 79.89281104454417 l 2.637261548644869 -8.753180723800906 a30.141844521729762,30.141844521729762 0 0,0 0.495495505827639,0.15395286560917953 l -2.7875424271832263 8.706487723309206" fill="red" stroke="none" /><path d="M 106.74666289553966 80.11325718540242 l 2.8759836816069364 -8.477368545108225 a29.951930494952457,29.951930494952457 0 0,0 0.48681585195110916,0.1698404918659181 l -3.021481537621319 8.4266072000701" fill="red" stroke="none" /><path d="M 107.4271985657038 80.35727306442388 l 9.405118968808528 -24.873736990685522 a47.59246236622775,47.59246236622775 0 0,0 0.7637838588827873,0.29633627115232614 l -9.831885992690983 24.70815801564265" fill="red" stroke="none" /><path d="M 107.76421540070413 80.48803036053334 l 7.606947891498219 -19.11674633530355 a41.57463600339775,41.57463600339775 0 0,0 0.662652442206124,0.27031256938781845 l -7.9348842032927305 18.982972879732152" fill="red" stroke="none" /><path d="M 108.09893153111575 80.62456947434976 l 3.100045510625965 -7.416375380717966 a29.038215346435535,29.038215346435535 0 0,0 0.45951764782871696,0.19674147555280855 l -3.227246916244997 7.361914377202367" fill="red" stroke="none" /><path d="M 108.76106565485865 80.91482961587045 l 6.89422804316153 -15.018437488573387 a37.525248709453706,37.525248709453706 0 0,0 0.5847180478159474,0.27453296366262514 l -7.151724302277076 14.897539542270758" fill="red" stroke="none" /><path d="M 110.36928655335952 81.73862282372117 l 4.419501672740725 -7.783195744645111 a29.950426304641574,29.950426304641574 0 0,0 0.44612339105467935,0.2584234633712741 l -4.552821796260733 7.705968123883787" fill="red" stroke="none" /><line stroke="#e1ed5e" stroke-width="0.3" x1="143.23703022742887" x2="145.7803849466894" y1="26.81831364943548" y2="22.513508569990506" /><path d="M 143.74570117128098 25.957352633546492 a86.0,86.0 0 0,1 28.547481713284135,27.462654790039103" fill="none" id="id62" stroke="none" /><text fill="#e1ed5e" style="font-size:6.75px; font-family:Arial;" text-anchor="middle"><textPath startOffset="19.985693538727396" xlink:href="#id62">February</textPath></text><path d="M 110.68208982089419 81.91981866633111 l 6.0114770078445465 -10.17484370637059 a32.818007457474074,32.818007457474074 0 0,0 0.48389047714221123,0.29153859819067907 l -6.185729551204395 10.069858498721295" fill="red" stroke="none" /><path d="M 112.48926042617603 83.11751280151076 l 9.833164785803907 -13.29208239336861 a37.53392222241516,37.53392222241516 0 0,0 0.5160983050598132,0.3887145435311007 l -10.060509244622104 13.12085126033166" fill="red" stroke="none" /><path d="M 112.77801427241765 83.33499621200491 l 14.888428036261553 -19.417391805326787 a45.468354949046144,45.468354949046144 0 0,0 0.6170000443301786,0.4815783212922397 l -15.220460635751163 19.158235094811324" fill="red" stroke="none" /><path d="M 114.68862486808459 84.99185889309783 l 6.238909434538119 -6.374622130229499 a29.91962993826428,29.91962993826428 0 0,0 0.36496847916310904,0.3634011885269819 l -6.347713713868551 6.266285091052398" fill="red" stroke="none" /><path d="M 115.19652480421416 85.50635884689758 l 26.02727322687711 -24.82343583182234 a56.966955919609255,56.966955919609255 0 0,0 0.6706710986283613,0.7154251668266999 l -26.450711647475934 24.371741248117583" fill="red" stroke="none" /><path d="M 115.9244219780498 86.31012108654704 l 27.35417210428484 -23.51578628107119 a57.07274505673017,57.07274505673017 0 0,0 0.6340221752805116,0.7504822746436041 l -27.754904893052466 23.04144505679848" fill="red" stroke="none" /><path d="M 116.60985879189232 87.15038557335679 l 17.983726463425263 -13.912457288440784 a43.736993761577,43.736993761577 0 0,0 0.4555396589487972,0.5994367934180057 l -18.220542062598174 13.600835719141743" fill="red" stroke="none" /><path d="M 117.2510076193507 88.02491185347247 l 51.75302285805209 -35.92526443958259 a84.0,84.0 0 0,0 0.8143021373250665,1.1948879069183742 l -52.36374946104589 35.02909850939381" fill="red" stroke="none" /><line stroke="#e1ed5e" stroke-width="0.3" x1="172.23445277983987" x2="176.4835382374775" y1="55.19839476539836" y2="52.563006222186495" /><path d="M 173.08426987136738 54.67131705675599 a86.0,86.0 0 0,1 12.851231095245387,41.99856678651699" fill="none" id="id63" stroke="none" /><text fill="#e1ed5e" style="font-size:6.75px; font-family:Arial;" text-anchor="middle"><textPath startOffset="22.20632615414155" xlink:href="#id63">March</textPath></text><path d="M 117.84615892207809 88.93136811851018 l 32.11002271342783 -19.915435174205175 a58.78462804944386,58.78462804944386 0 0,0 0.5259382340052862,0.8645041705572956 l -32.44807674571934 19.359763230440798" fill="red" stroke="none" /><path d="M 118.56541770881063 90.18545643968196 l 18.67055049275558 -9.870121641233268 a42.1189194069033,42.1189194069033 0 0,0 0.3333222424246017,0.6438724780254332 l -18.837682168340297 9.54727644094749" fill="red" stroke="none" /><path d="M 118.73160827565052 90.50648371742162 l 22.80721038344742 -11.559104800248639 a46.5691562093465,46.5691562093465 0 0,0 0.3562318404876255,0.7181416528614979 l -23.002802236888453 11.16480355888819" fill="red" stroke="none" /><path d="M 119.04729006885535 91.15688171328212 l 25.162083192410794 -11.68204386064124 a48.74167585679977,48.74167585679977 0 0,0 0.34675683049187883,0.7640327116291752 l -25.35944233986602 11.247189140170002" fill="red" stroke="none" /><path d="M 119.34039704204932 91.81776055985345 l 29.48739103253596 -12.475074496602673 a53.01770937467995,53.01770937467995 0 0,0 0.34834733831791326,0.8435507103998513 l -29.69776005774007 11.965649215749519" fill="red" stroke="none" /><path d="M 119.47837535516314 92.15188598940014 l 35.35440328828635 -14.244791093916866 a59.11624201282343,59.11624201282343 0 0,0 0.3721689762309365,0.9471294500969561 l -35.594365814398984 13.634112638924124" fill="red" stroke="none" /><path d="M 119.61058180528143 92.48833698450437 l 43.77557105080147 -16.767852239648928 a67.87708917535801,67.87708917535801 0 0,0 0.4085406008395835,1.0946856966424023 l -44.057716240142675 16.011843405977192" fill="red" stroke="none" /><path d="M 119.7369772167798 92.82701384747503 l 35.83233149038769 -13.0225016105668 a59.12533971303396,59.12533971303396 0 0,0 0.33939893087998396,0.9595264815492724 l -36.051183502077485 12.403777502590914" fill="red" stroke="none" /><line stroke="#e1ed5e" stroke-width="0.3" x1="184.98032266829074" x2="189.97916517819016" y1="98.17113171792111" y2="98.06355123074" /><path d="M 185.9800911702706 98.14961562048488 a86.0,86.0 0 0,1 -9.607161424134198,41.387399972396054" fill="none" id="id64" stroke="none" /><text fill="#e1ed5e" style="font-size:6.75px; font-family:Arial;" text-anchor="middle"><textPath startOffset="21.466115282336823" xlink:href="#id64">April</textPath></text><line stroke="#e1ed5e" stroke-width="0.3" x1="174.80103733775053" x2="179.2010983576182" y1="140.37084112569926" y2="142.7455964860345" /><path d="M 175.68104954172406 140.8457921977663 a86.0,86.0 0 0,1 -30.038265399797805,32.042727171017184" fill="none" id="id65" stroke="none" /><text fill="#e1ed5e" style="font-size:6.75px; font-family:Arial;" text-anchor="middle"><textPath startOffset="22.206326154141568" xlink:href="#id65">May</textPath></text><line stroke="#e1ed5e" stroke-width="0.3" x1="143.8653032363475" x2="146.44561519142675" y1="172.8068346515853" y2="177.08958963109032" /><path d="M 144.38136562736335 173.6633856474863 a86.0,86.0 0 0,1 -40.68145358897372,12.25698825130547" fill="none" id="id66" stroke="none" /><text fill="#e1ed5e" style="font-size:6.75px; font-family:Arial;" text-anchor="middle"><textPath startOffset="21.466115282336833" xlink:href="#id66">June</textPath></text><line stroke="#e1ed5e" stroke-width="0.3" x1="102.19456741930631" x2="102.32365962044197" y1="184.97166512339345" y2="189.96999836594603" /><path d="M 102.22038585953345 185.97133177190398 a86.0,86.0 0 0,1 -42.740103519485714,-10.115201625700543" fill="none" id="id67" stroke="none" /><text fill="#e1ed5e" style="font-size:6.75px; font-family:Arial;" text-anchor="middle"><textPath startOffset="22.20632615414155" xlink:href="#id67">July</textPath></text><line stroke="#e1ed5e" stroke-width="0.3" x1="58.666819895761336" x2="56.23545636021788" y1="174.27360380694188" y2="178.64263932499728" /><path d="M 58.180547188652646 175.14741091055294 a86.0,86.0 0 0,1 -31.652253787137756,-30.449443065178592" fill="none" id="id68" stroke="none" /><text fill="#e1ed5e" style="font-size:6.75px; font-family:Arial;" text-anchor="middle"><textPath startOffset="22.20632615414155" xlink:href="#id68">August</textPath></text><line stroke="#e1ed5e" stroke-width="0.3" x1="26.63291911575756" x2="22.317208475507996" y1="142.92168965132927" y2="145.44649492493687" /><path d="M 25.769776987707644 143.4266507060508 a86.0,86.0 0 0,1 -11.730757126820373,-40.83630448921669" fill="none" id="id69" stroke="none" /><text fill="#e1ed5e" style="font-size:6.75px; font-family:Arial;" text-anchor="middle"><textPath startOffset="21.46611528233685" xlink:href="#id69">September</textPath></text><line stroke="#e1ed5e" stroke-width="0.3" x1="15.007084014347285" x2="10.007500721073583" y1="101.09737516637583" y2="101.16192664675087" /><path d="M 14.007167355692545 101.11028546245083 a86.0,86.0 0 0,1 10.666146001902534,-42.60595125391555" fill="none" id="id70" stroke="none" /><text fill="#e1ed5e" style="font-size:6.75px; font-family:Arial;" text-anchor="middle"><textPath startOffset="22.20632615414155" xlink:href="#id70">October</textPath></text><line stroke="#e1ed5e" stroke-width="0.3" x1="26.266209847984243" x2="21.928928074336255" y1="57.711370442889674" y2="55.22380399835377" /><path d="M 25.398753493254645 57.213857153982495 a86.0,86.0 0 0,1 29.58750427330803,-30.492523968695096" fill="none" id="id71" stroke="none" /><text fill="#e1ed5e" style="font-size:6.75px; font-family:Arial;" text-anchor="middle"><textPath startOffset="21.46611528233685" xlink:href="#id71">November</textPath></text><line stroke="#e1ed5e" stroke-width="0.3" x1="56.762969772571076" x2="54.21961505331055" y1="26.818313649435495" y2="22.513508569990535" /><path d="M 56.25429882871897 25.957352633546506 a86.0,86.0 0 0,1 42.265352541879196,-11.944610805530505" fill="none" id="id72" stroke="none" /><text fill="#e1ed5e" style="font-size:6.75px; font-family:Arial;" text-anchor="middle"><textPath startOffset="22.20632615414155" xlink:href="#id72">December</textPath></text></svg>