<?xml version="1.0" encoding="utf-8" ?>
<svg baseProfile="full" height="200mm" version="1.1" viewBox="0,0,200,200" width="200mm" xmlns="http://www.w3.org/2000/svg" xmlns:ev="http://www.w3.org/2001/xml-events" xmlns:xlink="http://www.w3.org/1999/xlink"><defs /><rect fill="#1a1a1a" height="200" width="200" x="0" y="0" /><rect fill="#1a1a1a" height="200" width="180" x="10" y="0" /><text alignment-baseline="middle" fill="#e1ed5e" style="dominant-baseline: central; font-size:9.0px; font-family:Arial;" text-anchor="middle" x="100.0" y="100.0">2024</text><line stroke="#e1ed5e" stroke-width="0.3" x1="100.0" x2="100.0" y1="15.0" y2="10.0" /><path d="M 100.0 14.0 a86.0,86.0 0 0,1 42.35913384403234,11.155469271406648" fill="none" id="id37" stroke="none" /><text fill="#e1ed5e" style="font-size:6.75px; font-family:Arial;" text-anchor="middle"><textPath startOffset="22.145653131862478" xlink:href="#id37">January</textPath></text><path d="M 100.0 79.0 l 0.0 -9.135472023779634 a30.135472023779634,30.135472023779634 0 0,0 0.5173154500739598,0.004440530962801308 l -0.1568225252251051 9.134125891011267" fill="red" stroke="none" /><path d="M 100.36049292484886 79.00309439819443 l 0.28084175556430846 -16.357624308719828 a37.36003499742254,37.36003499742254 0 0,0 0.6411456761391536,0.016513638317061097 l -0.5616007457742035 16.350392953052722" fill="red" stroke="none" /><line stroke="#e1ed5e" stroke-width="0.3" x1="143.13028292997686" x2="145.6673583964461" y1="26.7553504044142" y2="22.446841604673864" /><path d="M 143.63769802327073 25.89364864446614 a86.0,86.0 0 0,1 29.32050498858742,28.57503671076993" fill="none" id="id38" stroke="none" /><text fill="#e1ed5e" style="font-size:6.75px; font-family:Arial;" text-anchor="middle"><textPath startOffset="20.669276256404974" xlink:href="#id38">February</textPath></text><line stroke="#e1ed5e" stroke-width="0.3" x1="172.87174338648825" x2="177.1583165268699" y1="56.24261187166439" y2="53.66864786411523" /><path d="M 173.72905801456457 55.72781907015455 a86.0,86.0 0 0,1 12.242430191666344,42.057860355516425" fill="none" id="id39" stroke="none" /><text fill="#e1ed5e" style="font-size:6.75px; font-family:Arial;" text-anchor="middle"><textPath startOffset="22.145653131862474" xlink:href="#id39">March</textPath></text><line stroke="#e1ed5e" stroke-width="0.3" x1="184.99686870605535" x2="189.99668451229388" y1="99.2704041080226" y2="99.22748670261217" /><path d="M 185.99683186730306 99.26182062694052 a86.0,86.0 0 0,1 -10.086455211305974,41.156179273409016" fill="none" id="id40" stroke="none" /><text fill="#e1ed5e" style="font-size:6.75px; font-family:Arial;" text-anchor="middle"><textPath startOffset="21.40746469413373" xlink:href="#id40">April</textPath></text><path d="M 120.99922638620191 100.18025310272382 l 7.996645422782705 0.06864158337689923 a28.996940020075183,28.996940020075183 0 0,0 -0.008545216511597434,0.49771602179504604 l -7.994288774672438 -0.20590452114101632" fill="red" stroke="none" /><path d="M 120.99303781780057 100.54070618675476 l 12.179016249153404 0.3136882566333539 a33.18305532776948,33.18305532776948 0 0,0 -0.01955479505153004,0.5693165217722788 l -12.17183676710503 -0.5227110429697434" fill="red" stroke="none" /><path d="M 120.98066250479742 100.90099992219065 l 4.053611010576598 0.1740794984088572 a25.057347150150466,25.057347150150466 0 0,0 -0.02214402550198434,0.42958817891454104 l -4.050025395618041 -0.24363947070012887" fill="red" stroke="none" /><path d="M 120.96210409425399 101.26102812881392 l 23.632499400416084 1.4216724792561048 a44.67522292501046,44.67522292501046 0 0,0 -0.05262324043963756,0.7651303667786018 l -23.60461219881138 -1.8271462701890502" fill="red" stroke="none" /><path d="M 120.93736805541906 101.62068470465957 l 6.29684527582727 0.48741564838183143 a27.315681629246022,27.315681629246022 0 0,0 -0.0402013696524699,0.46720085322917065 l -6.287550283477059 -0.5954375489866595" fill="red" stroke="none" /><path d="M 120.9064616781168 101.97986365728391 l 11.54857505986367 1.0936620651773077 a32.600244938194756,32.600244938194756 0 0,0 -0.0575434802081217,0.5566809717764474 l -11.528099187173883 -1.2917475592366865" fill="red" stroke="none" /><path d="M 120.86939407059847 102.33845913500097 l 8.079162935627043 0.905287058458263 a29.129724374086848,29.129724374086848 0 0,0 -0.059948853108526594,0.49646250204590414 l -8.062431996258853 -1.0438432374275757" fill="red" stroke="none" /><path d="M 119.0197475246899 108.90220220490707 l 10.381141830465149 4.858898551237559 a32.46198066808053,32.46198066808053 0 0,0 -0.24055988188846114,0.5026776319744803 l -10.296202690616775 -5.036388685277142" fill="red" stroke="none" /><line stroke="#e1ed5e" stroke-width="0.3" x1="174.33088141563837" x2="178.70328620479359" y1="141.23008692659167" y2="143.65538615756765" /><path d="M 175.20536237346943 141.71514677278685 a86.0,86.0 0 0,1 -30.301960400862466,31.631185727798858" fill="none" id="id41" stroke="none" /><text fill="#e1ed5e" style="font-size:6.75px; font-family:Arial;" text-anchor="middle"><textPath startOffset="22.145653131862474" xlink:href="#id41">May</textPath></text><line stroke="#e1ed5e" stroke-width="0.3" x1="143.1302829299769" x2="145.66735839644613" y1="173.24464959558577" y2="177.55315839532614" /><path d="M 143.63769802327073 174.10635135553383 a86.0,86.0 0 0,1 -40.68552437913181,11.842963189579606" fill="none" id="id42" stroke="none" /><text fill="#e1ed5e" style="font-size:6.75px; font-family:Arial;" text-anchor="middle"><textPath startOffset="21.407464694133747" xlink:href="#id42">June</textPath></text><path d="M 110.34350942703117 118.27599006163325 l 4.016201636416553 7.096243466539939 a29.153928312216497,29.153928312216497 0 0,0 -0.4376640637384207,0.24276487845849656 l -3.893793384522038 -7.164141260431579" fill="red" stroke="none" /><line stroke="#e1ed5e" stroke-width="0.3" x1="101.45913802915013" x2="101.54496967792366" y1="184.9874750549273" y2="189.98673829345242" /><path d="M 101.47630435890484 185.9873277026323 a86.0,86.0 0 0,1 -42.54439059252881,-10.42667462771756" fill="none" id="id43" stroke="none" /><text fill="#e1ed5e" style="font-size:6.75px; font-family:Arial;" text-anchor="middle"><textPath startOffset="22.145653131862474" xlink:href="#id43">July</textPath></text><line stroke="#e1ed5e" stroke-width="0.3" x1="58.13341422392154" x2="55.67067388415222" y1="173.97424548756322" y2="178.32567169271397" /><path d="M 57.64086615596768 174.84453072859336 a86.0,86.0 0 0,1 -31.369924170532247,-30.572349798747897" fill="none" id="id44" stroke="none" /><text fill="#e1ed5e" style="font-size:6.75px; font-family:Arial;" text-anchor="middle"><textPath startOffset="22.145653131862474" xlink:href="#id44">August</textPath></text><line stroke="#e1ed5e" stroke-width="0.3" x1="26.387840678322732" x2="22.057713659400548" y1="142.50000000000003" y2="145.00000000000006" /><path d="M 25.521815274538298 143.00000000000003 a86.0,86.0 0 0,1 -11.493303480769221,-40.785679425670985" fill="none" id="id45" stroke="none" /><text fill="#e1ed5e" style="font-size:6.75px; font-family:Arial;" text-anchor="middle"><textPath startOffset="21.40746469413373" xlink:href="#id45">September</textPath></text><line stroke="#e1ed5e" stroke-width="0.3" x1="15.003131293944662" x2="10.003315487706104" y1="100.72959589197737" y2="100.7725132973878" /><path d="M 14.003168132696942 100.73817937305945 a86.0,86.0 0 0,1 10.791469493833604,-42.45332614584628" fill="none" id="id46" stroke="none" /><text fill="#e1ed5e" style="font-size:6.75px; font-family:Arial;" text-anchor="middle"><textPath startOffset="22.145653131862435" xlink:href="#id46">October</textPath></text><path d="M 81.63589988554816 89.8137432299009 l -7.1804551377434525 -3.982877424071123 a29.211105197250962,29.211105197250962 0 0,0 0.2469960787563168,-0.4364184044552538 l 7.111025693965767 4.105552598625482" fill="red" stroke="none" /><line stroke="#e1ed5e" stroke-width="0.3" x1="26.387840678322718" x2="22.05771365940052" y1="57.49999999999999" y2="54.99999999999999" /><path d="M 25.521815274538284 56.99999999999999 a86.0,86.0 0 0,1 29.574782752854787,-30.34633250058573" fill="none" id="id47" stroke="none" /><text fill="#e1ed5e" style="font-size:6.75px; font-family:Arial;" text-anchor="middle"><textPath startOffset="21.40746469413373" xlink:href="#id47">November</textPath></text><path d="M 81.81346652052679 89.5 l -6.295913419400331 -3.6349473074853593 a28.269894614970717,28.269894614970717 0 0,0 0.24625271128279633,-0.41819093974307003 l 6.232586997987755 3.742489415522002" fill="red" stroke="none" /><path d="M 81.99639281039701 89.18935116829357 l -7.097667135226044 -4.261945182162386 a29.278952560452623,29.278952560452623 0 0,0 0.2624398494794276,-0.4286757710042599 l 7.023459321291224 4.383158069291189" fill="red" stroke="none" /><path d="M 82.576782715395 88.27688183743585 l -7.7283954683520015 -5.200009378438389 a30.314944661729932,30.314944661729932 0 0,0 0.2942141357112566,-0.4292672166986932 l 7.637991595825432 5.331911330207117" fill="red" stroke="none" /><path d="M 82.78059297857968 87.97951657250589 l -11.421585233383606 -7.973153537912875 a34.92924213956305,34.92924213956305 0 0,0 0.34743768108311274,-0.48871460925624305 l 11.283032453770522 8.16804537387864" fill="red" stroke="none" /><path d="M 82.98947788004972 87.6856937992154 l -16.505620314423066 -11.948796230499843 a41.37668357024525,41.37668357024525 0 0,0 0.4214470977140403,-0.5717739293078025 l 16.298071197125207 12.230376469076509" fill="red" stroke="none" /><path d="M 83.2033758604659 87.39550010848427 l -7.20391234796541 -5.405950127484217 a30.00670027801609,30.00670027801609 0 0,0 0.3127098581888474,-0.4093472424905025 l 7.110050512422256 5.528818283215604" fill="red" stroke="none" /><path d="M 83.42222388311158 87.10902102172516 l -16.50336857140908 -12.833119220860107 a41.90574378348166,41.90574378348166 0 0,0 0.44646293491897815,-0.5640913334767392 l 16.28063920584854 13.11453049825153" fill="red" stroke="none" /><path d="M 83.64595745247003 86.82634096563983 l -31.309254292081718 -25.220518991878098 a61.20378069965462,61.20378069965462 0 0,0 0.6661104168346389,-0.8125464004995013 l 30.87169705600845 25.754267674076093" fill="red" stroke="none" /><path d="M 83.8745106332314 86.54754324733833 l -9.270776724316768 -7.734011670025084 a33.07320328596424,33.07320328596424 0 0,0 0.367436101373801,-0.43283880351340226 l 9.136646059435853 7.892017255988043" fill="red" stroke="none" /><path d="M 84.10781606972428 86.27271002978789 l -13.166210338823138 -11.37265890722008 a38.39788680576194,38.39788680576194 0 0,0 0.43515582034008016,-0.495127443094848 l 12.969043454524465 11.596998628126228" fill="red" stroke="none" /><path d="M 84.34580500576568 86.00192230759919 l -14.487862711098547 -12.955136172859063 a40.43537288535934,40.43537288535934 0 0,0 0.46712925853831677,-0.5134568841352414 l 14.263335751718364 13.201930632551964" fill="red" stroke="none" /><path d="M 84.58840730492382 85.73525988315684 l -15.101865798792662 -13.978061525597212 a41.57796283936106,41.57796283936106 0 0,0 0.48932147432753187,-0.5196424488238129 l 14.859688490728859 14.235245434365536" fill="red" stroke="none" /><path d="M 84.83555147118756 85.47280134310135 l -7.271273193638904 -6.965715236652024 a31.069389386385744,31.069389386385744 0 0,0 0.37226040237142016,-0.3819719671845954 l 7.150625990116682 7.089509895904349" fill="red" stroke="none" /><path d="M 85.34317274990677 84.96080404539775 l -3.9278816982919373 -4.03035264993879 a26.627787941868934,26.627787941868934 0 0,0 0.33009265913393654,-0.3162213004522745 l 3.8581165532927004 4.097186080696632" fill="red" stroke="none" /><path d="M 85.86807049272753 84.46653392183569 l -2.7374641611008 -3.0089526461879994 a25.067862591129778,25.067862591129778 0 0,0 0.3207910181439123,-0.2868533065198646 l 2.685408116133496 3.0555014825912648" fill="red" stroke="none" /><path d="M 86.13680546590413 84.22622945171909 l -5.981119060601497 -6.805415552082234 a30.060213355854998,30.060213355854998 0 0,0 0.3905258593421013,-0.3373269360319 l 5.863413721496547 6.907086620578845" fill="red" stroke="none" /><path d="M 86.40962598614128 83.9905735841838 l -4.977378509154853 -5.86333936834418 a28.69110170078197,28.69110170078197 0 0,0 0.37821111104511207,-0.31551716037812766 l 4.875993063947832 5.9479187126341895" fill="red" stroke="none" /><path d="M 86.68645165197937 83.75963576809568 l -2.3124669791502828 -2.8208337126920453 a24.64754799342249,24.64754799342249 0 0,0 0.32951333865645127,-0.2654326205962658 l 2.263702870138586 2.86011462708171" fill="red" stroke="none" /><path d="M 86.96720088162412 83.53348406188908 l -2.9515909304961174 -3.7292387198134533 a25.75595526160022,25.75595526160022 0 0,0 0.3490423206605223,-0.2714174197092251 l 2.8871386652003506 3.7793571911434833" fill="red" stroke="none" /><path d="M 87.25179093698888 83.31218511350988 l -1.6410937808453474 -2.1482444389446425 a23.703357720869707,23.703357720869707 0 0,0 0.32546630245676295,-0.2442359809881496 l 1.603974489477832 2.176099447196793" fill="red" stroke="none" /><path d="M 87.54013794807813 83.09580414077388 l -10.89074407615678 -14.77538596726794 a39.355389862764625,39.355389862764625 0 0,0 0.5472629135268149,-0.3961761456809606 l 10.635500152255998 14.96016288432198" fill="red" stroke="none" /><path d="M 87.83215693770416 82.88440491214696 l -5.556790070711607 -7.81632113034149 a30.590244621623683,30.590244621623683 0 0,0 0.4306012605879658,-0.3005931220695899 l 5.421793718949875 7.910559068216206" fill="red" stroke="none" /><path d="M 88.12776184653039 82.6780497279521 l -2.4875287094582 -3.6293787277956455 a25.40002148064692,25.40002148064692 0 0,0 0.36177336701322377,-0.2434172667588863 l 2.4248590543479867 3.6715456686116412" fill="red" stroke="none" /><path d="M 88.4268655584334 82.4767994020092 l -4.977806814940063 -7.537033964018558 a30.032465978991176,30.032465978991176 0 0,0 0.4326310693998521,-0.280426232284691 l 4.8476901132831856 7.621374038007155" fill="red" stroke="none" /><path d="M 88.72937992617638 82.28071324371311 l -10.158738355377528 -15.971224016244987 a39.92828469645623,39.92828469645623 0 0,0 0.5815000826701732,-0.36289905914635284 l 9.883074143917655 16.143258872232877" fill="red" stroke="none" /><path d="M 89.03521579738668 82.08984904055464 l -10.820656596878937 -17.674729347088313 a41.723963585192976,41.723963585192976 0 0,0 0.6140719243225518,-0.3687325468362274 l 10.515651915998951 17.857875894460463" fill="red" stroke="none" /><line stroke="#e1ed5e" stroke-width="0.3" x1="56.869717070023135" x2="54.33264160355391" y1="26.7553504044142" y2="22.446841604673864" /><path d="M 56.362301976729285 25.89364864446614 a86.0,86.0 0 0,1 42.16139366436587,-11.88097634709845" fill="none" id="id48" stroke="none" /><text fill="#e1ed5e" style="font-size:6.75px; font-family:Arial;" text-anchor="middle"><textPath startOffset="22.145653131862474" xlink:href="#id48">December</textPath></text><path d="M 89.65649057296885 81.72400993836675 l -7.80833849767519 -13.796585944847934 a36.85294716536493,36.85294716536493 0 0,0 0.5532431322598752,-0.3068746394525557 l 7.570351177259212 13.928593499733635" fill="red" stroke="none" /><path d="M 89.97174638481275 81.54914285379989 l -10.548142834809209 -19.407394753961338 a43.08869141437815,43.08869141437815 0 0,0 0.6529192152941273,-0.3476427063230651 l 10.21343480372852 19.58560792800698" fill="red" stroke="none" /><path d="M 90.28995756902619 81.37971332152246 l -11.824926195921616 -22.675855155641905 a46.57387898967704,46.57387898967704 0 0,0 0.7120764153710011,-0.3635912914337723 l 11.433922558837033 22.87550439874851" fill="red" stroke="none" /><path d="M 90.61103034731259 81.2157712731953 l -10.691264494978654 -21.38969078411735 a44.91280009412837,44.91280009412837 0 0,0 0.6925976184488462,-0.3387842016925887 l 10.322506627267755 21.570068735907153" fill="red" stroke="none" /><path d="M 90.93487009805054 81.0573650232925 l -2.087395994869916 -4.361854800796485 a25.835597103009132,25.835597103009132 0 0,0 0.40169590657146087,-0.1880139670908105 l 2.0122113744269328 4.397044999457838" fill="red" stroke="none" /><path d="M 91.26138138417902 80.90454125486306 l -2.4763555262330392 -5.411283735837046 a26.950993896992287,26.950993896992287 0 0,0 0.42234337482000844,-0.18890881956613845 l 2.383098748557412 5.45299630631303" fill="red" stroke="none" /><path d="M 92.25597844496254 80.48000691201159 l -7.725438179470163 -19.47315084199939 a41.94960617243381,41.94960617243381 0 0,0 0.6716486272688045,-0.2598081176834231 l 7.390017289707829 19.602898847820853" fill="red" stroke="none" /><path d="M 92.592206182469 80.34994680014964 l -6.664053059403982 -17.677192477200837 a39.891604935911545,39.891604935911545 0 0,0 0.6428453270590591,-0.2360617084316765 l 6.359618580690796 17.788985034641236" fill="red" stroke="none" /><path d="M 92.93061703081487 80.22567764915836 l -7.1908608651385135 -20.114117646068266 a42.3608569271379,42.3608569271379 0 0,0 0.6868393940437072,-0.2389183948660997 l 6.8445156990498015 20.23459447350295" fill="red" stroke="none" /><path d="M 93.27111125876988 80.10723608172694 l -2.200642995062864 -6.505809986268833 a27.867924953663554,27.867924953663554 0 0,0 0.4544824116937305,-0.14939739589146947 l 2.0886378457213723 6.542628303562331" fill="red" stroke="none" /><path d="M 93.61358852112211 79.99465700312896 l -14.307751097394156 -44.81882652940484 a68.0471992039682,68.0471992039682 0 0,0 1.115842402511312,-0.34569082863240386 l 13.536268062011228 45.05783394584388" fill="red" stroke="none" /><path d="M 93.95794788825049 79.88797359093562 l -8.56673583924473 -28.515877429014704 a50.774892585633125,50.774892585633125 0 0,0 0.8369152709959717,-0.24361383805308245 l 8.075960555867134 28.658734961370307" fill="red" stroke="none" /><path d="M 94.30408787586887 79.78721728523814 l -6.471724744744458 -22.965868012793784 a44.86030835410143,44.86030835410143 0 0,0 0.743011885969616,-0.20251119354811123 l 6.076531457840164 23.073579700486036" fill="red" stroke="none" /><path d="M 94.6519064749342 79.69241777938228 l -2.15477315596598 -8.18202464606687 a29.461003171168137,29.461003171168137 0 0,0 0.4901675506798332,-0.12459867459751807 l 2.014000312060769 8.217808552499651" fill="red" stroke="none" /><path d="M 95.00130118170881 79.60360301121753 l -2.311481510822378 -9.431633359155011 a30.71074943536282,30.71074943536282 0 0,0 0.5131149767342453,-0.12109373736963526 l 2.1492343803482266 9.469923240170878" fill="red" stroke="none" /><path d="M 95.35216902796891 79.52079915486377 l -3.048333512525718 -13.431519911468106 a34.77309203976186,34.77309203976186 0 0,0 0.5832566622269852,-0.12711807486069865 l 2.8173144336796145 13.48186944446252" fill="red" stroke="none" /><path d="M 95.70440661134978 79.44403061299748 l -1.7415314429345614 -8.333858395920968 a29.51387852450293,29.51387852450293 0 0,0 0.496821894477315,-0.0993782932041181 l 1.5982130629262696 8.362526085787954" fill="red" stroke="none" /><path d="M 96.76829788921471 79.25015418208739 l -1.3942856751424526 -8.95231422747063 a30.060240756805555,30.060240756805555 0 0,0 0.5105587236829137,-0.07503455032613655 l 1.240401845851854 8.974929851095652" fill="red" stroke="none" /><path d="M 97.12497278360702 79.19773525538626 l -1.07565979118942 -7.782938409721014 a28.856918879299464,28.856918879299464 0 0,0 0.49128516624989577,-0.06360670064273655 l 0.94189680304873 7.800256706564145" fill="red" stroke="none" /><path d="M 97.48249496171623 79.15144685158666 l -2.8348043667129215 -23.476246762572135 a44.64678155383335,44.64678155383335 0 0,0 0.7616828066576272,-0.08534814720428771 l 2.431385658454495 23.521450670283393" fill="red" stroke="none" /><path d="M 97.84075906011542 79.11130261209362 l -0.9937730500137765 -9.613852780646232 a30.66507890101643,30.66507890101643 0 0,0 0.5240814384003687,-0.04963105710193234 l 0.8285920482283922 9.629495593253347" fill="red" stroke="none" /><path d="M 98.1996594967304 79.07731436759882 l -1.7537389825844572 -20.381105322723002 a41.45641842050959,41.45641842050959 0 0,0 0.7095581974239508,-0.054924292040284185 l 1.4036117903852892 20.408207381758338" fill="red" stroke="none" /><path d="M 98.5590905019552 79.04949213459386 l -0.4338979888121208 -6.308781529809547 a27.32368499022218,27.32368499022218 0 0,0 0.4682182078230634,-0.028166844694257304 l 0.32553542885657366 6.3153003523284985" fill="red" stroke="none" /><path d="M 99.27912038922189 79.0123766808444 l -2.1626388323343404 -62.96286995746683 a84.0,84.0 0 0,0 1.4415467437170244,-0.03712913059981959 l 1.081478774546572 62.990716805416696" fill="red" stroke="none" /><path d="M 99.63950707515114 79.00309439819443 l -0.26157690467863937 -15.235543325718874 a36.237788648846596,36.237788648846596 0 0,0 0.6220698295274878,-0.005339721322157372 l 3.732181818978771e-15 15.237788648846596" fill="red" stroke="none" /></svg>