<?xml version="1.0" encoding="utf-8" ?>
<svg baseProfile="full" height="200mm" version="1.1" viewBox="0,0,200,200" width="200mm" xmlns="http://www.w3.org/2000/svg" xmlns:ev="http://www.w3.org/2001/xml-events" xmlns:xlink="http://www.w3.org/1999/xlink"><defs /><rect fill="#1a1a1a" height="200" width="200" x="0" y="0" /><text alignment-baseline="middle" fill="#e1ed5e" style="dominant-baseline: central; font-size:9.0px; font-family:Arial;" text-anchor="middle" x="100.0" y="100.0">2024</text><line stroke="#e1ed5e" stroke-width="0.3" x1="100.0" x2="100.0" y1="15.0" y2="10.0" /><path d="M 100.0 14.0 a86.0,86.0 0 0,1 42.35913384403234,11.155469271406648" fill="none" id="id37" stroke="none" /><text fill="#e1ed5e" style="font-size:6.75px; font-family:Arial;" text-anchor="middle"><textPath startOffset="22.145653131862478" xlink:href="#id37">January</textPath></text><path d="M 100.36049292484886 79.00309439819443 l 0.21637322311811588 -12.60265549587228 a33.60451279976034,33.60451279976034 0 0,0 0.5766961428653801,0.014853646958162036 l -0.4326826800542374 12.597084131564074" fill="red" stroke="none" /><line stroke="#e1ed5e" stroke-width="0.3" x1="143.13028292997686" x2="145.6673583964461" y1="26.7553504044142" y2="22.446841604673864" /><path d="M 143.63769802327073 25.89364864446614 a86.0,86.0 0 0,1 29.32050498858742,28.57503671076993" fill="none" id="id38" stroke="none" /><text fill="#e1ed5e" style="font-size:6.75px; font-family:Arial;" text-anchor="middle"><textPath startOffset="20.669276256404974" xlink:href="#id38">February</textPath></text><line stroke="#e1ed5e" stroke-width="0.3" x1="172.87174338648825" x2="177.1583165268699" y1="56.24261187166439" y2="53.66864786411523" /><path d="M 173.72905801456457 55.72781907015455 a86.0,86.0 0 0,1 12.242430191666344,42.057860355516425" fill="none" id="id39" stroke="none" /><text fill="#e1ed5e" style="font-size:6.75px; font-family:Arial;" text-anchor="middle"><textPath startOffset="22.145653131862474" xlink:href="#id39">March</textPath></text><line stroke="#e1ed5e" stroke-width="0.3" x1="184.99686870605535" x2="189.99668451229388" y1="99.2704041080226" y2="99.22748670261217" /><path d="M 185.99683186730306 99.26182062694052 a86.0,86.0 0 0,1 -10.086455211305974,41.156179273409016" fill="none" id="id40" stroke="none" /><text fill="#e1ed5e" style="font-size:6.75px; font-family:Arial;" text-anchor="middle"><textPath startOffset="21.40746469413373" xlink:href="#id40">April</textPath></text><line stroke="#e1ed5e" stroke-width="0.3" x1="174.33088141563837" x2="178.70328620479359" y1="141.23008692659167" y2="143.65538615756765" /><path d="M 175.20536237346943 141.71514677278685 a86.0,86.0 0 0,1 -30.301960400862466,31.631185727798858" fill="none" id="id41" stroke="none" /><text fill="#e1ed5e" style="font-size:6.75px; font-family:Arial;" text-anchor="middle"><textPath startOffset="22.145653131862474" xlink:href="#id41">May</textPath></text><line stroke="#e1ed5e" stroke-width="0.3" x1="143.1302829299769" x2="145.66735839644613" y1="173.24464959558577" y2="177.55315839532614" /><path d="M 143.63769802327073 174.10635135553383 a86.0,86.0 0 0,1 -40.68552437913181,11.842963189579606" fill="none" id="id42" stroke="none" /><text fill="#e1ed5e" style="font-size:6.75px; font-family:Arial;" text-anchor="middle"><textPath startOffset="21.407464694133747" xlink:href="#id42">June</textPath></text><line stroke="#e1ed5e" stroke-width="0.3" x1="101.45913802915013" x2="101.54496967792366" y1="184.9874750549273" y2="189.98673829345242" /><path d="M 101.47630435890484 185.9873277026323 a86.0,86.0 0 0,1 -42.54439059252881,-10.42667462771756" fill="none" id="id43" stroke="none" /><text fill="#e1ed5e" style="font-size:6.75px; font-family:Arial;" text-anchor="middle"><textPath startOffset="22.145653131862474" xlink:href="#id43">July</textPath></text><line stroke="#e1ed5e" stroke-width="0.3" x1="58.13341422392154" x2="55.67067388415222" y1="173.97424548756322" y2="178.32567169271397" /><path d="M 57.64086615596768 174.84453072859336 a86.0,86.0 0 0,1 -31.369924170532247,-30.572349798747897" fill="none" id="id44" stroke="none" /><text fill="#e1ed5e" style="font-size:6.75px; font-family:Arial;" text-anchor="middle"><textPath startOffset="22.145653131862474" xlink:href="#id44">August</textPath></text><line stroke="#e1ed5e" stroke-width="0.3" x1="26.387840678322732" x2="22.057713659400548" y1="142.50000000000003" y2="145.00000000000006" /><path d="M 25.521815274538298 143.00000000000003 a86.0,86.0 0 0,1 -11.493303480769221,-40.785679425670985" fill="none" id="id45" stroke="none" /><text fill="#e1ed5e" style="font-size:6.75px; font-family:Arial;" text-anchor="middle"><textPath startOffset="21.40746469413373" xlink:href="#id45">September</textPath></text><line stroke="#e1ed5e" stroke-width="0.3" x1="15.003131293944662" x2="10.003315487706104" y1="100.72959589197737" y2="100.7725132973878" /><path d="M 14.003168132696942 100.73817937305945 a86.0,86.0 0 0,1 10.791469493833604,-42.45332614584628" fill="none" id="id46" stroke="none" /><text fill="#e1ed5e" style="font-size:6.75px; font-family:Arial;" text-anchor="middle"><textPath startOffset="22.145653131862435" xlink:href="#id46">October</textPath></text><line stroke="#e1ed5e" stroke-width="0.3" x1="26.387840678322718" x2="22.05771365940052" y1="57.49999999999999" y2="54.99999999999999" /><path d="M 25.521815274538284 56.99999999999999 a86.0,86.0 0 0,1 29.574782752854787,-30.34633250058573" fill="none" id="id47" stroke="none" /><text fill="#e1ed5e" style="font-size:6.75px; font-family:Arial;" text-anchor="middle"><textPath startOffset="21.40746469413373" xlink:href="#id47">November</textPath></text><path d="M 82.78059297857968 87.97951657250589 l -8.981454028705013 -6.269752446907655 a31.953369902237668,31.953369902237668 0 0,0 0.3178369773173459,-0.4470775124120007 l 8.872501952857695 6.423007186029176" fill="red" stroke="none" /><path d="M 83.42222388311158 87.10902102172516 l -24.61551248637663 -19.141171395002686 a52.18185205115041,52.18185205115041 0 0,0 0.5559443816732299,-0.7024175649740436 l 24.283301674061835 19.560908903891413" fill="red" stroke="none" /><path d="M 83.64595745247003 86.82634096563983 l -28.847693300060534 -23.23765970146576 a58.042924251947,58.042924251947 0 0,0 0.6317092837368454,-0.7705826116661921 l 28.444537197085058 23.729444594830444" fill="red" stroke="none" /><path d="M 83.8745106332314 86.54754324733833 l -14.451524992073775 -12.055976134685173 a39.82001953125,39.82001953125 0 0,0 0.44239176370921457,-0.5211363852711872 l 14.242438664857447 12.302279302405918" fill="red" stroke="none" /><path d="M 84.10781606972428 86.27271002978789 l -13.623202201167997 -11.767397593605663 a39.0017578125,39.0017578125 0 0,0 0.4419993735972156,-0.502914150447724 l 13.419191763612188 11.999524021864687" fill="red" stroke="none" /><path d="M 84.34580500576568 86.00192230759919 l -9.475068415455496 -8.472664603271513 a33.7107421875,33.7107421875 0 0,0 0.3894430267149814,-0.42806610673664275 l 9.32822768789865 8.634068285565814" fill="red" stroke="none" /><path d="M 84.58840730492382 85.73525988315684 l -22.566545006833223 -20.88725715936976 a51.7494140625,51.7494140625 0 0,0 0.6090269425291915,-0.6467655077890826 l 22.20466223056776 21.271564127103357" fill="red" stroke="none" /><path d="M 88.72937992617638 82.28071324371311 l -13.973807857154757 -21.969146939240073 a47.03671875,47.03671875 0 0,0 0.6850245646561985,-0.4275059925432158 l 13.59461916370886 22.205788728624825" fill="red" stroke="none" /><line stroke="#e1ed5e" stroke-width="0.3" x1="56.869717070023135" x2="54.33264160355391" y1="26.7553504044142" y2="22.446841604673864" /><path d="M 56.362301976729285 25.89364864446614 a86.0,86.0 0 0,1 42.16139366436587,-11.88097634709845" fill="none" id="id48" stroke="none" /><text fill="#e1ed5e" style="font-size:6.75px; font-family:Arial;" text-anchor="middle"><textPath startOffset="22.145653131862474" xlink:href="#id48">December</textPath></text><path d="M 89.65649057296885 81.72400993836675 l -9.13642995776336 -16.143196299557893 a39.54931640625,39.54931640625 0 0,0 0.5937215167392149,-0.3293273169796659 l 8.857964252868042 16.297656531970706" fill="red" stroke="none" /><path d="M 89.97174638481275 81.54914285379989 l -13.864213450729203 -25.508591190436697 a50.0328200340271,50.0328200340271 0 0,0 0.7581429958364568,-0.403668442708846 l 13.424281639106185 25.74283010086812" fill="red" stroke="none" /><path d="M 90.28995756902619 81.37971332152246 l -14.260676574161648 -27.346727671642938 a51.84169921875,51.84169921875 0 0,0 0.7926170666310891,-0.4047159218420343 l 13.789132285816976 27.587501545157807" fill="red" stroke="none" /><path d="M 90.61103034731259 81.2157712731953 l -14.839877934412495 -29.689696708954457 a54.19186749458313,54.19186749458313 0 0,0 0.8356895648318879,-0.40877764309740916 l 14.328028120318555 29.94006810214908" fill="red" stroke="none" /><path d="M 92.592206182469 80.34994680014964 l -10.599511231881266 -28.116462840254638 a51.048046875,51.048046875 0 0,0 0.8226291833032685,-0.3020808307104389 l 10.11529289692387 28.2942745199738" fill="red" stroke="none" /><path d="M 92.93061703081487 80.22567764915836 l -8.29685981676434 -23.20779355589989 a45.6462890625,45.6462890625 0 0,0 0.7401094263498335,-0.25744847733285325 l 7.897244618369502 23.34680046580133" fill="red" stroke="none" /><path d="M 93.61358852112211 79.99465700312896 l -18.89729177832032 -59.19549734425704 a83.138671875,83.138671875 0 0,0 1.3633133538461601,-0.4223579619451887 l 17.878337791602544 59.511171894008875" fill="red" stroke="none" /><path d="M 93.95794788825049 79.88797359093562 l -12.867092812589988 -42.8303671779753 a65.72138671875,65.72138671875 0 0,0 1.0832761897662193,-0.3153259110046018 l 12.129956610442143 43.04493678328242" fill="red" stroke="none" /><path d="M 94.30408787586887 79.78721728523814 l -8.183423747091522 -29.04008391597427 a51.17109375,51.17109375 0 0,0 0.8475361019412034,-0.23099973340970953 l 7.6837062442156405 29.17628414352812" fill="red" stroke="none" /><path d="M 95.35216902796891 79.52079915486377 l -1.8232750990868065 -8.033686503409399 a29.23798828125,29.23798828125 0 0,0 0.4904151588145732,-0.10688370130738653 l 1.685097523653115 8.0638016628505" fill="red" stroke="none" /><path d="M 97.48249496171623 79.15144685158666 l -3.6936519233569802 -30.5887365724377 a51.8109375,51.8109375 0 0,0 0.883904705269278,-0.09904336587420784 l 3.168011316486903 30.647635698818878" fill="red" stroke="none" /><path d="M 98.1996594967304 79.07731436759882 l -2.3102025598596136 -26.848055586889803 a47.947265625,47.947265625 0 0,0 0.8206539943511155,-0.06352380934137165 l 1.848979570733281 26.883757163226228" fill="red" stroke="none" /><path d="M 99.27912038922189 79.0123766808444 l -2.1626388323343404 -62.96286995746683 a84.0,84.0 0 0,0 1.4415467437170244,-0.03712913059981959 l 1.081478774546572 62.990716805416696" fill="red" stroke="none" /></svg>