<?xml version="1.0" encoding="utf-8" ?>
<svg baseProfile="full" height="200mm" version="1.1" viewBox="0,0,200,200" width="200mm" xmlns="http://www.w3.org/2000/svg" xmlns:ev="http://www.w3.org/2001/xml-events" xmlns:xlink="http://www.w3.org/1999/xlink"><defs /><rect fill="#1a1a1a" height="200" width="200" x="0" y="0" /><rect fill="#1a1a1a" height="200" width="180" x="10" y="0" /><text alignment-baseline="middle" fill="#e1ed5e" style="dominant-baseline: central; font-size:9.0px; font-family:Arial;" text-anchor="middle" x="100.0" y="100.0">2025</text><line stroke="#e1ed5e" stroke-width="0.3" x1="100.0" x2="100.0" y1="15.0" y2="10.0" /><path d="M 100.0 14.0 a86.0,86.0 0 0,1 42.46469731375804,11.215312516191453" fill="none" id="id49" stroke="none" /><text fill="#e1ed5e" style="font-size:6.75px; font-family:Arial;" text-anchor="middle"><textPath startOffset="22.20632615414155" xlink:href="#id49">January</textPath></text><path d="M 100.0 79.0 l 0.0 -42.23534282880636 a63.23534282880636,63.23534282880636 0 0,0 1.0884924777485507,0.009368998405321377 l -0.7270119984760223 42.2290852070096" fill="red" stroke="none" /><path d="M 100.36148047927253 79.00311137660856 l 0.18284007822642895 -10.62041514977118 a31.621988912049147,31.621988912049147 0 0,0 0.5441592635703706,0.014054028351816827 l -0.3656259769916673 10.615694329277003" fill="red" stroke="none" /><path d="M 100.72285384407766 79.0124445844662 l 1.0208394349238874 -29.639358476629322 a50.65693315327858,50.65693315327858 0 0,0 0.8712007529213032,0.03751573704025587 l -1.5308810202345222 29.617395013064872" fill="red" stroke="none" /><path d="M 101.08401301168833 79.027996857942 l 1.8662240750198278 -36.10515440598146 a57.15335346794189,57.15335346794189 0 0,0 0.9820523317770292,0.05924007852137879 l -2.487438455636469 36.06768105807978" fill="red" stroke="none" /><path d="M 101.44485096284872 79.0497635885617 l 2.7045803530132653 -39.21622315816106 a60.3093743740166,60.3093743740166 0 0,0 1.0350519141816665,0.08033994931861195 l -3.379222456557273 39.16385794665398" fill="red" stroke="none" /><path d="M 101.80526077348638 79.07773832637324 l 2.831938728247721 -32.82105498899756 a53.943004227777266,53.943004227777266 0 0,0 0.9244157995638935,0.08778441889046322 l -3.3964796549018588 32.76744502559192" fill="red" stroke="none" /><path d="M 102.16513564639614 79.11191278185805 l 4.3163635058336824 -41.64199944014185 a62.86510613013261,62.86510613013261 0 0,0 1.0753923480637388,0.12083286042439477 l -5.032522557407146 41.56153062624686" fill="red" stroke="none" /><path d="M 102.52436894288641 79.15227682838746 l 2.045756525335415 -16.895060382079762 a38.018466002406726,38.018466002406726 0 0,0 0.6490028622184761,0.08425919802282236 l -2.336274116061737 16.857342860892803" fill="red" stroke="none" /><path d="M 102.88285421437855 79.19881850522331 l 6.904284359022457 -49.817736646989175 a71.29389651974691,71.29389651974691 0 0,0 1.2141385191224283,0.17893245677370292 l -7.7607918585735405 49.691509706054504" fill="red" stroke="none" /><path d="M 103.2404852339499 79.25152402106235 l 1.0162576954964666 -6.506987954306148 a27.58586911053819,27.58586911053819 0 0,0 0.46852732547641607,0.07731102320064498 l -1.128114227111758 6.488530668165878" fill="red" stroke="none" /><path d="M 103.59715602781102 79.31037775812273 l 1.4594401721115777 -8.394205203265415 a29.52013184231918,29.52013184231918 0 0,0 0.49988109089591964,0.09135007420170706 l -1.6037163841103983 8.36783964771297" fill="red" stroke="none" /><path d="M 104.307194497241 79.44645832069477 l 2.9089892071483177 -13.881432786950027 a35.182961412410194,35.182961412410194 0 0,0 0.5916723242199204,0.12931665324056726 l -3.147504255521766 13.829302635613589" fill="red" stroke="none" /><path d="M 104.66035177308747 79.52364482259891 l 1.420393692991997 -6.24083484800464 a27.400432629374404,27.400432629374404 0 0,0 0.4589915793330045,0.10862847740495934 l -1.5276089592875248 6.2154604584588125" fill="red" stroke="none" /><path d="M 105.01212808612495 79.60689891045804 l 3.1815562962468924 -12.944960315568059 a34.33020247549977,34.33020247549977 0 0,0 0.5726459417529008,0.1459802010465831 l -3.4039111266848185 12.888277118352608" fill="red" stroke="none" /><path d="M 105.36241919743992 79.69619591428918 l 3.4401466287450138 -13.025476115239837 a34.47210588052028,34.47210588052028 0 0,0 0.5724045754019597,0.1564597931654597 l -3.663849093370684 12.964329781248082" fill="red" stroke="none" /><path d="M 105.71112130821622 79.79150937346287 l 1.7746396703352543 -6.279465486376111 a27.52541437413107,27.52541437413107 0 0,0 0.45483752614474626,0.1327795463478389 l -1.8824674142034277 6.2479876111095685" fill="red" stroke="none" /><path d="M 106.74666289553966 80.11325718540242 l 4.8264316563578165 -14.226589730113185 a36.022992307874446,36.022992307874446 0 0,0 0.585490263912753,0.20426605667646772 l -5.070603924333843 14.14140282026451" fill="red" stroke="none" /><path d="M 107.08798089147638 80.2323363322302 l 17.818818218011742 -49.69488643999669 a73.79291639008697,73.79291639008697 0 0,0 1.1919934034430488,0.4390212301342175 l -18.671593947227368 49.380801942056145" fill="red" stroke="none" /><path d="M 107.4271985657038 80.35727306442388 l 5.665323730651051 -14.983093027387346 a37.01839472732587,37.01839472732587 0 0,0 0.5940867727522086,0.23049643813607473 l -5.9223936684029255 14.883353885360723" fill="red" stroke="none" /><path d="M 108.09893153111575 80.62456947434976 l 4.414793826454492 -10.56170566955693 a32.44727177891971,32.44727177891971 0 0,0 0.5134645441679501,0.21983872119163392 l -4.595942128412758 10.484147420402506" fill="red" stroke="none" /><path d="M 108.76106565485865 80.91482961587045 l 1.839274282463351 -4.006688734776641 a25.408682853587578,25.408682853587578 0 0,0 0.3959178405653411,0.18588873482407559 l -1.90797033432829 3.974435017312562" fill="red" stroke="none" /><line stroke="#e1ed5e" stroke-width="0.3" x1="143.23703022742887" x2="145.7803849466894" y1="26.81831364943548" y2="22.513508569990506" /><path d="M 143.74570117128098 25.957352633546492 a86.0,86.0 0 0,1 28.547481713284135,27.462654790039103" fill="none" id="id50" stroke="none" /><text fill="#e1ed5e" style="font-size:6.75px; font-family:Arial;" text-anchor="middle"><textPath startOffset="19.985693538727396" xlink:href="#id50">February</textPath></text><path d="M 111.90073688211348 82.69761687909136 l 3.843631104674608 -5.588223536684967 a27.782458430744857,27.782458430744857 0 0,0 0.3916914670073914,0.27440490399130324 l -3.9392537112656503 5.5212337899297275" fill="red" stroke="none" /><path d="M 112.19680574252982 82.90503203632743 l 7.34430469941079 -10.293732326496503 a33.64514676574956,33.64514676574956 0 0,0 0.4685562263622684,0.34042602521389254 l -7.520406242126847 10.165787066465935" fill="red" stroke="none" /><path d="M 112.48926042617603 83.11751280151076 l 3.4072174932238086 -4.605741553059422 a26.729047590979548,26.729047590979548 0 0,0 0.3675292999176463,0.2768154490165118 l -3.485992946899838 4.546409514537063" fill="red" stroke="none" /><path d="M 113.34407831869373 83.78471172551755 l 7.9836232265062295 -9.701438271034139 a33.56408151635031,33.56408151635031 0 0,0 0.4429539152926804,0.3709611653849718 l -8.149434678758027 9.562575948255347" fill="red" stroke="none" /><path d="M 115.19652480421416 85.50635884689758 l 10.18328223229403 -9.71227569047262 a35.0722256985276,35.0722256985276 0 0,0 0.41290477542396814,0.4404580254693884 l -10.34895432968846 9.535548248125176" fill="red" stroke="none" /><path d="M 115.4437574822437 85.77008943001954 l 12.777029069043804 -11.772781410973023 a38.373855472569765,38.373855472569765 0 0,0 0.4434123840238189,0.48962702931410623 l -12.977785093683659 11.551101594389369" fill="red" stroke="none" /><path d="M 115.68641384162765 86.03803664274999 l 9.764199136742373 -8.690793953064775 a34.07170548614785,34.07170548614785 0 0,0 0.38615919654678355,0.4414467160197862 l -9.912350196867004 8.52143168084204" fill="red" stroke="none" /><path d="M 115.9244219780498 86.31012108654704 l 14.361295791029983 -12.346093358395127 a39.938659878979394,39.938659878979394 0 0,0 0.44367930768160896,0.5251763566374871 l -14.57168571219871 12.097058052128533" fill="red" stroke="none" /><path d="M 116.15771136456269 86.58626213691792 l 15.278489340946168 -12.68382918467192 a40.857284792421666,40.857284792421666 0 0,0 0.4445691040348552,0.544989155104167 l -15.494556937057432 12.41895585995965" fill="red" stroke="none" /><path d="M 116.60985879189232 87.15038557335679 l 5.654240444382945 -4.374197908372177 a28.148709138334233,28.148709138334233 0 0,0 0.2931809495327171,0.38579176330044124 l -5.728697334139776 4.276221369190702" fill="red" stroke="none" /><path d="M 116.82858285166822 87.43820079747576 l 11.660878455242496 -8.704334463033927 a35.551340996358334,35.551340996358334 0 0,0 0.3618405117237543,0.4935500513466549 l -11.808981579479877 8.502321968015778" fill="red" stroke="none" /><path d="M 117.04232023915458 87.72973835380427 l 13.433768999303455 -9.672148991620139 a37.5534472434821,37.5534472434821 0 0,0 0.3731871677416845,0.5278467832125707 l -13.598268786849022 9.439475708075776" fill="red" stroke="none" /><path d="M 117.2510076193507 88.02491185347247 l 25.04645793841569 -17.386436096311407 a51.48955912098347,51.48955912098347 0 0,0 0.49914354812074063,0.7324315657883551 l -25.342025952205162 16.952726507252645" fill="red" stroke="none" /><path d="M 117.45458315368197 88.32363383020206 l 52.36374946104589 -35.02909850939381 a84.0,84.0 0 0,0 0.7936134585683003,1.208727744089304 l -52.95895955497212 34.12255270132683" fill="red" stroke="none" /><path d="M 117.65298651832404 88.62581576622439 l 21.32620773162917 -13.740916614621042 a46.36966546138456,46.36966546138456 0 0,0 0.4265399875450734,0.6746838264967323 l -21.5595753154202 13.371785140410104" fill="red" stroke="none" /><line stroke="#e1ed5e" stroke-width="0.3" x1="172.23445277983987" x2="176.4835382374775" y1="55.19839476539836" y2="52.563006222186495" /><path d="M 173.08426987136738 54.67131705675599 a86.0,86.0 0 0,1 12.851231095245387,41.99856678651699" fill="none" id="id51" stroke="none" /><text fill="#e1ed5e" style="font-size:6.75px; font-family:Arial;" text-anchor="middle"><textPath startOffset="22.20632615414155" xlink:href="#id51">March</textPath></text><path d="M 118.21658344932153 89.55222093294921 l 10.528617187626772 -6.038490508601662 a33.13734515889131,33.13734515889131 0 0,0 0.279525118226323,0.4972439950737656 l -10.630999947145527 5.856363003593102" fill="red" stroke="none" /><path d="M 118.3937258080291 89.86733742301442 l 33.11194486319532 -18.240576600313023 a58.80369727070586,58.80369727070586 0 0,0 0.4807675503518791,0.8907892548653681 l -33.42102051276566 17.667906362115197" fill="red" stroke="none" /><path d="M 118.56541770881063 90.18545643968196 l 5.464805618473839 -2.88895050100213 a27.181434740005244,27.181434740005244 0 0,0 0.21510943080775127,0.4155229523639036 l -5.513724482441707 2.7944548263778812" fill="red" stroke="none" /><path d="M 118.73160827565052 90.50648371742162 l 11.1220631510355 -5.636861825552657 a33.468941413608235,33.468941413608235 0 0,0 0.2560214435783414,0.5161236076136871 l -11.217444607567248 5.44457862944002" fill="red" stroke="none" /><path d="M 118.89224826269711 90.83032412892265 l 32.368203567674705 -15.710461302304175 a56.979427406917225,56.979427406917225 0 0,0 0.42067587328718975,0.886050674866099 l -32.63383763480365 15.150968211797535" fill="red" stroke="none" /><path d="M 119.04729006885535 91.15688171328212 l 14.87343602285909 -6.905315853573171 a37.3982464356312,37.3982464356312 0 0,0 0.26605768414843184,0.5862228397385983 l -14.99009602397087 6.64827100499251" fill="red" stroke="none" /><path d="M 119.196687751892 91.48605970444005 l 38.110558310209925 -16.90244808256589 a62.69061532167337,62.69061532167337 0 0,0 0.4290106584477735,0.9902157489805373 l -38.39585967850038 16.243933188998753" fill="red" stroke="none" /><path d="M 119.34039704204932 91.81776055985345 l 12.551732417412127 -5.310195018469649 a34.62879883968115,34.62879883968115 0 0,0 0.22752491662173382,0.5509696327140297 l -12.641279020920058 5.093350815302316" fill="red" stroke="none" /><path d="M 119.47837535516314 92.15188598940014 l 33.8422562055322 -13.635525562790072 a57.485968021341904,57.485968021341904 0 0,0 0.3619055125578906,0.9210100545385523 l -34.07195526797179 13.050966503355735" fill="red" stroke="none" /><path d="M 119.61058180528143 92.48833698450437 l 13.401463670245999 -5.133314248646311 a35.350963162111405,35.350963162111405 0 0,0 0.2127714064637599,0.5701215860350234 l -13.487839665211384 4.901869525581954" fill="red" stroke="none" /><path d="M 119.7369772167798 92.82701384747503 l 11.474857665128392 -4.170293871757841 a33.20916497602423,33.20916497602423 0 0,0 0.19063154889230935,0.5389410594390095 l -11.544942294830511 3.9721551858922166" fill="red" stroke="none" /><path d="M 119.85752413597 93.16781622104841 l 16.076721509060917 -5.531360060842882 a38.00167399412745,38.00167399412745 0 0,0 0.20749403720807624,0.6203807609125956 l -16.16955284004076 5.253806197007973" fill="red" stroke="none" /><path d="M 120.18372546131832 94.20196356495316 l 21.87851420409919 -6.284886441958747 a43.76332975131905,43.76332975131905 0 0,0 0.20175568019020756,0.7258225274825484 l -21.98345665485576 5.907352611057247" fill="red" stroke="none" /><path d="M 120.28053869075195 94.5502522615342 l 12.670076360587288 -3.4046787930631335 a34.11955306658907,34.11955306658907 0 0,0 0.14753240825676905,0.5685025512702475 l -12.72680510071436 3.1860798162440354" fill="red" stroke="none" /><path d="M 120.37134235888165 94.90015583598534 l 40.103254464045925 -10.039610774460852 a62.340836990930526,62.340836990930526 0 0,0 0.25164086576751926,1.0432138471107892 l -40.27012813007426 9.347811695690657" fill="red" stroke="none" /><path d="M 120.45610955862082 95.25157060432595 l 13.010836243411697 -3.0201753223638295 a34.356770520252674,34.356770520252674 0 0,0 0.12876527068699098,0.5772294601574947 l -13.060895901100725 2.795767692656371" fill="red" stroke="none" /><path d="M 120.53481517161879 95.60439243477599 l 7.055851250195337 -1.5103497584589665 a28.21569076788634,28.21569076788634 0 0,0 0.09757349189564894,0.4758029990035157 l -7.080804038005982 1.3886711032920391" fill="red" stroke="none" /><path d="M 120.6074358757038 95.95851677861258 l 18.582544472299322 -3.644366147659724 a39.93653515517531,39.93653515517531 0 0,0 0.12649284406642575,0.6757298309914685 l -18.642523040275606 3.3239582392056928" fill="red" stroke="none" /><path d="M 120.73433829027371 96.67025291283417 l 14.468009183682298 -2.3234313418650534 a35.653382644955265,35.653382644955265 0 0,0 0.09209456606868426,0.6067881239777022 l -14.505859643190282 2.074044105495269" fill="red" stroke="none" /><path d="M 120.78858239683441 97.02765380044208 l 10.854314825579975 -1.551947160453354 a31.96470201700185,31.96470201700185 0 0,0 0.07319003628102393,0.5453507825743044 l -10.879420860918835 1.364878035814385" fill="red" stroke="none" /><path d="M 120.83666639777658 97.38593545837742 l 17.70024806437297 -2.2205850955092474 a38.838996039764595,38.838996039764595 0 0,0 0.07751088636769249,0.6640659392977964 l -17.735849303744253 1.9155754178865985" fill="red" stroke="none" /><path d="M 120.87857604477298 97.74499172005257 l 34.99468936202798 -3.779631048417092 a56.19820868179221,56.19820868179221 0 0,0 0.0955981688392166,0.962660513972339 l -35.05456465654942 3.176695003740318" fill="red" stroke="none" /><path d="M 120.91429891909075 98.10471618934814 l 24.416417776616672 -2.212650852182895 a45.51646958344428,45.51646958344428 0 0,0 0.06399510757930757,0.7809024061309943 l -24.450887368015476 1.7920345288441322" fill="red" stroke="none" /><path d="M 120.96714384426684 98.82574320788733 l 12.485643517975626 -0.6992536424501765 a33.50520890327093,33.50520890327093 0 0,0 0.027293010938947357,0.576112324059396 l -12.49583013714807 0.48423021176778075" fill="red" stroke="none" /><path d="M 120.98425023603335 99.18683210126433 l 13.135796930953486 -0.5090297851204536 a34.14565602521939,34.14565602521939 0 0,0 0.017704206467382515,0.5875164217937721 l -13.142612831876514 0.2828432159016825" fill="red" stroke="none" /><line stroke="#e1ed5e" stroke-width="0.3" x1="184.98032266829074" x2="189.97916517819016" y1="98.17113171792111" y2="98.06355123074" /><path d="M 185.9800911702706 98.14961562048488 a86.0,86.0 0 0,1 -9.607161424134198,41.387399972396054" fill="none" id="id52" stroke="none" /><text fill="#e1ed5e" style="font-size:6.75px; font-family:Arial;" text-anchor="middle"><textPath startOffset="21.466115282336823" xlink:href="#id52">April</textPath></text><path d="M 120.99513854157772 99.54816195383933 l 15.629701867982739 -0.33636805682980564 a36.63332095083059,36.63332095083059 0 0,0 0.008141307053903243,0.6305532033599653 l -15.633176182154358 0.06727859540937761" fill="red" stroke="none" /><path d="M 120.99824983174949 100.27111621757518 l 10.76838019298386 0.1390345638672729 a31.76927771907647,31.76927771907647 0 0,0 -0.011766640506741243,0.5467495482222108 l -10.764391489792112 -0.32437392787959857" fill="red" stroke="none" /><path d="M 120.9764740272857 100.99374915477107 l 3.8034589463161654 0.18018681825132324 a24.807724680932697,24.807724680932697 0 0,0 -0.02387879247519775,0.4263718805101141 l -3.7997938029534386 -0.24563041509686068" fill="red" stroke="none" /><path d="M 120.81339534386255 102.79330883721812 l 8.512445132720861 1.1424319685819604 a29.58876434304849,29.58876434304849 0 0,0 -0.07209224794562973,0.5042130142221195 l -8.491518833758631 -1.2887904547844893" fill="red" stroke="none" /><path d="M 120.70491114924044 103.5080841355445 l 35.3658411585974 5.992121647583772 a56.869879323669096,56.869879323669096 0 0,0 -0.1718379127060865,0.9637582713980226 l -35.257456803552124 -6.5999986697150135" fill="red" stroke="none" /><path d="M 120.64145759157962 103.86396538481128 l 7.442533257613131 1.3932005894029087 a28.571810164880663,28.571810164880663 0 0,0 -0.09465441657987375,0.48264083089580817 l -7.417448908057593 -1.5211051473666617" fill="red" stroke="none" /><path d="M 120.5718875245553 104.21870165774334 l 23.051310190836972 4.727159838841381 a44.5310208375272,44.5310208375272 0 0,0 -0.16045154753587387,0.7495762130169752 l -22.966524604576655 -5.123249871274525" fill="red" stroke="none" /><path d="M 120.49622156327973 104.57218783832717 l 6.133250370334373 1.3681727954628518 a27.284000071885053,27.284000071885053 0 0,0 -0.10619898690603048,0.4575024561054636 l -6.108790817497789 -1.4735439089168803" fill="red" stroke="none" /><path d="M 119.54520255179757 107.68017299344265 l 4.84506761017736 1.903840971331637 a26.20569789666196,26.20569789666196 0 0,0 -0.16858672749521808,0.4184184319462384 l -4.81157826842475 -1.986958771120689" fill="red" stroke="none" /><path d="M 119.26925614724726 108.34839909993367 l 15.907353661189362 6.891855916626614 a38.336135050168934,38.336135050168934 0 0,0 -0.267547731835628,0.6032495047509193 l -15.786364844622462 -7.164653757870221" fill="red" stroke="none" /><path d="M 119.12269723197855 108.67885076344098 l 6.425310414041619 2.916132045378868 a28.056092404644176,28.056092404644176 0 0,0 -0.20337378172733606,0.4380490328596973 l -6.374162015474451 -3.026301145517396" fill="red" stroke="none" /><path d="M 118.97047184881838 109.00673069616215 l 5.626940307181602 2.6715379772338865 a27.22893027608978,27.22893027608978 0 0,0 -0.2046665699974181,0.42167375443027993 l -5.5801204805694695 -2.768000687629442" fill="red" stroke="none" /><path d="M 118.81262510543309 109.33194174019688 l 5.760279061272115 2.8573677679646634 a27.43003619158814,27.43003619158814 0 0,0 -0.21345966677333889,0.42117617346763153 l -5.710240724712507 -2.9560981531349895" fill="red" stroke="none" /><line stroke="#e1ed5e" stroke-width="0.3" x1="174.80103733775053" x2="179.2010983576182" y1="140.37084112569926" y2="142.7455964860345" /><path d="M 175.68104954172406 140.8457921977663 a86.0,86.0 0 0,1 -30.038265399797805,32.042727171017184" fill="none" id="id53" stroke="none" /><text fill="#e1ed5e" style="font-size:6.75px; font-family:Arial;" text-anchor="middle"><textPath startOffset="22.206326154141568" xlink:href="#id53">May</textPath></text><path d="M 117.35343817320211 111.8261652097733 l 4.315215064299049 2.9407686106208883 a26.221992059776284,26.221992059776284 0 0,0 -0.2573989359811405,0.3708023650006267 l -4.263955221155772 -3.0146122378085347" fill="red" stroke="none" /><path d="M 116.0416608686014 113.55231037782055 l 9.871290363041343 8.339460104868106 a33.92242114590604,33.92242114590604 0 0,0 -0.38067012554892216,0.4428053565704804 l -9.726277727921643 -8.508142560600113" fill="red" stroke="none" /><path d="M 115.80600337817218 113.82643327865902 l 10.115504045070596 8.848621527711439 a34.439550774728964,34.439550774728964 0 0,0 -0.39415434527584864,0.4428365853189416 l -9.96169085014641 -9.021432282771247" fill="red" stroke="none" /><path d="M 115.56566222782051 114.09645910891815 l 9.120581874473366 8.259713435979899 a33.30479092766224,33.30479092766224 0 0,0 -0.38848229374677884,0.4216208036772807 l -8.977053172730864 -8.415485494458515" fill="red" stroke="none" /><path d="M 115.32070863581623 114.36230785411682 l 8.329102516826113 7.808067977710919 a32.41664899523296,32.41664899523296 0 0,0 -0.3851305500265856,0.4038078419712268 l -8.193465415420564 -7.950282936264653" fill="red" stroke="none" /><path d="M 115.07121518719521 114.62390073753431 l 4.050848337655859 3.930618948564676 a26.644389920399274,26.644389920399274 0 0,0 -0.3222186957124375,0.326405837576594 l -3.982589016887886 -3.9997652801219346" fill="red" stroke="none" /><path d="M 114.55890576462653 115.13401014063108 l 9.681642777366548 10.064086019887196 a34.964957367791094,34.964957367791094 0 0,0 -0.4373353025034205,0.4135278256102288 l -9.50697164047232 -10.229248482243346" fill="red" stroke="none" /><path d="M 114.29624159901734 115.38237550388516 l 9.08383959828594 9.773969665390947 a34.34341129049727,34.34341129049727 0 0,0 -0.43648914029897684,0.3987224806054881 l -8.9142509085201 -9.928884912583017" fill="red" stroke="none" /><path d="M 113.75828350139079 115.86535959552629 l 8.239800011208274 9.50172237400297 a33.57684508520863,33.57684508520863 0 0,0 -0.43991187002691384,0.37490243932114026 l -8.075022664604314 -9.642149203547056" fill="red" stroke="none" /><path d="M 113.20401910651253 116.32954008644616 l 2.500929355118754 3.09292389145657 a24.97754017423301,24.97754017423301 0 0,0 -0.33665264746038104,0.2674572236552143 l -2.4473192149410217 -3.1355150291169105" fill="red" stroke="none" /><path d="M 112.92097659922987 116.55440617244103 l 18.20518485055146 23.32455462216082 a50.58823421167462,50.58823421167462 0 0,0 -0.6910624319796208,0.5298772044281445 l -17.800993690078347 -23.63447116841634" fill="red" stroke="none" /><path d="M 112.63410532772338 116.77436683061366 l 8.415151473637383 11.172840030407517 a34.98739177507151,34.98739177507151 0 0,0 -0.48418389979474696,0.35818767386592415 l -8.221582603424071 -11.316037653013211" fill="red" stroke="none" /><path d="M 112.34349029814194 116.9893568818739 l 6.873540651998366 9.46061708303419 a32.69396582372603,32.69396582372603 0 0,0 -0.4581400326745287,0.3268707489409651 l -6.709673291474952 -9.577532093819373" fill="red" stroke="none" /><path d="M 112.04921762599082 117.19931262002967 l 7.634395391398249 10.897500325526305 a34.30561935187719,34.30561935187719 0 0,0 -0.4865567877478384,0.33465819527462437 l -7.445681719027528 -11.027299310166024" fill="red" stroke="none" /><path d="M 111.7513745106137 117.40417183066458 l 3.5034716661718357 5.188756670706685 a27.260791443856917,27.260791443856917 0 0,0 -0.3911602949717711,0.2592397141883372 l -3.413636672460101 -5.24829440598634" fill="red" stroke="none" /><path d="M 111.45004920935366 117.60387380957326 l 3.5040584028239445 5.387313261002966 a27.426629712577153,27.426629712577153 0 0,0 -0.39797110390202967,0.25400398786135536 l -3.4108054968749846 -5.44683167768813" fill="red" stroke="none" /><path d="M 111.1453310114006 117.79835938074945 l 4.797558352877056 7.661384630683275 a30.03954537620838,30.03954537620838 0 0,0 -0.4406097524023534,0.27065849697194727 l -4.664969400542394 -7.7428315944836" fill="red" stroke="none" /><line stroke="#e1ed5e" stroke-width="0.3" x1="143.8653032363475" x2="146.44561519142675" y1="172.8068346515853" y2="177.08958963109032" /><path d="M 144.38136562736335 173.6633856474863 a86.0,86.0 0 0,1 -40.68145358897372,12.25698825130547" fill="none" id="id54" stroke="none" /><text fill="#e1ed5e" style="font-size:6.75px; font-family:Arial;" text-anchor="middle"><textPath startOffset="21.466115282336833" xlink:href="#id54">June</textPath></text><path d="M 110.5260780823613 118.17145234162733 l 1.9624918711155035 3.3879026193587367 a24.91525969795775,24.91525969795775 0 0,0 -0.37295917183483673,0.2117759514042924 l -1.9038839323594676 -3.4211817365576573" fill="red" stroke="none" /><path d="M 110.21172684928248 118.3499491758327 l 6.055985803365358 10.882295750901996 a33.45388794154911,33.45388794154911 0 0,0 -0.5055952803309608,0.2756908592031506 l -5.867767711165748 -10.984927261864916" fill="red" stroke="none" /><path d="M 109.89434966115114 118.52300852407294 l 3.3076859458353765 6.192250836881861 a28.020310302482432,28.020310302482432 0 0,0 -0.4273885859007469,0.22358950851125334 l -3.200606457408134 -6.248269764337831" fill="red" stroke="none" /><path d="M 109.57404056367764 118.69057910512821 l 3.0569769728436316 5.96787422754992 a27.70526889903386,27.70526889903386 0 0,0 -0.4263261610152924,0.2137687875189914 l -2.9537969041455785 -6.019610855978214" fill="red" stroke="none" /><path d="M 109.2508944713604 118.85261126421891 l 2.7563116738279136 5.617151149067713 a27.25696740240452,27.25696740240452 0 0,0 -0.42298573262734457,0.20305885646176583 l -2.6592132732003364 -5.663764282029039" fill="red" stroke="none" /><path d="M 108.59647513512805 119.15986991738527 l 1.9204779813577577 4.2803716318164176 a25.691462137046265,25.691462137046265 0 0,0 -0.40504342625662576,0.17755913494184844 l -1.8465138804433783 -4.312795320052721" fill="red" stroke="none" /><path d="M 108.2653958097858 119.30500536409082 l 4.1593073848243645 9.71465290021214 a31.567607056143537,31.567607056143537 0 0,0 -0.5013665670758668,0.20957126569974485 l -3.9914693582510368 -9.78480920893186" fill="red" stroke="none" /><path d="M 107.93186726928326 119.44442032107085 l 2.232698558463574 5.473305055057688 a26.911176793049364,26.911176793049364 0 0,0 -0.4304236716045962,0.17127446186367687 l -2.1381538108171116 -5.510926361327434" fill="red" stroke="none" /><path d="M 107.2578585660854 119.70592522655815 l 2.1747577851642337 5.904718852001023 a27.292477742933123,27.292477742933123 0 0,0 -0.4422426818032603,0.1585724914536871 l -2.072795542731239 -5.941278884494671" fill="red" stroke="none" /><path d="M 106.91757812671514 119.82793768551818 l 1.554638529581105 4.456079183116848 a25.71948542151212,25.71948542151212 0 0,0 -0.4192646815744448,0.14223734358912793 l -1.4777041150694332 -4.482179513604099" fill="red" stroke="none" /><path d="M 106.57524785965236 119.94407469862006 l 1.876160010990094 5.6907779302678 a26.99207224910226,26.99207224910226 0 0,0 -0.44251401557757536,0.14167901365590826 l -1.7779246503215784 -5.722229790583415" fill="red" stroke="none" /><path d="M 105.88484417918355 120.15858648285463 l 7.578057341976284 25.958703348616844 a48.04221205115758,48.04221205115758 0 0,0 -0.7958280089479532,0.22490894463981162 l -7.130098164923725 -26.085301086595177" fill="red" stroke="none" /><path d="M 105.53697534728816 120.25689768951611 l 1.720910779321363 6.295912732674855 a27.526871459423866,27.526871459423866 0 0,0 -0.4581383168841936,0.12099849344348101 l -1.612282019625672 -6.32460257542192" fill="red" stroke="none" /><path d="M 105.18746579009965 120.34920634021253 l 1.6399067732770374 6.4329679767363785 a27.638702524948354,27.638702524948354 0 0,0 -0.46202265406393506,0.11355392741358987 l -1.528930834469891 -6.460243162463999" fill="red" stroke="none" /><path d="M 104.83641907484287 120.43548508189849 l 1.5025236956232526 6.348664185620756 a27.52404126272152,27.52404126272152 0 0,0 -0.46198428344708486,0.10514611882086267 l -1.3930192627833056 -6.373587038019304" fill="red" stroke="none" /><path d="M 104.48393922423573 120.51570834832081 l 1.4700636717837694 6.726094185390747 a27.88486965670706,27.88486965670706 0 0,0 -0.46980499911770507,0.09845220539356073 l -1.3540672112366863 -6.750402371510849" fill="red" stroke="none" /><path d="M 104.13013068566511 120.58985236759428 l 2.525371437344051 12.58968033353644 a33.84046540422844,33.84046540422844 0 0,0 -0.5721171979269969,0.10964762263311628 l -2.30828662484535 -12.631285154518025" fill="red" stroke="none" /><path d="M 103.7750983002368 120.6578951692458 l 1.2524973024600823 6.853850129508012 a27.967353234222216,27.967353234222216 0 0,0 -0.4743143628367968,0.08246563177467499 l -1.1343339681512357 -6.874394339803692" fill="red" stroke="none" /><path d="M 103.41894727170886 120.7198165907248 l 1.0901126302308308 6.6064001479396905 a27.695735094915744,27.695735094915744 0 0,0 -0.47104396699537454,0.07356738013621746 l -0.9762327996269392 -6.624185835423014" fill="red" stroke="none" /><path d="M 102.70371172650421 120.8252237178851 l 0.8493991054436558 6.542460212467503 a27.597367995803236,27.597367995803236 0 0,0 -0.4716161223644415,0.05710614451569292 l -0.7366555600278339 -6.556111885708547" fill="red" stroke="none" /><path d="M 102.34483914955558 120.86867818915974 l 1.2722060500729537 11.32242211765627 a32.39367152608123,32.39367152608123 0 0,0 -0.5546527789068596,0.05749202837208399 l -1.0771206745604913 -11.342643514484113" fill="red" stroke="none" /><path d="M 100.90346689309514 120.98055641714683 l 0.29204397991308045 6.781925540031084 a27.78821064174716,27.78821064174716 0 0,0 -0.4780626175352904,0.016465443161591698 l -0.17526101070313774 -6.78594778161877" fill="red" stroke="none" /><line stroke="#e1ed5e" stroke-width="0.3" x1="102.19456741930631" x2="102.32365962044197" y1="184.97166512339345" y2="189.96999836594603" /><path d="M 102.22038585953345 185.97133177190398 a86.0,86.0 0 0,1 -42.740103519485714,-10.115201625700543" fill="none" id="id55" stroke="none" /><text fill="#e1ed5e" style="font-size:6.75px; font-family:Arial;" text-anchor="middle"><textPath startOffset="22.20632615414155" xlink:href="#id55">July</textPath></text><path d="M 100.54218724476979 120.99299961872073 l 0.9466501665019941 36.653438044039746 a57.66566059661272,57.66566059661272 0 0,0 -0.9925092499325647,0.017086946822604292 l -0.3155812266767614 -36.664302468141514" fill="red" stroke="none" /><path d="M 100.18074693466247 120.99922214144158 l 0.2847572373723572 33.083164011230075 a54.08438948625446,54.08438948625446 0 0,0 -0.9310083440696025,0.0 l 0.2847572373723344 -33.083164011230075" fill="red" stroke="none" /><path d="M 99.81925306533755 120.99922214144158 l -0.21909232892487326 25.45419922706468 a46.45514210802395,46.45514210802395 0 0,0 -0.799560046171636,-0.013765151298430754 l 0.6572120649891772 -25.446656598487092" fill="red" stroke="none" /><path d="M 99.45781275523022 120.99299961872073 l -0.6612717371872369 25.603843433345567 a46.61238135882088,46.61238135882088 0 0,0 -0.8019097497582016,-0.027619393194647464 l 1.1019018386200814 -25.588667241724824" fill="red" stroke="none" /><path d="M 99.09653310690486 120.98055641714683 l -2.1339360672705245 49.55484964875095 a70.6007742565528,70.6007742565528 0 0,0 -1.2137010421838739,-0.06273448049359225 l 2.986625177867887 -49.51077536149516" fill="red" stroke="none" /><path d="M 98.73552117531835 120.96189622390904 l -1.9497635377761227 32.32220274650677 a53.380956876527456,53.380956876527456 0 0,0 -0.9167219483299929,-0.06322251280114426 l 2.5058482468850456 -32.283851889189336" fill="red" stroke="none" /><path d="M 98.37488393609728 120.93702456842531 l -2.8291586130454363 36.44918951022703 a57.55882320877155,57.55882320877155 0 0,0 -0.9871493925118621,-0.08517540329394277 l 3.45615232329884 -36.39508985465442" fill="red" stroke="none" /><path d="M 98.01472825383883 120.90594882070398 l -1.193441754488064 12.567565265593135 a33.624103925677204,33.624103925677204 0 0,0 -0.5757205590485442,-0.059675789924720196 l 1.4095949101422016 -12.545160107212654" fill="red" stroke="none" /><path d="M 97.65516085044442 120.86867818915974 l -3.21857198460183 28.644755009328044 a49.825009890102166,49.825009890102166 0 0,0 -0.8514680807500465,-0.1031009267156508 l 3.7111674884032664 -28.585108553887043" fill="red" stroke="none" /><path d="M 97.2962882734958 120.8252237178851 l -3.0995993578587986 23.874531234394276 a45.07489891653351,45.07489891653351 0 0,0 -0.7685729789121113,-0.10651721162428038 l 3.510100927957741 -23.81763945727739" fill="red" stroke="none" /><path d="M 96.93821686468263 120.77559828337769 l -6.570527814008368 44.5840349693638 a66.06559674412524,66.06559674412524 0 0,0 -1.1236315145858788,-0.17548813392908783 l 7.336995192202764 -44.464328528087606" fill="red" stroke="none" /><path d="M 96.58105272829116 120.7198165907248 l -3.253437016345053 19.716776221135312 a40.98339603204748,40.98339603204748 0 0,0 -0.6950608880658103,-0.12084524473052072 l 3.592346875882913 -19.657852397883783" fill="red" stroke="none" /><path d="M 96.22490169976321 120.6578951692458 l -2.0673222045801403 11.312692276275792 a32.50003598408544,32.50003598408544 0 0,0 -0.5494554905683621,-0.10530445248251305 l 2.2617453097201974 -11.27543062544481" fill="red" stroke="none" /><path d="M 95.86986931433489 120.58985236759428 l -5.23965330401456 26.121131798923734 a47.641461919403284,47.641461919403284 0 0,0 -0.8026645722415047,-0.16820616527466625 l 5.688509337685451 -26.027069652922528" fill="red" stroke="none" /><path d="M 95.51606077576429 120.51570834832081 l -6.541362605783767 29.929194110285046 a51.635699515948176,51.635699515948176 0 0,0 -0.8666925548274499,-0.1972564037700201 l 7.0555753100040794 -29.81216097293734" fill="red" stroke="none" /><path d="M 95.16358092515715 120.4354850818985 l -10.009461220779222 42.293315010490836 a64.46163605419028,64.46163605419028 0 0,0 -1.0775735998524822,-0.2648413736083094 l 10.735988105374915 -42.1147523785685" fill="red" stroke="none" /><path d="M 94.81253420990036 120.34920634021253 l -4.914503807676968 19.27844078182497 a40.89498998878872,40.89498998878872 0 0,0 -0.6806280877242917,-0.17976006410041068 l 5.245622338212749 -19.190989368420976" fill="red" stroke="none" /><path d="M 94.11515582081647 120.15858648285463 l -1.259128922376258 4.313157409429809 a25.493187341040173,25.493187341040173 0 0,0 -0.4201823866674824,-0.12659750629423636 l 1.3331862834839863 -4.290844534029847" fill="red" stroke="none" /><path d="M 93.76903079525671 120.05430185196036 l -1.709364776370322 5.501570634363527 a26.761007497268743,26.761007497268743 0 0,0 -0.43872588881766394,-0.14046617509248494 l 1.8038120102789261 -5.471331612611336" fill="red" stroke="none" /><path d="M 93.42475214034765 119.94407469862007 l -8.255023523001569 25.039178643269263 a47.36486071449764,47.36486071449764 0 0,0 -0.7721154960850037,-0.2619434975889614 l 8.684808752023798 -24.893372158782178" fill="red" stroke="none" /><path d="M 93.08242187328487 119.8279376855182 l -13.750065195072791 39.411977843346634 a62.741685284535386,62.741685284535386 0 0,0 -1.016655630259672,-0.3645365381363456 l 14.42644038596219 -39.16945376417033" fill="red" stroke="none" /><path d="M 92.7421414339146 119.70592522655815 l -12.015913328776085 32.62459407684176 a55.76702909084061,55.76702909084061 0 0,0 -0.8979282493019435,-0.3395196312199173 l 12.575711798838311 -32.41292619551521" fill="red" stroke="none" /><path d="M 92.40401165467489 119.57807347666478 l -15.91867942586374 41.029167144896796 a65.0090548781418,65.0090548781418 0 0,0 -1.0397700666669554,-0.41374596793537344 l 16.622570568572552 -40.74907433255536" fill="red" stroke="none" /><path d="M 92.06813273071674 119.44442032107085 l -13.040063124026558 31.96680677938028 a55.52419415350386,55.52419415350386 0 0,0 -0.8818525446951276,-0.3686144352029237 l 13.588387128219146 -31.737607301157382" fill="red" stroke="none" /><path d="M 91.7346041902142 119.30500536409082 l -9.320719227426947 21.76986303180136 a44.681274107191065,44.681274107191065 0 0,0 -0.70443076604006,-0.3088017465200096 l 9.69407066812475 -21.6061967319869" fill="red" stroke="none" /><path d="M 91.40352486487194 119.15986991738527 l -13.884457245936954 30.945752825897838 a54.917809053295514,54.917809053295514 0 0,0 -0.8591551369686349,-0.39439598448387575 l 14.415080378673007 -30.702169771079888" fill="red" stroke="none" /><path d="M 91.07499286063937 119.00905698771935 l -11.21241629334071 23.880928828636787 a47.382134880513135,47.382134880513135 0 0,0 -0.7352970247934807,-0.35298725582748564 l 11.621825986134432 -23.68438729630974" fill="red" stroke="none" /><path d="M 90.7491055286396 118.85261126421891 l -12.533420217424073 25.5421462110194 a49.451500055561695,49.451500055561695 0 0,0 -0.7609551905800245,-0.381558729727449 l 12.971229315686857 -25.322619640382648" fill="red" stroke="none" /><path d="M 90.42595943632237 118.69057910512821 l -10.618144980748594 20.72889470150401 a44.290171282715754,44.290171282715754 0 0,0 -0.6755497519292193,-0.3534157017563189 l 10.973385635204309 -20.543049580802975" fill="red" stroke="none" /><path d="M 90.10565033884886 118.52300852407294 l -11.845965076504537 22.176587608329534 a46.14215437355519,46.14215437355519 0 0,0 -0.6973555814000979,-0.38025386487084434 l 12.225943469773275 -21.969393091698922" fill="red" stroke="none" /><line stroke="#e1ed5e" stroke-width="0.3" x1="58.666819895761336" x2="56.23545636021788" y1="174.27360380694188" y2="178.64263932499728" /><path d="M 58.180547188652646 175.14741091055294 a86.0,86.0 0 0,1 -31.652253787137756,-30.449443065178592" fill="none" id="id56" stroke="none" /><text fill="#e1ed5e" style="font-size:6.75px; font-family:Arial;" text-anchor="middle"><textPath startOffset="22.20632615414155" xlink:href="#id56">August</textPath></text><path d="M 89.7882731507175 118.34994917583269 l -5.707741136433986 10.256517953154251 a32.73773697967015,32.73773697967015 0 0,0 -0.49005466608421455,-0.2782658290437663 l 5.8834445694394075 -10.156748958315852" fill="red" stroke="none" /><path d="M 89.4739219176387 118.17145234162733 l -2.996435900381003 5.172828068771084 a26.978024618062232,26.978024618062232 0 0,0 -0.3998299065394394,-0.2362265563554122 l 3.0850336779488243 -5.1204829401219225" fill="red" stroke="none" /><path d="M 89.1626897886671 117.98757091392108 l -5.478742167899451 9.09351687295295 a31.616433716695997,31.616433716695997 0 0,0 -0.46373900993827766,-0.2848663760454766 l 5.634460377770037 -8.997862030079096" fill="red" stroke="none" /><path d="M 88.8546689885994 117.79835938074946 l -8.22110083890389 13.128556440945443 a36.490174086385096,36.490174086385096 0 0,0 -0.5294866709808246,-0.3379434452147345 l 8.44586931193164 -12.985098566906904" fill="red" stroke="none" /><path d="M 88.54995079064634 117.60387380957326 l -4.697509873078061 7.222184770816245 a29.61548326395426,29.61548326395426 0 0,0 -0.4249473531653637,-0.2816319340070765 l 4.821131924983386 -7.14025481571785" fill="red" stroke="none" /><path d="M 87.95078237400918 117.19931262002967 l -3.795585472725465 5.417900410449284 a27.615142775353462,27.615142775353462 0 0,0 -0.3869705645875128,-0.27609322312745765 l 3.8882833651618647 -5.3517629254776065" fill="red" stroke="none" /><path d="M 87.65650970185807 116.9893568818739 l -8.927769798887873 12.288020941317837 a36.1888291924098,36.1888291924098 0 0,0 -0.5008103650604618,-0.3704875353868576 l 9.1379651343669 -12.132523457191214" fill="red" stroke="none" /><path d="M 87.07902340077011 116.55440617244103 l -3.4596267083921584 4.432487381732626 a26.62280724822035,26.62280724822035 0 0,0 -0.3588279102113705,-0.28507459352872133 l 3.5354121113208867 -4.372278874198774" fill="red" stroke="none" /><path d="M 86.79598089348748 116.32954008644616 l -10.419361237902388 12.885726356270702 a37.57121094955321,37.57121094955321 0 0,0 -0.4993927277509128,-0.4109662164551862 l 10.63962409419799 -12.704465020958336" fill="red" stroke="none" /><path d="M 86.51685102203217 116.09983520530335 l -4.818657172341197 5.753818081541287 a28.505056925835188,28.505056925835188 0 0,0 -0.3734631072587399,-0.318273362114985 l 4.916985756176993 -5.670020329203351" fill="red" stroke="none" /><path d="M 86.24171649860922 115.8653595955263 l -8.961304023282688 10.333724462055493 a34.678115040289235,34.678115040289235 0 0,0 -0.4476080127835939,-0.3949620287902627 l 9.13785438897287 -10.177939291492942" fill="red" stroke="none" /><path d="M 85.97065885151581 115.62618273729859 l -8.825815862541207 9.830384051122628 a34.211036152855314,34.211036152855314 0 0,0 -0.4348067124953718,-0.39718562269687063 l 8.993722124503433 -9.677005661839182" fill="red" stroke="none" /><path d="M 85.70375840098266 115.38237550388516 l -33.96263336253117 36.54288967242563 a70.88830775370906,70.88830775370906 0 0,0 -0.8866580098845224,-0.8383904907483906 l 34.58662720680651 -35.95286454493131" fill="red" stroke="none" /><path d="M 85.44109423537348 115.13401014063109 l -13.033410108298053 13.548254514101975 a39.79960051251011,39.79960051251011 0 0,0 -0.48962993751577866,-0.479205947300525 l 13.264689998189626 -13.32189846387888" fill="red" stroke="none" /><path d="M 85.18274418774928 114.88116024355367 l -33.376130438156046 33.520076298426574 a68.30287092848748,68.30287092848748 0 0,0 -0.8260073527576794,-0.8367410873697672 l 33.94817841596926 -32.940594717076145" fill="red" stroke="none" /><path d="M 84.9287848128048 114.62390073753433 l -18.702741822466578 18.14764347362382 a47.060113494066016,47.060113494066016 0 0,0 -0.5591042861015327,-0.5862186087079773 l 19.012352659947066 -17.823017748333342" fill="red" stroke="none" /><path d="M 84.67929136418377 114.36230785411682 l -19.2087017311709 18.007084025867925 a47.329247944287275,47.329247944287275 0 0,0 -0.5520699662292347,-0.5991629131992778 l 19.515818105395862 -17.673769857867303" fill="red" stroke="none" /><path d="M 84.43433777217949 114.09645910891817 l -8.24544941657435 7.467182496588722 a32.12412920271278,32.12412920271278 0 0,0 -0.3676547698393047,-0.41306403139591763 l 8.372763036061993 -7.324144295451941" fill="red" stroke="none" /><path d="M 84.19399662182784 113.82643327865904 l -36.895226619761665 32.27440719540903 a70.01933401361794,70.01933401361794 0 0,0 -0.7857419302464101,-0.9139953787900322 l 37.44531105957885 -31.63453471745747" fill="red" stroke="none" /><path d="M 83.95833913139862 113.55231037782056 l -8.171251438321338 6.903233809417791 a31.696914840072225,31.696914840072225 0 0,0 -0.34852116321936216,-0.4198161927138027 l 8.288868601434237 -6.761556359590227" fill="red" stroke="none" /><path d="M 83.50135304334701 112.99209946851258 l -5.620148620394857 4.425667759049165 a28.15350303199862,28.15350303199862 0 0,0 -0.29654109248135885,-0.3833193361736985 l 5.695496530094284 -4.328270428762213" fill="red" stroke="none" /><path d="M 83.28015986056508 112.70617746262583 l -11.786545607318448 8.95713947675236 a35.80381724283954,35.80381724283954 0 0,0 -0.36867486133677596,-0.49390022474538925 l 11.938981735350309 -8.752926372497663" fill="red" stroke="none" /><path d="M 83.06392112726016 112.41649034213515 l -19.44631083270629 14.256837870134119 a45.11257827478265,45.11257827478265 0 0,0 -0.45374705474625004,-0.6302149732036333 l 19.688837679828143 -13.919989291479347" fill="red" stroke="none" /><path d="M 82.85270091963577 112.12312394758628 l -10.618147361419737 7.507019965822713 a34.00386104801515,34.00386104801515 0 0,0 -0.3337869080677474,-0.48084493607556134 l 10.745795176649619 -7.323133767560139" fill="red" stroke="none" /><path d="M 82.6465618267979 111.8261652097733 l -27.65533736053347 18.846789050871717 a54.46668704925805,54.46668704925805 0 0,0 -0.5213159502603074,-0.779296612562187 l 27.975656416204508 -18.36795552410371" fill="red" stroke="none" /><path d="M 82.44556493220864 111.52570212397912 l -52.586468481940805 34.526657743997845 a83.9080818525992,83.9080818525992 0 0,0 -0.7823235404809379,-1.2141835079537144 l 53.17299688579879 -33.61635263612268" fill="red" stroke="none" /><path d="M 82.05923443525364 110.91462005526583 l -6.611904246894582 4.022482899975019 a28.739356979148464,28.739356979148464 0 0,0 -0.25347993012732317,-0.4248469430317347 l 6.680165052720137 -3.908073863057173" fill="red" stroke="none" /><line stroke="#e1ed5e" stroke-width="0.3" x1="26.63291911575756" x2="22.317208475507996" y1="142.92168965132927" y2="145.44649492493687" /><path d="M 25.769776987707644 143.4266507060508 a86.0,86.0 0 0,1 -11.730757126820373,-40.83630448921669" fill="none" id="id57" stroke="none" /><text fill="#e1ed5e" style="font-size:6.75px; font-family:Arial;" text-anchor="middle"><textPath startOffset="21.46611528233685" xlink:href="#id57">September</textPath></text><path d="M 81.87401531095188 110.60418214915194 l -11.464296826761666 6.706917932926346 a34.28204991298808,34.28204991298808 0 0,0 -0.2935980116502608,-0.5119128807622865 l 11.578046834564304 -6.508585206305753" fill="red" stroke="none" /><path d="M 81.69416730710424 110.29060199501025 l -23.37218535572884 13.138646096265953 a47.81199488187088,47.81199488187088 0 0,0 -0.3971209437419825,-0.7208898644672733 l 23.594882708922338 -12.734385713400858" fill="red" stroke="none" /><path d="M 81.51974371655577 109.97397251340807 l -11.778579285255772 6.357012816071384 a34.384563568632046,34.384563568632046 0 0,0 -0.27662789384296876,-0.5232757252072099 l 11.886259687323628 -6.153322075778048" fill="red" stroke="none" /><path d="M 81.35079622478065 109.6543875284942 l -15.869149558647576 8.215198966853174 a38.869510395635075,38.869510395635075 0 0,0 -0.3024812901719628,-0.5968242819167253 l 16.008209518605806 -7.940820473233764" fill="red" stroke="none" /><path d="M 80.87730276802145 108.67885076344099 l -5.628959896126295 2.554707753787923 a27.181563007804925,27.181563007804925 0 0,0 -0.189700018558679,-0.4277234625075114 l 5.672100999416253 -2.4574359547877154" fill="red" stroke="none" /><path d="M 80.73074385275274 108.34839909993369 l -5.836451366682634 2.5286406991574886 a27.360675148212433,27.360675148212433 0 0,0 -0.18351067850198868,-0.4337650358006078 l 5.879113026376929 -2.427801137690722" fill="red" stroke="none" /><path d="M 80.58989483394504 108.01547362559985 l -14.095677463082984 5.820861348958234 a36.25026393171808,36.25026393171808 0 0,0 -0.23320551855499141,-0.5787969720081059 l 14.193785595895363 -5.577365009107322" fill="red" stroke="none" /><path d="M 80.45479744820244 107.68017299344265 l -32.396011659754535 12.729823248703932 a55.80732640410916,55.80732640410916 0 0,0 -0.3436288830782627,-0.8971065805750906 l 32.6103348224263 -12.170293101295682" fill="red" stroke="none" /><path d="M 80.32549172779594 107.34259656027581 l -7.165715801274048 2.6742706585802054 a28.64847739749367,28.64847739749367 0 0,0 -0.1684472341776503,-0.46349444324852074 l 7.210687296456922 -2.550528418325568" fill="red" stroke="none" /><path d="M 80.20201598880116 107.00284435728193 l -24.809401590487887 8.775458038415149 a47.31568108679857,47.31568108679857 0 0,0 -0.26498847314159907,-0.7701805413042493 l 24.956780894572713 -8.347104794021602" fill="red" stroke="none" /><path d="M 80.0844068197444 106.66101706037122 l -31.317532638751494 10.47453707792494 a54.0227766484905,54.0227766484905 0 0,0 -0.28736965586927643,-0.8844328589525937 l 31.49319454563702 -9.933905318994542" fill="red" stroke="none" /><path d="M 79.97269907076064 106.31721596034903 l -11.02394665425273 3.477285930657187 a32.55936491678312,32.55936491678312 0 0,0 -0.16399567201899135,-0.5359473448841459 l 11.082169098777852 -3.2870116132209932" fill="red" stroke="none" /><path d="M 79.1416061653843 102.43462659150553 l -3.784915642332626 0.44178167995541784 a24.810611167820515,24.810611167820515 0 0,0 -0.045861467804147224,-0.4246202338095807 l 3.791959411637825 -0.37656512426105504" fill="red" stroke="none" /><path d="M 79.0235259727143 100.99374915477108 l -3.7769759706980444 0.17893220155063072 a24.781212003575334,24.781212003575334 0 0,0 -0.01651829111487019,-0.42626369629815575 l 3.779496394664115 -0.1138912582384782" fill="red" stroke="none" /><line stroke="#e1ed5e" stroke-width="0.3" x1="15.007084014347285" x2="10.007500721073583" y1="101.09737516637583" y2="101.16192664675087" /><path d="M 14.007167355692545 101.11028546245083 a86.0,86.0 0 0,1 10.666146001902534,-42.60595125391555" fill="none" id="id58" stroke="none" /><text fill="#e1ed5e" style="font-size:6.75px; font-family:Arial;" text-anchor="middle"><textPath startOffset="22.20632615414155" xlink:href="#id58">October</textPath></text><path d="M 79.03285615573316 98.82574320788736 l -3.8271023718340347 -0.21433539005673127 a24.833099558311584,24.833099558311584 0 0,0 0.027575866915637823,-0.4265864558173067 l 3.8228459139139837 0.28018091012704976" fill="red" stroke="none" /><path d="M 79.16333360222342 97.38593545837743 l -18.980240226150006 -2.3811665464851552 a40.129021751371994,40.129021751371994 0 0,0 0.0918839961762465,-0.6846424973526144 l 18.936440230915924 2.707527385902429" fill="red" stroke="none" /><path d="M 79.21141760316559 97.0276538004421 l -13.268934872076466 -1.8971889177591796 a34.40387848456838,34.40387848456838 0 0,0 0.08886703098182024,-0.5855227003590164 l 13.234311947655343 2.125310730510288" fill="red" stroke="none" /><path d="M 79.26566170972629 96.67025291283419 l -12.728100387709546 -2.044017735111932 a33.89118101575895,33.89118101575895 0 0,0 0.09745834916299238,-0.575204693560824 l 12.691030177026331 2.262808216988584" fill="red" stroke="none" /><path d="M 79.32604984820605 96.31383870115002 l -20.416976095329257 -3.640342874465981 a41.73897319350506,41.73897319350506 0 0,0 0.13220178984341335,-0.7062272476121124 l 20.351288581575982 3.991248199540666" fill="red" stroke="none" /><path d="M 79.3925641242962 95.95851677861259 l -33.26501356481343 -6.523858426264621 a54.89869991951262,54.89869991951262 0 0,0 0.18984677340506845,-0.9257602898323656 l 33.14778749549336 7.095494372260388" fill="red" stroke="none" /><path d="M 79.46518482838121 95.60439243477599 l -10.332500537837253 -2.2117373422756845 a31.566567533292154,31.566567533292154 0 0,0 0.11830790704520654,-0.5303511494343317 l 10.29289824379001 2.3892666612599758" fill="red" stroke="none" /><path d="M 79.54389044137918 95.25157060432595 l -9.714432809610722 -2.254988818048059 a30.97272176399016,30.97272176399016 0 0,0 0.1250224234397316,-0.5182986592176458 l 9.674177585910176 2.4218727089251013" fill="red" stroke="none" /><path d="M 79.62865764111835 94.90015583598534 l -14.021842406774685 -3.5102846885171473 a35.45455509778363,35.45455509778363 0 0,0 0.15330493594214514,-0.5907464552042497 l 13.959341138962232 3.751127569270261" fill="red" stroke="none" /><path d="M 80.14247586403 93.16781622104843 l -13.129837879151287 -4.517454681860789 a34.885245389817996,34.885245389817996 0 0,0 0.20025280271125495,-0.5661416395971475 l 13.050131995630222 4.742793947884548" fill="red" stroke="none" /><path d="M 80.2630227832202 92.82701384747504 l -12.641319383403907 -4.5942196665106065 a34.450271748086585,34.450271748086585 0 0,0 0.20735029875381703,-0.5555957125775558 l 12.560364496148463 4.811138516117504" fill="red" stroke="none" /><path d="M 80.38941819471856 92.48833698450439 l -10.058334177276913 -3.852757536066494 a31.770971499985226,31.770971499985226 0 0,0 0.20001558851538145,-0.5090178560284938 l 9.99052503887984 4.025324396990751" fill="red" stroke="none" /><path d="M 80.52162464483688 92.15188598940014 l -29.588204950964894 -11.921507907619988 a52.89959596941236,52.89959596941236 0 0,0 0.34757128648862406,-0.8416714393393423 l 29.37861197759007 12.429053917412642" fill="red" stroke="none" /><path d="M 80.803312248108 91.48605970444005 l -7.715385727696426 -3.4218576814819786 a29.440159176192054,29.440159176192054 0 0,0 0.20944245567396264,-0.46147868842802725 l 7.655340955059112 3.5541583787520765" fill="red" stroke="none" /><path d="M 80.95270993114464 91.15688171328213 l -17.907920321020754 -8.314141124298104 a40.74382315709835,40.74382315709835 0 0,0 0.3008093300985142,-0.6335811651310181 l 17.76215279708049 8.621164705069654" fill="red" stroke="none" /><path d="M 81.10775173730289 90.83032412892265 l -17.331845642682406 -8.41230776671219 a40.26550791813326,40.26550791813326 0 0,0 0.3080119366853896,-0.6209332692145999 l 17.184473693043604 8.70940062442575" fill="red" stroke="none" /><path d="M 81.26839172434947 90.50648371742162 l -27.686461509636846 -14.031997107818485 a52.03928307416956,52.03928307416956 0 0,0 0.4118303786684535,-0.7955252086106882 l 27.44082169780828 14.50649503868951" fill="red" stroke="none" /><path d="M 81.43458229118936 90.18545643968196 l -19.420518507916253 -10.266589626445715 a42.967234729800666,42.967234729800666 0 0,0 0.35129172390883656,-0.6508902124365246 l 19.240918684788944 10.599360822214711" fill="red" stroke="none" /><path d="M 81.6062741919709 89.86733742301443 l -8.329259556639174 -4.588389404321581 a30.509462765453975,30.509462765453975 0 0,0 0.2573580093892037,-0.4578111819250113 l 8.249043905957539 4.731084096181377" fill="red" stroke="none" /><line stroke="#e1ed5e" stroke-width="0.3" x1="26.266209847984243" x2="21.928928074336255" y1="57.711370442889674" y2="55.22380399835377" /><path d="M 25.398753493254645 57.213857153982495 a86.0,86.0 0 0,1 29.58750427330803,-30.492523968695096" fill="none" id="id59" stroke="none" /><text fill="#e1ed5e" style="font-size:6.75px; font-family:Arial;" text-anchor="middle"><textPath startOffset="21.46611528233685" xlink:href="#id59">November</textPath></text><path d="M 82.15384107792192 88.93136811851018 l -31.67207160611043 -19.64380699863234 a58.26928055680849,58.26928055680849 0 0,0 0.5360008090560517,-0.8478245590539599 l 31.329243200808413 20.186079205400514" fill="red" stroke="none" /><path d="M 82.34701348167596 88.62581576622439 l -28.411845329839533 -18.30633943257622 a54.798742853358014,54.798742853358014 0 0,0 0.5177264266791596,-0.7885328670008434 l 28.09252226780245 18.79269036355473" fill="red" stroke="none" /><path d="M 82.54541684631803 88.32363383020206 l -7.977157530174729 -5.33637563821355 a30.59749692437265,30.59749692437265 0 0,0 0.29661437074182073,-0.4352449887726653 l 7.884118693764168 5.4728986502566315" fill="red" stroke="none" /><path d="M 82.7489923806493 88.02491185347247 l -16.416713401220466 -11.395948247995385 a40.984396797721985,40.984396797721985 0 0,0 0.4072822093635678,-0.5760718016463968 l 16.21811857205302 11.676846549973568" fill="red" stroke="none" /><path d="M 82.95767976084542 87.72973835380427 l -15.552855831345509 -11.197865532283727 a40.16464236529672,40.16464236529672 0 0,0 0.4087945584991791,-0.5575953183803202 l 15.357798660332696 11.463923294335547" fill="red" stroke="none" /><path d="M 83.6137871275137 86.86637796730984 l -16.392150766731213 -13.138381281168723 a42.00760979856136,42.00760979856136 0 0,0 0.4570858182494181,-0.5603331667382704 l 16.163566456405402 13.418598617515077" fill="red" stroke="none" /><path d="M 83.84228863543731 86.58626213691792 l -12.59777792846525 -10.458367956762148 a37.373193611936415,37.373193611936415 0 0,0 0.4151794957026464,-0.4914415685578351 l 12.41588781927548 10.673668474949098" fill="red" stroke="none" /><path d="M 84.07557802195018 86.31012108654704 l -21.822454734570517 -18.76028927909412 a49.777907923920964,49.777907923920964 0 0,0 0.5641689095221963,-0.644942590041007 l 21.496293961470478 19.13314742533807" fill="red" stroke="none" /><path d="M 84.31358615837235 86.03803664274999 l -8.227438522666294 -7.322973646956564 a32.01438548800039,32.01438548800039 0 0,0 0.36992829668727134,-0.4084840647041752 l 8.100166585362977 7.463510498930296" fill="red" stroke="none" /><path d="M 84.5562425177563 85.77008943001954 l -10.88623304558765 -10.030597985029525 a35.802802635316155,35.802802635316155 0 0,0 0.42150584649963957,-0.44963304840057206 l 10.711959877117556 10.216500450308146" fill="red" stroke="none" /><path d="M 84.80347519578584 85.50635884689758 l -7.766409088284447 -7.40718998744851 a31.732361046700987,31.732361046700987 0 0,0 0.3803890129776075,-0.3920243150116567 l 7.6377558116037205 7.53977849801029" fill="red" stroke="none" /><path d="M 85.05521093208273 85.24692304244772 l -10.013672065972901 -9.88521644203962 a35.07093217774915,35.07093217774915 0 0,0 0.42780558469997804,-0.42596845156310925 l 9.84203068110561 10.056120744252839" fill="red" stroke="none" /><path d="M 85.31137513191541 84.99185889309783 l -6.724381362641354 -6.870654350117168 a30.613698347099433,30.613698347099433 0 0,0 0.3797800664006634,-0.36534812297808206 l 6.605118052628264 6.985385559857564" fill="red" stroke="none" /><path d="M 85.57189188830299 84.74124197986013 l -3.491522742445553 -3.6925354479150436 a26.08188440395132,26.08188440395132 0 0,0 0.3288703507590575,-0.30564914944493315 l 3.4274445078916393 3.7520891834346246" fill="red" stroke="none" /><path d="M 85.83668400450813 84.49514656593479 l -11.082507811030274 -12.132233676534575 a37.43207453012512,37.43207453012512 0 0,0 0.47946746476630236,-0.43047062394511665 l 10.872029358668 12.321203309248972" fill="red" stroke="none" /><path d="M 86.10567301691215 84.25364557470407 l -4.643091721402627 -5.261986993925991 a28.01760698939488,28.01760698939488 0 0,0 0.3643705817086307,-0.31597857789038764 l 4.551827341047222 5.3411305652360594" fill="red" stroke="none" /><path d="M 86.37877921826538 84.01681056812374 l -4.846474073051326 -5.686870099787905 a28.4718674019699,28.4718674019699 0 0,0 0.3757506409121692,-0.31468035575400266 l 4.747865895180046 5.76945161293572" fill="red" stroke="none" /><path d="M 89.00827224532344 82.1063720568725 l -3.2336520229160444 -5.264119298349919 a27.177981660103004,27.177981660103004 0 0,0 0.4007301945528057,-0.24143545841731806 l 3.1425597621455896 5.319001366225857" fill="red" stroke="none" /><line stroke="#e1ed5e" stroke-width="0.3" x1="56.762969772571076" x2="54.21961505331055" y1="26.818313649435495" y2="22.513508569990535" /><path d="M 56.25429882871897 25.957352633546506 a86.0,86.0 0 0,1 42.265352541879196,-11.944610805530505" fill="none" id="id60" stroke="none" /><text fill="#e1ed5e" style="font-size:6.75px; font-family:Arial;" text-anchor="middle"><textPath startOffset="22.20632615414155" xlink:href="#id60">December</textPath></text><path d="M 93.59665428221793 80.00007090966166 l -3.6780672442719315 -11.487913868316653 a33.06235232859861,33.06235232859861 0 0,0 0.5435051255439876,-0.1688696881539007 l 3.4797767460172153 11.549523691353079" fill="red" stroke="none" /><path d="M 96.04723909329186 79.375362276772 l -0.7225184653153067 -3.7699425660129298 a24.838554400260303,24.838554400260303 0 0,0 0.42060529188017914,-0.07686292864973662 l 0.6575180523322343 3.7818209760134023" fill="red" stroke="none" /><path d="M 99.27714615592234 79.0124445844662 l -0.2695752765514002 -7.826929470783179 a28.831570453640957,28.831570453640957 0 0,0 0.4961410298784829,-0.012813859043144445 l 0.13480761147803827 7.830410121968684" fill="red" stroke="none" /></svg>