<?xml version="1.0" encoding="utf-8" ?>
<svg baseProfile="full" height="200mm" version="1.1" viewBox="0,0,200,200" width="200mm" xmlns="http://www.w3.org/2000/svg" xmlns:ev="http://www.w3.org/2001/xml-events" xmlns:xlink="http://www.w3.org/1999/xlink"><defs /><rect fill="#1a1a1a" height="200" width="200" x="0" y="0" /><text alignment-baseline="middle" fill="#e1ed5e" style="dominant-baseline: central; font-size:9.0px; font-family:Arial;" text-anchor="middle" x="100.0" y="100.0">2024</text><line stroke="#e1ed5e" stroke-width="0.3" x1="100.0" x2="100.0" y1="15.0" y2="10.0" /><path d="M 100.0 14.0 a86.0,86.0 0 0,1 42.35913384403234,11.155469271406648" fill="none" id="id37" stroke="none" /><text fill="#e1ed5e" style="font-size:6.75px; font-family:Arial;" text-anchor="middle"><textPath startOffset="22.145653131862478" xlink:href="#id37">January</textPath></text><path d="M 100.36049292484886 79.00309439819443 l 0.10818661155905794 -6.30132774793614 a27.30225639988017,27.30225639988017 0 0,0 0.4685414143973194,0.012067964804058466 l -0.2163413400271187 6.298542065782037" fill="red" stroke="none" /><line stroke="#e1ed5e" stroke-width="0.3" x1="143.13028292997686" x2="145.6673583964461" y1="26.7553504044142" y2="22.446841604673864" /><path d="M 143.63769802327073 25.89364864446614 a86.0,86.0 0 0,1 29.32050498858742,28.57503671076993" fill="none" id="id38" stroke="none" /><text fill="#e1ed5e" style="font-size:6.75px; font-family:Arial;" text-anchor="middle"><textPath startOffset="20.669276256404974" xlink:href="#id38">February</textPath></text><line stroke="#e1ed5e" stroke-width="0.3" x1="172.87174338648825" x2="177.1583165268699" y1="56.24261187166439" y2="53.66864786411523" /><path d="M 173.72905801456457 55.72781907015455 a86.0,86.0 0 0,1 12.242430191666344,42.057860355516425" fill="none" id="id39" stroke="none" /><text fill="#e1ed5e" style="font-size:6.75px; font-family:Arial;" text-anchor="middle"><textPath startOffset="22.145653131862474" xlink:href="#id39">March</textPath></text><line stroke="#e1ed5e" stroke-width="0.3" x1="184.99686870605535" x2="189.99668451229388" y1="99.2704041080226" y2="99.22748670261217" /><path d="M 185.99683186730306 99.26182062694052 a86.0,86.0 0 0,1 -10.086455211305974,41.156179273409016" fill="none" id="id40" stroke="none" /><text fill="#e1ed5e" style="font-size:6.75px; font-family:Arial;" text-anchor="middle"><textPath startOffset="21.40746469413373" xlink:href="#id40">April</textPath></text><line stroke="#e1ed5e" stroke-width="0.3" x1="174.33088141563837" x2="178.70328620479359" y1="141.23008692659167" y2="143.65538615756765" /><path d="M 175.20536237346943 141.71514677278685 a86.0,86.0 0 0,1 -30.301960400862466,31.631185727798858" fill="none" id="id41" stroke="none" /><text fill="#e1ed5e" style="font-size:6.75px; font-family:Arial;" text-anchor="middle"><textPath startOffset="22.145653131862474" xlink:href="#id41">May</textPath></text><line stroke="#e1ed5e" stroke-width="0.3" x1="143.1302829299769" x2="145.66735839644613" y1="173.24464959558577" y2="177.55315839532614" /><path d="M 143.63769802327073 174.10635135553383 a86.0,86.0 0 0,1 -40.68552437913181,11.842963189579606" fill="none" id="id42" stroke="none" /><text fill="#e1ed5e" style="font-size:6.75px; font-family:Arial;" text-anchor="middle"><textPath startOffset="21.407464694133747" xlink:href="#id42">June</textPath></text><line stroke="#e1ed5e" stroke-width="0.3" x1="101.45913802915013" x2="101.54496967792366" y1="184.9874750549273" y2="189.98673829345242" /><path d="M 101.47630435890484 185.9873277026323 a86.0,86.0 0 0,1 -42.54439059252881,-10.42667462771756" fill="none" id="id43" stroke="none" /><text fill="#e1ed5e" style="font-size:6.75px; font-family:Arial;" text-anchor="middle"><textPath startOffset="22.145653131862474" xlink:href="#id43">July</textPath></text><line stroke="#e1ed5e" stroke-width="0.3" x1="58.13341422392154" x2="55.67067388415222" y1="173.97424548756322" y2="178.32567169271397" /><path d="M 57.64086615596768 174.84453072859336 a86.0,86.0 0 0,1 -31.369924170532247,-30.572349798747897" fill="none" id="id44" stroke="none" /><text fill="#e1ed5e" style="font-size:6.75px; font-family:Arial;" text-anchor="middle"><textPath startOffset="22.145653131862474" xlink:href="#id44">August</textPath></text><line stroke="#e1ed5e" stroke-width="0.3" x1="26.387840678322732" x2="22.057713659400548" y1="142.50000000000003" y2="145.00000000000006" /><path d="M 25.521815274538298 143.00000000000003 a86.0,86.0 0 0,1 -11.493303480769221,-40.785679425670985" fill="none" id="id45" stroke="none" /><text fill="#e1ed5e" style="font-size:6.75px; font-family:Arial;" text-anchor="middle"><textPath startOffset="21.40746469413373" xlink:href="#id45">September</textPath></text><line stroke="#e1ed5e" stroke-width="0.3" x1="15.003131293944662" x2="10.003315487706104" y1="100.72959589197737" y2="100.7725132973878" /><path d="M 14.003168132696942 100.73817937305945 a86.0,86.0 0 0,1 10.791469493833604,-42.45332614584628" fill="none" id="id46" stroke="none" /><text fill="#e1ed5e" style="font-size:6.75px; font-family:Arial;" text-anchor="middle"><textPath startOffset="22.145653131862435" xlink:href="#id46">October</textPath></text><line stroke="#e1ed5e" stroke-width="0.3" x1="26.387840678322718" x2="22.05771365940052" y1="57.49999999999999" y2="54.99999999999999" /><path d="M 25.521815274538284 56.99999999999999 a86.0,86.0 0 0,1 29.574782752854787,-30.34633250058573" fill="none" id="id47" stroke="none" /><text fill="#e1ed5e" style="font-size:6.75px; font-family:Arial;" text-anchor="middle"><textPath startOffset="21.40746469413373" xlink:href="#id47">November</textPath></text><path d="M 82.78059297857968 87.97951657250589 l -4.490727014352506 -3.1348762234538277 a26.476684951118834,26.476684951118834 0 0,0 0.2633609393936868,-0.37045014285124017 l 4.436250976428847 3.211503593014588" fill="red" stroke="none" /><path d="M 83.42222388311158 87.10902102172516 l -12.307756243188312 -9.570585697501341 a36.5909260255752,36.5909260255752 0 0,0 0.38983897551583413,-0.4925488105296803 l 12.141650837030916 9.780454451945705" fill="red" stroke="none" /><path d="M 83.64595745247003 86.82634096563983 l -14.423846650030267 -11.61882985073288 a39.5214621259735,39.5214621259735 0 0,0 0.43013123224910776,-0.5246901649838497 l 14.222268598542529 11.864722297415222" fill="red" stroke="none" /><path d="M 83.8745106332314 86.54754324733833 l -7.225762496036888 -6.027988067342586 a30.410009765625,30.410009765625 0 0,0 0.33784860010105,-0.39798480141081527 l 7.121219332428724 6.151139651202959" fill="red" stroke="none" /><path d="M 84.10781606972428 86.27271002978789 l -6.8116011005839985 -5.883698796802832 a30.00087890625,30.00087890625 0 0,0 0.33999415481931156,-0.38685093631821194 l 6.709595881806094 5.9997620109323435" fill="red" stroke="none" /><path d="M 84.34580500576568 86.00192230759919 l -4.737534207727748 -4.236332301635756 a27.35537109375,27.35537109375 0 0,0 0.31602266293655773,-0.3473642655894925 l 4.664113843949325 4.317034142782907" fill="red" stroke="none" /><path d="M 84.58840730492382 85.73525988315684 l -11.28327250341661 -10.443628579684878 a36.37470703125,36.37470703125 0 0,0 0.42808555439645996,-0.45461202392228567 l 11.102331115283878 10.635782063551675" fill="red" stroke="none" /><path d="M 88.72937992617638 82.28071324371311 l -6.98690392857738 -10.98457346962004 a34.018359375,34.018359375 0 0,0 0.49543021793325004,-0.3091850978508399 l 6.797309581854432 11.102894364312416" fill="red" stroke="none" /><line stroke="#e1ed5e" stroke-width="0.3" x1="56.869717070023135" x2="54.33264160355391" y1="26.7553504044142" y2="22.446841604673864" /><path d="M 56.362301976729285 25.89364864446614 a86.0,86.0 0 0,1 42.16139366436587,-11.88097634709845" fill="none" id="id48" stroke="none" /><text fill="#e1ed5e" style="font-size:6.75px; font-family:Arial;" text-anchor="middle"><textPath startOffset="22.145653131862474" xlink:href="#id48">December</textPath></text><path d="M 89.65649057296885 81.72400993836675 l -4.56821497888168 -8.071598149778946 a30.274658203125,30.274658203125 0 0,0 0.45448866429155615,-0.2520972007732599 l 4.428982126434021 8.148828265985353" fill="red" stroke="none" /><path d="M 89.97174638481275 81.54914285379989 l -6.932106725364601 -12.754295595218348 a35.51641001701355,35.51641001701355 0 0,0 0.5381770900249475,-0.2865489874931353 l 6.712140819553093 12.87141505043406" fill="red" stroke="none" /><path d="M 90.28995756902619 81.37971332152246 l -7.130338287080822 -13.673363835821466 a36.420849609375,36.420849609375 0 0,0 0.5568449224587534,-0.2843289850846002 l 6.894566142908487 13.7937507725789" fill="red" stroke="none" /><path d="M 90.61103034731259 81.2157712731953 l -7.4199389672062495 -14.844848354477232 a37.59593374729157,37.59593374729157 0 0,0 0.5797646577849175,-0.2835919465000975 l 7.164014060159279 14.970034051074544" fill="red" stroke="none" /><path d="M 92.592206182469 80.34994680014964 l -5.299755615940633 -14.058231420127319 a36.0240234375,36.0240234375 0 0,0 0.5805200158245708,-0.2131749908508585 l 5.057646448461935 14.1471372599869" fill="red" stroke="none" /><path d="M 92.93061703081487 80.22567764915836 l -4.14842990838217 -11.603896777949945 a33.32314453125,33.32314453125 0 0,0 0.5403018271524146,-0.18794502238213373 l 3.948622309184751 11.673400232900665" fill="red" stroke="none" /><path d="M 93.61358852112211 79.99465700312896 l -9.44864588916016 -29.59774867212852 a52.0693359375,52.0693359375 0 0,0 0.8538363604872721,-0.26452068706927334 l 8.939168895801272 29.755585947004437" fill="red" stroke="none" /><path d="M 93.95794788825049 79.88797359093562 l -6.433546406294994 -21.41518358898765 a43.360693359375,43.360693359375 0 0,0 0.7147080886922975,-0.2080411083510406 l 6.0649783052210715 21.52246839164121" fill="red" stroke="none" /><path d="M 94.30408787586887 79.78721728523814 l -4.091711873545761 -14.520041957987136 a36.085546875,36.085546875 0 0,0 0.5976773505032629,-0.1628996196327849 l 3.8418531221078203 14.58814207176406" fill="red" stroke="none" /><path d="M 95.35216902796891 79.52079915486377 l -0.9116375495434028 -4.016843251704698 a25.118994140625,25.118994140625 0 0,0 0.42132637109772736,-0.09182612158683622 l 0.8425487618265571 4.031900831425248" fill="red" stroke="none" /><path d="M 97.48249496171623 79.15144685158666 l -1.8468259616784897 -15.294368286218846 a36.40546875,36.40546875 0 0,0 0.6210844018342393,-0.06959380268361849 l 1.584005658243451 15.323817849409435" fill="red" stroke="none" /><path d="M 98.1996594967304 79.07731436759882 l -1.1551012799298068 -13.424027793444901 a34.4736328125,34.4736328125 0 0,0 0.5900424997879492,-0.045673021173159 l 0.9244897853666405 13.441878581613114" fill="red" stroke="none" /><path d="M 99.27912038922189 79.0123766808444 l -2.1626388323343404 -62.96286995746683 a84.0,84.0 0 0,0 1.4415467437170244,-0.03712913059981959 l 1.081478774546572 62.990716805416696" fill="red" stroke="none" /><path d="M 99.63950707515114 79.00309439819443 l -0.10561316157681368 -6.151437188028974 a27.15234375,27.15234375 0 0,0 0.4661060864256643,-0.004000960165460764 l 1.5068896161383448e-15 6.15234375" fill="red" stroke="none" /></svg>