<?xml version="1.0" encoding="utf-8" ?>
<svg baseProfile="full" height="200mm" version="1.1" viewBox="0,0,200,200" width="200mm" xmlns="http://www.w3.org/2000/svg" xmlns:ev="http://www.w3.org/2001/xml-events" xmlns:xlink="http://www.w3.org/1999/xlink"><defs /><rect fill="#1a1a1a" height="200" width="200" x="0" y="0" /><text alignment-baseline="middle" fill="#e1ed5e" style="dominant-baseline: central; font-size:9.0px; font-family:Arial;" text-anchor="middle" x="100.0" y="100.0">2025</text><line stroke="#e1ed5e" stroke-width="0.3" x1="100.0" x2="100.0" y1="15.0" y2="10.0" /><path d="M 100.0 14.0 a86.0,86.0 0 0,1 42.46469731375804,11.215312516191453" fill="none" id="id49" stroke="none" /><text fill="#e1ed5e" style="font-size:6.75px; font-family:Arial;" text-anchor="middle"><textPath startOffset="22.20632615414155" xlink:href="#id49">January</textPath></text><path d="M 100.0 79.0 l 0.0 -57.05983680870354 a78.05983680870354,78.05983680870354 0 0,0 1.343671772454548,0.011565407157834417 l -0.9821912931820196 57.05138277815426" fill="red" stroke="none" /><path d="M 100.72285384407766 79.0124445844662 l 0.8516961520973051 -24.72840164825723 a45.74306436990027,45.74306436990027 0 0,0 0.7866917643711623,0.03387660222390721 l -1.277228748857799 24.710077319509125" fill="red" stroke="none" /><path d="M 101.08401301168833 79.027996857942 l 1.7763857829797414 -34.36708583795995 a55.412964641885765,55.412964641885765 0 0,0 0.9521476490048137,0.05743614639041248 l -2.367695480824167 34.331416422189236" fill="red" stroke="none" /><path d="M 101.44485096284872 79.0497635885617 l 4.086976431630097 -59.26086818104033 a80.40163191296463,80.40163191296463 0 0,0 1.3798827110814442,0.10710545582784615 l -5.106449332073882 59.18173746302402" fill="red" stroke="none" /><path d="M 101.80526077348638 79.07773832637324 l 2.4648438122125857 -28.566569429267368 a49.67271078875793,49.67271078875793 0 0,0 0.8512362134374912,0.08083513541242071 l -2.956205152740321 28.51990874933977" fill="red" stroke="none" /><path d="M 102.16513564639614 79.11191278185805 l 4.122198420155827 -39.76879706083235 a60.9818676337262,60.9818676337262 0 0,0 1.0431770160093834,0.11721309250558982 l -4.806142139674935 39.69194801485616" fill="red" stroke="none" /><path d="M 102.88285421437855 79.19881850522331 l 8.20918361331273 -59.233213186007255 a80.79936655129438,80.79936655129438 0 0,0 1.376017135259913,0.2027891568358534 l -9.2275697290013 59.08312954501043" fill="red" stroke="none" /><path d="M 107.08798089147638 80.2323363322302 l 19.606010607338558 -54.679185721093035 a79.08794197642791,79.08794197642791 0 0,0 1.2775251303179667,0.47052328697418594 l -20.544318063429102 54.333599166312524" fill="red" stroke="none" /><line stroke="#e1ed5e" stroke-width="0.3" x1="143.23703022742887" x2="145.7803849466894" y1="26.81831364943548" y2="22.513508569990506" /><path d="M 143.74570117128098 25.957352633546492 a86.0,86.0 0 0,1 28.547481713284135,27.462654790039103" fill="none" id="id50" stroke="none" /><text fill="#e1ed5e" style="font-size:6.75px; font-family:Arial;" text-anchor="middle"><textPath startOffset="19.985693538727396" xlink:href="#id50">February</textPath></text><path d="M 117.45458315368197 88.32363383020206 l 28.880162254664313 -19.31958767273704 a55.74637016582179,55.74637016582179 0 0,0 0.5266794003562684,0.8021688601392982 l -29.208438290378506 18.81960074862007" fill="red" stroke="none" /><line stroke="#e1ed5e" stroke-width="0.3" x1="172.23445277983987" x2="176.4835382374775" y1="55.19839476539836" y2="52.563006222186495" /><path d="M 173.08426987136738 54.67131705675599 a86.0,86.0 0 0,1 12.851231095245387,41.99856678651699" fill="none" id="id51" stroke="none" /><text fill="#e1ed5e" style="font-size:6.75px; font-family:Arial;" text-anchor="middle"><textPath startOffset="22.20632615414155" xlink:href="#id51">March</textPath></text><path d="M 118.3937258080291 89.86733742301442 l 30.167044412261692 -16.618301542853064 a55.441523118767,55.441523118767 0 0,0 0.45327907078497776,0.8398572770044245 l -30.448631582265133 16.096563282516183" fill="red" stroke="none" /><path d="M 118.89224826269711 90.83032412892265 l 30.984657395484202 -15.038933500252867 a55.441523118767,55.441523118767 0 0,0 0.4093216133570317,0.8621357077558899 l -31.23893720268299 14.503355376856437" fill="red" stroke="none" /><path d="M 119.196687751892 91.48605970444005 l 57.59006325567602 -25.541820886679833 a84.0,84.0 0 0,0 0.574837160629277,1.3268034216535889 l -58.02119112614798 24.54671832043964" fill="red" stroke="none" /><path d="M 119.47837535516314 92.15188598940014 l 33.164450514049285 -13.362428025300563 a56.75521305530372,56.75521305530372 0 0,0 0.3573050116071179,0.9093022814194622 l -33.3895490755381 12.789576738985316" fill="red" stroke="none" /><path d="M 120.18372546131832 94.20196356495316 l 24.972556787906708 -7.173690229291413 a46.98250226654578,46.98250226654578 0 0,0 0.2165965605379744,0.7792130703110175 l -25.092340119011048 6.742765855561443" fill="red" stroke="none" /><path d="M 120.37134235888165 94.90015583598534 l 39.6525599640197 -9.926782092127599 a61.876234102529104,61.876234102529104 0 0,0 0.24976548072749433,1.0354391653775532 l -39.817558245008016 9.242757695090638" fill="red" stroke="none" /><path d="M 120.45610955862082 95.25157060432595 l 9.703206274769192 -2.252382828482924 a30.96119673617407,30.96119673617407 0 0,0 0.1160390461081473,0.5201802907324105 l -9.740539707879377 2.0850243682005494" fill="red" stroke="none" /><path d="M 120.6074358757038 95.95851677861258 l 28.080667380945425 -5.507116302579607 a49.615593834995465,49.615593834995465 0 0,0 0.1571497765103415,0.8395003899660575 l -28.171302881365627 5.022937835150986" fill="red" stroke="none" /><line stroke="#e1ed5e" stroke-width="0.3" x1="184.98032266829074" x2="189.97916517819016" y1="98.17113171792111" y2="98.06355123074" /><path d="M 185.9800911702706 98.14961562048488 a86.0,86.0 0 0,1 -9.607161424134198,41.387399972396054" fill="none" id="id52" stroke="none" /><text fill="#e1ed5e" style="font-size:6.75px; font-family:Arial;" text-anchor="middle"><textPath startOffset="21.466115282336823" xlink:href="#id52">April</textPath></text><line stroke="#e1ed5e" stroke-width="0.3" x1="174.80103733775053" x2="179.2010983576182" y1="140.37084112569926" y2="142.7455964860345" /><path d="M 175.68104954172406 140.8457921977663 a86.0,86.0 0 0,1 -30.038265399797805,32.042727171017184" fill="none" id="id53" stroke="none" /><text fill="#e1ed5e" style="font-size:6.75px; font-family:Arial;" text-anchor="middle"><textPath startOffset="22.206326154141568" xlink:href="#id53">May</textPath></text><line stroke="#e1ed5e" stroke-width="0.3" x1="143.8653032363475" x2="146.44561519142675" y1="172.8068346515853" y2="177.08958963109032" /><path d="M 144.38136562736335 173.6633856474863 a86.0,86.0 0 0,1 -40.68145358897372,12.25698825130547" fill="none" id="id54" stroke="none" /><text fill="#e1ed5e" style="font-size:6.75px; font-family:Arial;" text-anchor="middle"><textPath startOffset="21.466115282336833" xlink:href="#id54">June</textPath></text><line stroke="#e1ed5e" stroke-width="0.3" x1="102.19456741930631" x2="102.32365962044197" y1="184.97166512339345" y2="189.96999836594603" /><path d="M 102.22038585953345 185.97133177190398 a86.0,86.0 0 0,1 -42.740103519485714,-10.115201625700543" fill="none" id="id55" stroke="none" /><text fill="#e1ed5e" style="font-size:6.75px; font-family:Arial;" text-anchor="middle"><textPath startOffset="22.20632615414155" xlink:href="#id55">July</textPath></text><line stroke="#e1ed5e" stroke-width="0.3" x1="58.666819895761336" x2="56.23545636021788" y1="174.27360380694188" y2="178.64263932499728" /><path d="M 58.180547188652646 175.14741091055294 a86.0,86.0 0 0,1 -31.652253787137756,-30.449443065178592" fill="none" id="id56" stroke="none" /><text fill="#e1ed5e" style="font-size:6.75px; font-family:Arial;" text-anchor="middle"><textPath startOffset="22.20632615414155" xlink:href="#id56">August</textPath></text><line stroke="#e1ed5e" stroke-width="0.3" x1="26.63291911575756" x2="22.317208475507996" y1="142.92168965132927" y2="145.44649492493687" /><path d="M 25.769776987707644 143.4266507060508 a86.0,86.0 0 0,1 -11.730757126820373,-40.83630448921669" fill="none" id="id57" stroke="none" /><text fill="#e1ed5e" style="font-size:6.75px; font-family:Arial;" text-anchor="middle"><textPath startOffset="21.46611528233685" xlink:href="#id57">September</textPath></text><line stroke="#e1ed5e" stroke-width="0.3" x1="15.007084014347285" x2="10.007500721073583" y1="101.09737516637583" y2="101.16192664675087" /><path d="M 14.007167355692545 101.11028546245083 a86.0,86.0 0 0,1 10.666146001902534,-42.60595125391555" fill="none" id="id58" stroke="none" /><text fill="#e1ed5e" style="font-size:6.75px; font-family:Arial;" text-anchor="middle"><textPath startOffset="22.20632615414155" xlink:href="#id58">October</textPath></text><line stroke="#e1ed5e" stroke-width="0.3" x1="26.266209847984243" x2="21.928928074336255" y1="57.711370442889674" y2="55.22380399835377" /><path d="M 25.398753493254645 57.213857153982495 a86.0,86.0 0 0,1 29.58750427330803,-30.492523968695096" fill="none" id="id59" stroke="none" /><text fill="#e1ed5e" style="font-size:6.75px; font-family:Arial;" text-anchor="middle"><textPath startOffset="21.46611528233685" xlink:href="#id59">November</textPath></text><line stroke="#e1ed5e" stroke-width="0.3" x1="56.762969772571076" x2="54.21961505331055" y1="26.818313649435495" y2="22.513508569990535" /><path d="M 56.25429882871897 25.957352633546506 a86.0,86.0 0 0,1 42.265352541879196,-11.944610805530505" fill="none" id="id60" stroke="none" /><text fill="#e1ed5e" style="font-size:6.75px; font-family:Arial;" text-anchor="middle"><textPath startOffset="22.20632615414155" xlink:href="#id60">December</textPath></text></svg>