<?xml version="1.0" encoding="utf-8" ?>
<svg baseProfile="full" height="200mm" version="1.1" viewBox="0,0,200,200" width="200mm" xmlns="http://www.w3.org/2000/svg" xmlns:ev="http://www.w3.org/2001/xml-events" xmlns:xlink="http://www.w3.org/1999/xlink"><defs /><rect fill="#1a1a1a" height="200" width="200" x="0" y="0" /><text alignment-baseline="middle" fill="#e1ed5e" style="dominant-baseline: central; font-size:9.0px; font-family:Arial;" text-anchor="middle" x="100.0" y="100.0">2025</text><line stroke="#e1ed5e" stroke-width="0.3" x1="100.0" x2="100.0" y1="15.0" y2="10.0" /><path d="M 100.0 14.0 a86.0,86.0 0 0,1 42.46469731375804,11.215312516191453" fill="none" id="id49" stroke="none" /><text fill="#e1ed5e" style="font-size:6.75px; font-family:Arial;" text-anchor="middle"><textPath startOffset="22.20632615414155" xlink:href="#id49">January</textPath></text><path d="M 100.0 79.0 l 0.0 -57.05983680870354 a78.05983680870354,78.05983680870354 0 0,0 1.343671772454548,0.011565407157834417 l -0.9821912931820196 57.05138277815426" fill="red" stroke="none" /><path d="M 100.72285384407766 79.0124445844662 l 0.8516961520973051 -24.72840164825723 a45.74306436990027,45.74306436990027 0 0,0 0.7866917643711623,0.03387660222390721 l -1.277228748857799 24.710077319509125" fill="red" stroke="none" /><path d="M 101.08401301168833 79.027996857942 l 1.7763857829797414 -34.36708583795995 a55.412964641885765,55.412964641885765 0 0,0 0.9521476490048137,0.05743614639041248 l -2.367695480824167 34.331416422189236" fill="red" stroke="none" /><path d="M 101.44485096284872 79.0497635885617 l 4.086976431630097 -59.26086818104033 a80.40163191296463,80.40163191296463 0 0,0 1.3798827110814442,0.10710545582784615 l -5.106449332073882 59.18173746302402" fill="red" stroke="none" /><path d="M 101.80526077348638 79.07773832637324 l 2.4648438122125857 -28.566569429267368 a49.67271078875793,49.67271078875793 0 0,0 0.8512362134374912,0.08083513541242071 l -2.956205152740321 28.51990874933977" fill="red" stroke="none" /><path d="M 102.16513564639614 79.11191278185805 l 4.122198420155827 -39.76879706083235 a60.9818676337262,60.9818676337262 0 0,0 1.0431770160093834,0.11721309250558982 l -4.806142139674935 39.69194801485616" fill="red" stroke="none" /><path d="M 102.88285421437855 79.19881850522331 l 8.20918361331273 -59.233213186007255 a80.79936655129438,80.79936655129438 0 0,0 1.376017135259913,0.2027891568358534 l -9.2275697290013 59.08312954501043" fill="red" stroke="none" /><path d="M 107.08798089147638 80.2323363322302 l 19.606010607338558 -54.679185721093035 a79.08794197642791,79.08794197642791 0 0,0 1.2775251303179667,0.47052328697418594 l -20.544318063429102 54.333599166312524" fill="red" stroke="none" /><line stroke="#e1ed5e" stroke-width="0.3" x1="143.23703022742887" x2="145.7803849466894" y1="26.81831364943548" y2="22.513508569990506" /><path d="M 143.74570117128098 25.957352633546492 a86.0,86.0 0 0,1 28.547481713284135,27.462654790039103" fill="none" id="id50" stroke="none" /><text fill="#e1ed5e" style="font-size:6.75px; font-family:Arial;" text-anchor="middle"><textPath startOffset="19.985693538727396" xlink:href="#id50">February</textPath></text><path d="M 117.45458315368197 88.32363383020206 l 28.880162254664313 -19.31958767273704 a55.74637016582179,55.74637016582179 0 0,0 0.5266794003562684,0.8021688601392982 l -29.208438290378506 18.81960074862007" fill="red" stroke="none" /><line stroke="#e1ed5e" stroke-width="0.3" x1="172.23445277983987" x2="176.4835382374775" y1="55.19839476539836" y2="52.563006222186495" /><path d="M 173.08426987136738 54.67131705675599 a86.0,86.0 0 0,1 12.851231095245387,41.99856678651699" fill="none" id="id51" stroke="none" /><text fill="#e1ed5e" style="font-size:6.75px; font-family:Arial;" text-anchor="middle"><textPath startOffset="22.20632615414155" xlink:href="#id51">March</textPath></text><path d="M 118.3937258080291 89.86733742301442 l 30.167044412261692 -16.618301542853064 a55.441523118767,55.441523118767 0 0,0 0.45327907078497776,0.8398572770044245 l -30.448631582265133 16.096563282516183" fill="red" stroke="none" /><path d="M 118.89224826269711 90.83032412892265 l 30.984657395484202 -15.038933500252867 a55.441523118767,55.441523118767 0 0,0 0.4093216133570317,0.8621357077558899 l -31.23893720268299 14.503355376856437" fill="red" stroke="none" /><path d="M 119.196687751892 91.48605970444005 l 57.59006325567602 -25.541820886679833 a84.0,84.0 0 0,0 0.574837160629277,1.3268034216535889 l -58.02119112614798 24.54671832043964" fill="red" stroke="none" /><path d="M 119.47837535516314 92.15188598940014 l 33.164450514049285 -13.362428025300563 a56.75521305530372,56.75521305530372 0 0,0 0.3573050116071179,0.9093022814194622 l -33.3895490755381 12.789576738985316" fill="red" stroke="none" /><path d="M 120.18372546131832 94.20196356495316 l 24.972556787906708 -7.173690229291413 a46.98250226654578,46.98250226654578 0 0,0 0.2165965605379744,0.7792130703110175 l -25.092340119011048 6.742765855561443" fill="red" stroke="none" /><path d="M 120.37134235888165 94.90015583598534 l 39.6525599640197 -9.926782092127599 a61.876234102529104,61.876234102529104 0 0,0 0.24976548072749433,1.0354391653775532 l -39.817558245008016 9.242757695090638" fill="red" stroke="none" /><path d="M 120.45610955862082 95.25157060432595 l 9.703206274769192 -2.252382828482924 a30.96119673617407,30.96119673617407 0 0,0 0.1160390461081473,0.5201802907324105 l -9.740539707879377 2.0850243682005494" fill="red" stroke="none" /><path d="M 120.6074358757038 95.95851677861258 l 28.080667380945425 -5.507116302579607 a49.615593834995465,49.615593834995465 0 0,0 0.1571497765103415,0.8395003899660575 l -28.171302881365627 5.022937835150986" fill="red" stroke="none" /><path d="M 120.87857604477298 97.74499172005257 l 34.249258312405495 -3.6991201368767705 a55.44844241380043,55.44844241380043 0 0,0 0.09432274949830351,0.9498172152652409 l -34.30785818758603 3.109027390907095" fill="red" stroke="none" /><path d="M 120.91429891909075 98.10471618934814 l 28.57897306531158 -2.589867591798556 a49.69608188604941,49.69608188604941 0 0,0 0.0698715461825841,0.8526098415641287 l -28.61931909531366 2.0975438330266583" fill="red" stroke="none" /><line stroke="#e1ed5e" stroke-width="0.3" x1="184.98032266829074" x2="189.97916517819016" y1="98.17113171792111" y2="98.06355123074" /><path d="M 185.9800911702706 98.14961562048488 a86.0,86.0 0 0,1 -9.607161424134198,41.387399972396054" fill="none" id="id52" stroke="none" /><text fill="#e1ed5e" style="font-size:6.75px; font-family:Arial;" text-anchor="middle"><textPath startOffset="21.466115282336823" xlink:href="#id52">April</textPath></text><path d="M 120.99513854157772 99.54816195383933 l 13.815220311411878 -0.29731845495687914 a34.81841924810885,34.81841924810885 0 0,0 0.00773796737158666,0.5993141004686208 l -13.81829128590118 0.05946809642779566" fill="red" stroke="none" /><path d="M 119.26925614724726 108.34839909993367 l 24.0381024103989 10.414500227387132 a47.19717890306267,47.19717890306267 0 0,0 -0.3293889211322341,0.742685061017585 l -23.85527240453539 -10.826733624897404" fill="red" stroke="none" /><line stroke="#e1ed5e" stroke-width="0.3" x1="174.80103733775053" x2="179.2010983576182" y1="140.37084112569926" y2="142.7455964860345" /><path d="M 175.68104954172406 140.8457921977663 a86.0,86.0 0 0,1 -30.038265399797805,32.042727171017184" fill="none" id="id53" stroke="none" /><text fill="#e1ed5e" style="font-size:6.75px; font-family:Arial;" text-anchor="middle"><textPath startOffset="22.206326154141568" xlink:href="#id53">May</textPath></text><line stroke="#e1ed5e" stroke-width="0.3" x1="143.8653032363475" x2="146.44561519142675" y1="172.8068346515853" y2="177.08958963109032" /><path d="M 144.38136562736335 173.6633856474863 a86.0,86.0 0 0,1 -40.68145358897372,12.25698825130547" fill="none" id="id54" stroke="none" /><text fill="#e1ed5e" style="font-size:6.75px; font-family:Arial;" text-anchor="middle"><textPath startOffset="21.466115282336833" xlink:href="#id54">June</textPath></text><path d="M 102.34483914955558 120.86867818915974 l 1.9224705736815941 17.109668156937005 a38.217335378831876,38.217335378831876 0 0,0 -0.6543670498485435,0.06782782026224532 l -1.6276709272274479 -17.140225345655008" fill="red" stroke="none" /><line stroke="#e1ed5e" stroke-width="0.3" x1="102.19456741930631" x2="102.32365962044197" y1="184.97166512339345" y2="189.96999836594603" /><path d="M 102.22038585953345 185.97133177190398 a86.0,86.0 0 0,1 -42.740103519485714,-10.115201625700543" fill="none" id="id55" stroke="none" /><text fill="#e1ed5e" style="font-size:6.75px; font-family:Arial;" text-anchor="middle"><textPath startOffset="22.20632615414155" xlink:href="#id55">July</textPath></text><path d="M 100.54218724476979 120.99299961872073 l 0.8864731353727623 34.323437838874305 a55.33488342340492,55.33488342340492 0 0,0 -0.9523932106813591,0.01639631282653279 l -0.2955202347987353 -34.333611628979995" fill="red" stroke="none" /><path d="M 100.18074693466247 120.99922214144158 l 0.2463750531363471 28.623912657668384 a49.6249729519634,49.6249729519634 0 0,0 -0.8542439755975855,0.0 l 0.2463750531363274 -28.623912657668384" fill="red" stroke="none" /><path d="M 99.81925306533755 120.99922214144158 l -0.24665131715230515 28.656009077184642 a49.65707056040344,49.65707056040344 0 0,0 -0.8546698563035185,-0.014713916657737256 l 0.7398808633484916 -28.647517683247745" fill="red" stroke="none" /><path d="M 99.09653310690486 120.98055641714683 l -2.6950906753067323 62.58613613265514 a83.64413739340152,83.64413739340152 0 0,0 -1.4379300764894953,-0.07432456033189556 l 3.7720088202097166 -62.530471765561046" fill="red" stroke="none" /><path d="M 98.73552117531835 120.96189622390904 l -2.946349002818349 48.84309711714261 a69.93188233085903,69.93188233085903 0 0,0 -1.2009543322539866,-0.08282484212670527 l 3.786666095851266 -48.78514393049962" fill="red" stroke="none" /><path d="M 98.37488393609728 120.93702456842531 l -2.2132753989400977 28.51451809110547 a49.60028548737817,49.60028548737817 0 0,0 -0.850658317139095,-0.07339837898628745 l 2.7037780338207344 -28.472195459840517" fill="red" stroke="none" /><path d="M 97.65516085044442 120.86867818915974 l -3.8419248558567167 34.19249182145541 a55.40765733900442,55.40765733900442 0 0,0 -0.9468708939016246,-0.11465287877302362 l 4.429923172809731 -34.12129341395704" fill="red" stroke="none" /><path d="M 97.2962882734958 120.8252237178851 l -3.320799735271604 25.5783176628603 a46.79298442103921,46.79298442103921 0 0,0 -0.7978680882959132,-0.11057724684723048 l 3.7605964147543487 -25.517365850520466" fill="red" stroke="none" /><path d="M 96.93821686468263 120.77559828337769 l -8.37885573534918 56.85436660227287 a78.46846287468836,78.46846287468836 0 0,0 -1.334577179838343,-0.2084335085248051 l 9.35626877879604 -56.701714786400956" fill="red" stroke="none" /><path d="M 96.58105272829116 120.7198165907248 l -4.916370997364099 29.794640648677937 a51.19753823025272,51.19753823025272 0 0,0 -0.8682883761335023,-0.15096306397344658 l 5.428508344969652 -29.705599006183483" fill="red" stroke="none" /><path d="M 95.86986931433489 120.58985236759428 l -7.917804897000685 39.47246378195559 a61.25875099161378,61.25875099161378 0 0,0 -1.0320890077620941,-0.2162842863900108 l 8.596085366192165 -39.33032351483904" fill="red" stroke="none" /><path d="M 95.51606077576429 120.51570834832081 l -5.637517260610203 25.793761722320678 a47.402646546350866,47.402646546350866 0 0,0 -0.7956417987162233,-0.18108548300050728 l 6.080679208719288 -25.69289950574248" fill="red" stroke="none" /><path d="M 95.16358092515715 120.4354850818985 l -10.554760370373861 44.59738594898271 a66.82935522084655,66.82935522084655 0 0,0 -1.117153601571779,-0.27456917505425493 l 11.32086725668885 -44.409095515614425" fill="red" stroke="none" /><path d="M 94.81253420990036 120.34920634021253 l -4.691632808617378 18.404170351787915 a39.99275927158885,39.99275927158885 0 0,0 -0.6656119801790346,-0.17579417361843058 l 5.007735231607902 -18.320684828865904" fill="red" stroke="none" /><path d="M 93.42475214034765 119.94407469862007 l -5.630419533973718 17.078216694948843 a38.98241111776122,38.98241111776122 0 0,0 -0.6354694861282884,-0.21558575193934232 l 5.923558753039233 -16.978767956111376" fill="red" stroke="none" /><path d="M 93.08242187328487 119.8279376855182 l -9.424486680314034 27.013519933167547 a49.610333943648,49.610333943648 0 0,0 -0.8038774396024061,-0.2882418492520638 l 9.888083680546167 -26.847290542875523" fill="red" stroke="none" /><line stroke="#e1ed5e" stroke-width="0.3" x1="58.666819895761336" x2="56.23545636021788" y1="174.27360380694188" y2="178.64263932499728" /><path d="M 58.180547188652646 175.14741091055294 a86.0,86.0 0 0,1 -31.652253787137756,-30.449443065178592" fill="none" id="id56" stroke="none" /><text fill="#e1ed5e" style="font-size:6.75px; font-family:Arial;" text-anchor="middle"><textPath startOffset="22.20632615414155" xlink:href="#id56">August</textPath></text><line stroke="#e1ed5e" stroke-width="0.3" x1="26.63291911575756" x2="22.317208475507996" y1="142.92168965132927" y2="145.44649492493687" /><path d="M 25.769776987707644 143.4266507060508 a86.0,86.0 0 0,1 -11.730757126820373,-40.83630448921669" fill="none" id="id57" stroke="none" /><text fill="#e1ed5e" style="font-size:6.75px; font-family:Arial;" text-anchor="middle"><textPath startOffset="21.46611528233685" xlink:href="#id57">September</textPath></text><line stroke="#e1ed5e" stroke-width="0.3" x1="15.007084014347285" x2="10.007500721073583" y1="101.09737516637583" y2="101.16192664675087" /><path d="M 14.007167355692545 101.11028546245083 a86.0,86.0 0 0,1 10.666146001902534,-42.60595125391555" fill="none" id="id58" stroke="none" /><text fill="#e1ed5e" style="font-size:6.75px; font-family:Arial;" text-anchor="middle"><textPath startOffset="22.20632615414155" xlink:href="#id58">October</textPath></text><line stroke="#e1ed5e" stroke-width="0.3" x1="26.266209847984243" x2="21.928928074336255" y1="57.711370442889674" y2="55.22380399835377" /><path d="M 25.398753493254645 57.213857153982495 a86.0,86.0 0 0,1 29.58750427330803,-30.492523968695096" fill="none" id="id59" stroke="none" /><text fill="#e1ed5e" style="font-size:6.75px; font-family:Arial;" text-anchor="middle"><textPath startOffset="21.46611528233685" xlink:href="#id59">November</textPath></text><line stroke="#e1ed5e" stroke-width="0.3" x1="56.762969772571076" x2="54.21961505331055" y1="26.818313649435495" y2="22.513508569990535" /><path d="M 56.25429882871897 25.957352633546506 a86.0,86.0 0 0,1 42.265352541879196,-11.944610805530505" fill="none" id="id60" stroke="none" /><text fill="#e1ed5e" style="font-size:6.75px; font-family:Arial;" text-anchor="middle"><textPath startOffset="22.20632615414155" xlink:href="#id60">December</textPath></text></svg>