<?xml version="1.0" encoding="utf-8" ?>
<svg baseProfile="full" height="200mm" version="1.1" viewBox="0,0,200,200" width="200mm" xmlns="http://www.w3.org/2000/svg" xmlns:ev="http://www.w3.org/2001/xml-events" xmlns:xlink="http://www.w3.org/1999/xlink"><defs /><rect fill="#1a1a1a" height="200" width="200" x="0" y="0" /><text alignment-baseline="middle" fill="#e1ed5e" style="dominant-baseline: central; font-size:9.0px; font-family:Arial;" text-anchor="middle" x="100.0" y="100.0">2025</text><line stroke="#e1ed5e" stroke-width="0.3" x1="100.0" x2="100.0" y1="15.0" y2="10.0" /><path d="M 100.0 14.0 a86.0,86.0 0 0,1 42.46469731375804,11.215312516191453" fill="none" id="id49" stroke="none" /><text fill="#e1ed5e" style="font-size:6.75px; font-family:Arial;" text-anchor="middle"><textPath startOffset="22.20632615414155" xlink:href="#id49">January</textPath></text><path d="M 100.0 79.0 l 0.0 -47.897260273972606 a68.8972602739726,68.8972602739726 0 0,0 1.185953079257131,0.010207872571915742 l -0.8244725999846024 47.890163778009246" fill="red" stroke="none" /><path d="M 100.72285384407766 79.0124445844662 l 0.7149321581151655 -20.757554808240275 a41.769863013698625,41.769863013698625 0 0,0 0.7183604265351925,0.03093411107790301 l -1.0721334170396897 20.742172970638176" fill="red" stroke="none" /><path d="M 101.08401301168833 79.027996857942 l 1.4911366199594023 -28.848474641757857 a49.88698630136986,49.88698630136986 0 0,0 0.8571960917406022,0.05170840915477991 l -1.9874947605396163 28.818532963222772" fill="red" stroke="none" /><path d="M 101.44485096284872 79.0497635885617 l 3.430696350143073 -49.74485357967085 a70.86301369863014,70.86301369863014 0 0,0 1.2161773975398624,0.09439877279782977 l -4.286463937045276 49.678429544684555" fill="red" stroke="none" /><path d="M 101.80526077348638 79.07773832637324 l 2.069043169612239 -23.979395799453503 a45.06849315068493,45.06849315068493 0 0,0 0.7723342021350923,0.07334243871171799 l -2.4815024988375756 23.940227816226606" fill="red" stroke="none" /><path d="M 102.16513564639614 79.11191278185805 l 3.4602624485782925 -33.382787791551046 a54.56164383561644,54.56164383561644 0 0,0 0.9333504369998462,0.10487279669053941 l -4.034379589087864 33.31827904138991" fill="red" stroke="none" /><path d="M 102.88285421437855 79.19881850522331 l 6.890966153336332 -49.72163937912176 a71.19688075043965,71.19688075043965 0 0,0 1.2124863358609115,0.17868896790866198 l -7.745821469625899 49.59565592705213" fill="red" stroke="none" /><path d="M 107.08798089147638 80.2323363322302 l 16.457709056236247 -45.8988902970819 a69.76027397260273,69.76027397260273 0 0,0 1.12685323287877,0.4150295555748802 l -17.245344614887596 45.6087974737007" fill="red" stroke="none" /><line stroke="#e1ed5e" stroke-width="0.3" x1="143.23703022742887" x2="145.7803849466894" y1="26.81831364943548" y2="22.513508569990506" /><path d="M 143.74570117128098 25.957352633546492 a86.0,86.0 0 0,1 28.547481713284135,27.462654790039103" fill="none" id="id50" stroke="none" /><text fill="#e1ed5e" style="font-size:6.75px; font-family:Arial;" text-anchor="middle"><textPath startOffset="19.985693538727396" xlink:href="#id50">February</textPath></text><path d="M 117.45458315368197 88.32363383020206 l 24.24263239489706 -16.217279454359936 a50.16685410418678,50.16685410418678 0 0,0 0.47396536417994056,0.7218817665406063 l -24.51819439443493 15.797579623841656" fill="red" stroke="none" /><line stroke="#e1ed5e" stroke-width="0.3" x1="172.23445277983987" x2="176.4835382374775" y1="55.19839476539836" y2="52.563006222186495" /><path d="M 173.08426987136738 54.67131705675599 a86.0,86.0 0 0,1 12.851231095245387,41.99856678651699" fill="none" id="id51" stroke="none" /><text fill="#e1ed5e" style="font-size:6.75px; font-family:Arial;" text-anchor="middle"><textPath startOffset="22.20632615414155" xlink:href="#id51">March</textPath></text><path d="M 118.3937258080291 89.86733742301442 l 25.32286909187568 -13.94976149297331 a49.91095890410959,49.91095890410959 0 0,0 0.40806225733693635,0.7560773889290193 l -25.559239448431082 13.511803120711832" fill="red" stroke="none" /><path d="M 118.89224826269711 90.83032412892265 l 26.00919110138438 -12.624005822510588 a49.91095890410959,49.91095890410959 0 0,0 0.36848977217062057,0.7761334367995377 l -26.22263906739676 12.17442997007051" fill="red" stroke="none" /><path d="M 119.196687751892 91.48605970444005 l 48.342343813554535 -21.440356497722874 a73.88356164383562,73.88356164383562 0 0,0 0.5056073427681027,1.1670114570594639 l -48.70424186616532 20.60504589607681" fill="red" stroke="none" /><path d="M 119.47837535516314 92.15188598940014 l 27.83895655783589 -11.216710891861887 a51.013698630136986,51.013698630136986 0 0,0 0.3211590477759606,0.8173147460979119 l -28.02790915549355 10.73584714086819" fill="red" stroke="none" /><path d="M 120.18372546131832 94.20196356495316 l 20.962503909483342 -6.021750626262125 a42.810273972602744,42.810273972602744 0 0,0 0.19736194648697353,0.7100159296283514 l -21.063052626536678 5.660023393214821" fill="red" stroke="none" /><path d="M 120.37134235888165 94.90015583598534 l 33.285215860208325 -8.332755439586562 a55.31239437982466,55.31239437982466 0 0,0 0.22327032297366312,0.9255996313023642 l -33.423718983442804 7.758570576624791" fill="red" stroke="none" /><path d="M 120.45610955862082 95.25157060432595 l 8.14508106626364 -1.8906988278665646 a29.36164383561644,29.36164383561644 0 0,0 0.11004410365285887,0.4933061391954387 l -8.176419556918535 1.750214519121162" fill="red" stroke="none" /><path d="M 120.6074358757038 95.95851677861258 l 23.57151911809955 -4.622792451860964 a45.02054794520548,45.02054794520548 0 0,0 0.14259567408365784,0.7617517928371086 l -23.647600516093064 4.216362581561293" fill="red" stroke="none" /><path d="M 120.87857604477298 97.74499172005257 l 28.749567670154693 -3.1051213934361326 a49.916767109910104,49.916767109910104 0 0,0 0.08491287608651334,0.8550610741696537 l -28.798757671923436 2.609784788562044" fill="red" stroke="none" /><path d="M 120.91429891909075 98.10471618934814 l 23.989807679633696 -2.1739908323849373 a45.08811135488014,45.08811135488014 0 0,0 0.06339284577890172,0.7735532866928423 l -24.02367500923209 1.7607236284843262" fill="red" stroke="none" /><line stroke="#e1ed5e" stroke-width="0.3" x1="184.98032266829074" x2="189.97916517819016" y1="98.17113171792111" y2="98.06355123074" /><path d="M 185.9800911702706 98.14961562048488 a86.0,86.0 0 0,1 -9.607161424134198,41.387399972396054" fill="none" id="id52" stroke="none" /><text fill="#e1ed5e" style="font-size:6.75px; font-family:Arial;" text-anchor="middle"><textPath startOffset="21.466115282336823" xlink:href="#id52">April</textPath></text><path d="M 120.99513854157772 99.54816195383933 l 11.5967945232019 -0.24957553715177902 a32.59947977980522,32.59947977980522 0 0,0 0.007244835242786989,0.5611204736424132 l -11.599372365562404 0.04991880544890304" fill="red" stroke="none" /><path d="M 119.26925614724726 108.34839909993367 l 20.178102708272437 8.742156583567736 a42.990478181185786,42.990478181185786 0 0,0 -0.30003037376754615,0.6764892871403646 l -20.024631249773616 -9.088194207200788" fill="red" stroke="none" /><line stroke="#e1ed5e" stroke-width="0.3" x1="174.80103733775053" x2="179.2010983576182" y1="140.37084112569926" y2="142.7455964860345" /><path d="M 175.68104954172406 140.8457921977663 a86.0,86.0 0 0,1 -30.038265399797805,32.042727171017184" fill="none" id="id53" stroke="none" /><text fill="#e1ed5e" style="font-size:6.75px; font-family:Arial;" text-anchor="middle"><textPath startOffset="22.206326154141568" xlink:href="#id53">May</textPath></text><line stroke="#e1ed5e" stroke-width="0.3" x1="143.8653032363475" x2="146.44561519142675" y1="172.8068346515853" y2="177.08958963109032" /><path d="M 144.38136562736335 173.6633856474863 a86.0,86.0 0 0,1 -40.68145358897372,12.25698825130547" fill="none" id="id54" stroke="none" /><text fill="#e1ed5e" style="font-size:6.75px; font-family:Arial;" text-anchor="middle"><textPath startOffset="21.466115282336833" xlink:href="#id54">June</textPath></text><path d="M 102.34483914955558 120.86867818915974 l 1.613763350662708 14.362225248935705 a35.45260344204837,35.45260344204837 0 0,0 -0.6070285982489813,0.06292099619869981 l -1.366302155808124 -14.387875613590163" fill="red" stroke="none" /><line stroke="#e1ed5e" stroke-width="0.3" x1="102.19456741930631" x2="102.32365962044197" y1="184.97166512339345" y2="189.96999836594603" /><path d="M 102.22038585953345 185.97133177190398 a86.0,86.0 0 0,1 -42.740103519485714,-10.115201625700543" fill="none" id="id55" stroke="none" /><text fill="#e1ed5e" style="font-size:6.75px; font-family:Arial;" text-anchor="middle"><textPath startOffset="22.20632615414155" xlink:href="#id55">July</textPath></text><path d="M 100.54218724476979 120.99299961872073 l 0.7441247095252336 28.811835567943955 a49.82144323897688,49.82144323897688 0 0,0 -0.8574989473471737,0.014762622025694809 l -0.24806607228539193 -28.820375667248808" fill="red" stroke="none" /><path d="M 100.18074693466247 120.99922214144158 l 0.2068125446037982 24.027530944755117 a45.02842097870291,45.02842097870291 0 0,0 -0.7751189585324908,0.0 l 0.20681254460378165 -24.027530944755117" fill="red" stroke="none" /><path d="M 99.81925306533755 120.99922214144158 l -0.20704444658979657 24.054473373009643 a45.05536440496576,45.05536440496576 0 0,0 -0.7754678515490321,-0.013350382319316215 l 0.6210719880314965 -24.047345513411166" fill="red" stroke="none" /><path d="M 99.09653310690486 120.98055641714683 l -2.2623173629096844 52.536155368583415 a73.58484288045804,73.58484288045804 0 0,0 -1.2650002982744801,-0.0653860660724933 l 3.1663057295976533 -52.48942949574872" fill="red" stroke="none" /><path d="M 98.73552117531835 120.96189622390904 l -2.4732290335682183 40.99995138524224 a62.07447961258562,62.07447961258562 0 0,0 -1.0660175692174985,-0.07351881291691001 l 3.178609363564647 -40.95130422780905" fill="red" stroke="none" /><path d="M 98.37488393609728 120.93702456842531 l -1.857871206264024 23.935702781194312 a45.00769778735017,45.00769778735017 0 0,0 -0.7718941954040764,-0.06660227914085014 l 2.269609719409642 -23.9001762497748" fill="red" stroke="none" /><path d="M 97.65516085044442 120.86867818915974 l -3.2249947610425855 28.701916650734635 a49.88253123662243,49.88253123662243 0 0,0 -0.8524510728383932,-0.10321995336803384 l 3.718573256932368 -28.642151168641252" fill="red" stroke="none" /><path d="M 97.2962882734958 120.8252237178851 l -2.787551071540776 21.470992680467972 a42.651188596960615,42.651188596960615 0 0,0 -0.7272462470699931,-0.1007897031610012 l 3.1567259097976 -21.419828411814365" fill="red" stroke="none" /><path d="M 96.93821686468263 120.77559828337769 l -7.0333925997641895 47.724784141786124 a69.24026982555651,69.24026982555651 0 0,0 -1.1776257702741972,-0.18392092621965048 l 7.853854233646904 -47.59664490821937" fill="red" stroke="none" /><path d="M 96.58105272829116 120.7198165907248 l -4.1269080746519045 25.010265323814128 a46.34846626177226,46.34846626177226 0 0,0 -0.7860501871344373,-0.13666490068095835 l 4.556807233258391 -24.935521844612165" fill="red" stroke="none" /><path d="M 95.86986931433489 120.58985236759428 l -6.646376561180939 33.13403923249392 a54.79406571061644,54.79406571061644 0 0,0 -0.923171824353112,-0.1934596316247197 l 7.215739846963438 -33.01472362014266" fill="red" stroke="none" /><path d="M 95.51606077576429 120.51570834832081 l -4.732253834439158 21.651841080456396 a43.16295216181507,43.16295216181507 0 0,0 -0.7244795680837901,-0.16488919099289773 l 5.10425355191581 -21.56717515588581" fill="red" stroke="none" /><path d="M 95.16358092515715 120.4354850818985 l -8.859893979088561 37.43600966645961 a59.470151300299655,59.470151300299655 0 0,0 -0.9941333937997372,-0.2443338010506719 l 9.502980657631507 -37.27795460709491" fill="red" stroke="none" /><path d="M 94.81253420990036 120.34920634021253 l -3.9382579816628365 15.448858369879806 a36.94293263056507,36.94293263056507 0 0,0 -0.6148527630930372,-0.16238820304267365 l 4.2036011875673625 -15.37877881753355" fill="red" stroke="none" /><path d="M 93.42475214034765 119.94407469862007 l -4.72629584929453 14.335824211969998 a36.09482455318921,36.09482455318921 0 0,0 -0.5883976632798686,-0.1996164339068422 l 4.972363245511625 -14.252344791165031" fill="red" stroke="none" /><path d="M 93.08242187328487 119.8279376855182 l -7.911117814601509 22.675732485756328 a45.01613267872432,45.01613267872432 0 0,0 -0.7294337812698491,-0.2615490019525079 l 8.300271156501084 -22.53619594276386" fill="red" stroke="none" /><path d="M 92.7421414339146 119.70592522655815 l -7.541077388822865 20.474897078627258 a42.81946971318493,42.81946971318493 0 0,0 -0.6894541829181414,-0.2606925777303197 l 7.892401792501289 -20.342056250790304" fill="red" stroke="none" /><path d="M 92.40401165467489 119.57807347666478 l -7.743097617686085 19.957236267923445 a42.40670082405822,42.40670082405822 0 0,0 -0.6782627162571202,-0.2698947325458685 l 8.085481409985064 -19.82099469097151" fill="red" stroke="none" /><path d="M 92.06813273071674 119.44442032107085 l -7.8028315325725375 19.12809819717971 a41.65837168236301,41.65837168236301 0 0,0 -0.6616312336633706,-0.27656190933117175 l 8.13093422573337 -18.990951244828565" fill="red" stroke="none" /><path d="M 90.42595943632237 118.69057910512821 l -4.63792913541695 9.054231681277866 a31.172978816620294,31.172978816620294 0 0,0 -0.4754756528720151,-0.24874638921548084 l 4.793095690815461 -8.97305587311767" fill="red" stroke="none" /><line stroke="#e1ed5e" stroke-width="0.3" x1="58.666819895761336" x2="56.23545636021788" y1="174.27360380694188" y2="178.64263932499728" /><path d="M 58.180547188652646 175.14741091055294 a86.0,86.0 0 0,1 -31.652253787137756,-30.449443065178592" fill="none" id="id56" stroke="none" /><text fill="#e1ed5e" style="font-size:6.75px; font-family:Arial;" text-anchor="middle"><textPath startOffset="22.20632615414155" xlink:href="#id56">August</textPath></text><path d="M 85.70375840098266 115.38237550388516 l -16.371021783365663 17.614783767457016 a45.04768099850171,45.04768099850171 0 0,0 -0.5634481686714334,-0.5327754121403004 l 16.671805786427914 -17.330373718570787" fill="red" stroke="none" /><path d="M 85.44109423537348 115.13401014063109 l -16.5325731360279 17.18564111454635 a44.84684958261987,44.84684958261987 0 0,0 -0.5517231297840683,-0.5399772048196396 l 16.825946218187763 -16.898513806804143" fill="red" stroke="none" /><path d="M 85.18274418774928 114.88116024355367 l -35.71991800458601 35.87397224210436 a71.62464248448202,71.62464248448202 0 0,0 -0.8661785445704739,-0.8774342925890164 l 36.33213717421202 -35.253797455534674" fill="red" stroke="none" /><path d="M 84.67929136418377 114.36230785411682 l -14.127693745753941 13.243923089226532 a40.36474191325985,40.36474191325985 0 0,0 -0.47083278676087387,-0.5109959994241773 l 14.353572940510544 -12.998775835001013" fill="red" stroke="none" /><path d="M 84.19399662182784 113.82643327865904 l -36.27616131386364 31.732874656009976 a69.19683821168664,69.19683821168664 0 0,0 -0.7765120589810912,-0.9032589533065623 l 36.81701588241551 -31.103738603541885" fill="red" stroke="none" /><path d="M 82.6465618267979 111.8261652097733 l -20.602255365445412 14.040196139456881 a45.93150684931507,45.93150684931507 0 0,0 -0.439623344786576,-0.6571772515772228 l 20.84088181564272 -13.683481973673839" fill="red" stroke="none" /><path d="M 82.44556493220864 111.52570212397912 l -52.6633052033741 34.57710637193735 a84.0,84.0 0 0,0 -0.7831805464918173,-1.2155136003142069 l 53.25069061324296 -33.6654711717017" fill="red" stroke="none" /><line stroke="#e1ed5e" stroke-width="0.3" x1="26.63291911575756" x2="22.317208475507996" y1="142.92168965132927" y2="145.44649492493687" /><path d="M 25.769776987707644 143.4266507060508 a86.0,86.0 0 0,1 -11.730757126820373,-40.83630448921669" fill="none" id="id57" stroke="none" /><text fill="#e1ed5e" style="font-size:6.75px; font-family:Arial;" text-anchor="middle"><textPath startOffset="21.46611528233685" xlink:href="#id57">September</textPath></text><line stroke="#e1ed5e" stroke-width="0.3" x1="15.007084014347285" x2="10.007500721073583" y1="101.09737516637583" y2="101.16192664675087" /><path d="M 14.007167355692545 101.11028546245083 a86.0,86.0 0 0,1 10.666146001902534,-42.60595125391555" fill="none" id="id58" stroke="none" /><text fill="#e1ed5e" style="font-size:6.75px; font-family:Arial;" text-anchor="middle"><textPath startOffset="22.20632615414155" xlink:href="#id58">October</textPath></text><line stroke="#e1ed5e" stroke-width="0.3" x1="26.266209847984243" x2="21.928928074336255" y1="57.711370442889674" y2="55.22380399835377" /><path d="M 25.398753493254645 57.213857153982495 a86.0,86.0 0 0,1 29.58750427330803,-30.492523968695096" fill="none" id="id59" stroke="none" /><text fill="#e1ed5e" style="font-size:6.75px; font-family:Arial;" text-anchor="middle"><textPath startOffset="21.46611528233685" xlink:href="#id59">November</textPath></text><line stroke="#e1ed5e" stroke-width="0.3" x1="56.762969772571076" x2="54.21961505331055" y1="26.818313649435495" y2="22.513508569990535" /><path d="M 56.25429882871897 25.957352633546506 a86.0,86.0 0 0,1 42.265352541879196,-11.944610805530505" fill="none" id="id60" stroke="none" /><text fill="#e1ed5e" style="font-size:6.75px; font-family:Arial;" text-anchor="middle"><textPath startOffset="22.20632615414155" xlink:href="#id60">December</textPath></text></svg>