<?xml version="1.0" encoding="utf-8" ?>
<svg baseProfile="full" height="200mm" version="1.1" viewBox="0,0,200,200" width="200mm" xmlns="http://www.w3.org/2000/svg" xmlns:ev="http://www.w3.org/2001/xml-events" xmlns:xlink="http://www.w3.org/1999/xlink"><defs /><rect fill="#1a1a1a" height="200" width="200" x="0" y="0" /><text alignment-baseline="middle" fill="#e1ed5e" style="dominant-baseline: central; font-size:9.0px; font-family:Arial;" text-anchor="middle" x="100.0" y="100.0">2022</text><line stroke="#e1ed5e" stroke-width="0.3" x1="100.0" x2="100.0" y1="15.0" y2="10.0" /><path d="M 100.0 14.0 a86.0,86.0 0 0,1 42.46469731375804,11.215312516191453" fill="none" id="id13" stroke="none" /><text fill="#e1ed5e" style="font-size:6.75px; font-family:Arial;" text-anchor="middle"><textPath startOffset="22.20632615414155" xlink:href="#id13">January</textPath></text><line stroke="#e1ed5e" stroke-width="0.3" x1="143.23703022742887" x2="145.7803849466894" y1="26.81831364943548" y2="22.513508569990506" /><path d="M 143.74570117128098 25.957352633546492 a86.0,86.0 0 0,1 28.547481713284135,27.462654790039103" fill="none" id="id14" stroke="none" /><text fill="#e1ed5e" style="font-size:6.75px; font-family:Arial;" text-anchor="middle"><textPath startOffset="19.985693538727396" xlink:href="#id14">February</textPath></text><line stroke="#e1ed5e" stroke-width="0.3" x1="172.23445277983987" x2="176.4835382374775" y1="55.19839476539836" y2="52.563006222186495" /><path d="M 173.08426987136738 54.67131705675599 a86.0,86.0 0 0,1 12.851231095245387,41.99856678651699" fill="none" id="id15" stroke="none" /><text fill="#e1ed5e" style="font-size:6.75px; font-family:Arial;" text-anchor="middle"><textPath startOffset="22.20632615414155" xlink:href="#id15">March</textPath></text><line stroke="#e1ed5e" stroke-width="0.3" x1="184.98032266829074" x2="189.97916517819016" y1="98.17113171792111" y2="98.06355123074" /><path d="M 185.9800911702706 98.14961562048488 a86.0,86.0 0 0,1 -9.607161424134198,41.387399972396054" fill="none" id="id16" stroke="none" /><text fill="#e1ed5e" style="font-size:6.75px; font-family:Arial;" text-anchor="middle"><textPath startOffset="21.466115282336823" xlink:href="#id16">April</textPath></text><line stroke="#e1ed5e" stroke-width="0.3" x1="174.80103733775053" x2="179.2010983576182" y1="140.37084112569926" y2="142.7455964860345" /><path d="M 175.68104954172406 140.8457921977663 a86.0,86.0 0 0,1 -30.038265399797805,32.042727171017184" fill="none" id="id17" stroke="none" /><text fill="#e1ed5e" style="font-size:6.75px; font-family:Arial;" text-anchor="middle"><textPath startOffset="22.206326154141568" xlink:href="#id17">May</textPath></text><path d="M 115.32070863581623 114.36230785411682 l 26.62378625832503 24.95831123570592 a57.49305816819606,57.49305816819606 0 0,0 -0.6830543501977633,0.7161797553670499 l -26.1902253567483 -25.412898107655476" fill="red" stroke="none" /><path d="M 114.81725581225074 114.88116024355365 l 27.780109137538574 27.8999202617077 a60.371817513333085,60.371817513333085 0 0,0 -0.7427172347490221,0.7269051354582636 l -27.295741950413756 -28.373975500088534" fill="red" stroke="none" /><path d="M 113.75828350139079 115.86535959552629 l 23.9010133256283 27.561444788532402 a57.481388087943984,57.481388087943984 0 0,0 -0.7531006817745839,0.6418087391786718 l -23.423047167276664 -27.96877791793402" fill="red" stroke="none" /><path d="M 113.20401910651253 116.32954008644616 l 24.27391679876944 30.019791263787226 a59.60584028712414,59.60584028712414 0 0,0 -0.8033803087407972,0.6382539051333896 l -23.753578997311294 -30.433179082925744" fill="red" stroke="none" /><path d="M 112.63410532772338 116.77436683061366 l 29.63086099181544 39.341047022377325 a70.25145585597642,70.25145585597642 0 0,0 -0.9721966153201672,0.719207814075344 l -28.94927940607671 -39.84526478519244" fill="red" stroke="none" /><path d="M 112.34349029814194 116.9893568818739 l 14.634874690287994 20.14317693207355 a45.89833597084858,45.89833597084858 0 0,0 -0.6431726654014891,0.4588866194705493 l -14.28597469703762 -20.39210781338832" fill="red" stroke="none" /><path d="M 111.45004920935366 117.60387380957326 l 20.073173212151094 30.861492533651823 a57.8152686287859,57.8152686287859 0 0,0 -0.8389221176541083,0.5354397877130643 l -19.538969292450055 -31.202446750188695" fill="red" stroke="none" /><path d="M 111.1453310114006 117.79835938074945 l 20.548427016201835 32.81448423284662 a59.71728591091985,59.71728591091985 0 0,0 -0.8759126754358381,0.538057105907297 l -19.980535140833688 -33.16332980558229" fill="red" stroke="none" /><line stroke="#e1ed5e" stroke-width="0.3" x1="143.8653032363475" x2="146.44561519142675" y1="172.8068346515853" y2="177.08958963109032" /><path d="M 144.38136562736335 173.6633856474863 a86.0,86.0 0 0,1 -40.68145358897372,12.25698825130547" fill="none" id="id18" stroke="none" /><text fill="#e1ed5e" style="font-size:6.75px; font-family:Arial;" text-anchor="middle"><textPath startOffset="21.466115282336833" xlink:href="#id18">June</textPath></text><path d="M 110.5260780823613 118.17145234162733 l 17.03822307492512 29.41354378805471 a54.99202264830269,54.99202264830269 0 0,0 -0.8231814347138713,0.4674239023462915 l -16.52939287329005 -29.70247085619563" fill="red" stroke="none" /><path d="M 110.21172684928248 118.3499491758327 l 6.613984603405641 11.884990963184752 a34.601389727857594,34.601389727857594 0 0,0 -0.5229377036792603,0.2851473311671051 l -6.408424087857732 -11.997078946111627" fill="red" stroke="none" /><path d="M 109.57404056367764 118.69057910512821 l 22.245233111931594 43.427462671086126 a69.79339002623979,69.79339002623979 0 0,0 -1.0739743455501136,0.5385130322005149 l -21.494404858698722 -43.803943544195945" fill="red" stroke="none" /><path d="M 108.92500713936063 119.00905698771935 l 25.71249429381051 54.764132027626275 a81.49993817805536,81.49993817805536 0 0,0 -1.2750160968794255,0.5852973544868738 l -24.766010201163667 -55.198616452447226" fill="red" stroke="none" /><path d="M 108.59647513512805 119.15986991738527 l 25.789425405384144 57.479609752155824 a84.0,84.0 0 0,0 -1.3243173013689848,0.5805417868221818 l -24.796187429357403 -57.91501609227246" fill="red" stroke="none" /><path d="M 107.59598834532513 119.57807347666477 l 17.7548329321918 45.76171103873384 a70.08531643620745,70.08531643620745 0 0,0 -1.1284729797391004,0.42669192134283934 l -16.964489731692424 -46.06055121018331" fill="red" stroke="none" /><path d="M 106.91757812671514 119.82793768551818 l 11.977430091915195 34.331052449987666 a57.360417955938296,57.360417955938296 0 0,0 -0.9350574856042209,0.31722226722275926 l -11.384702873373747 -34.53213770410855" fill="red" stroke="none" /><path d="M 105.88484417918355 120.15858648285463 l 10.708753761680239 36.68293199538474 a59.21406687211297,59.21406687211297 0 0,0 -0.9808918225989381,0.2772098269300501 l -10.075730770976694 -36.86183061565331" fill="red" stroke="none" /><path d="M 104.13013068566511 120.58985236759428 l 2.4734831008283855 12.331002516835452 a33.57663475339432,33.57663475339432 0 0,0 -0.5676567967215334,0.10879277612624484 l -2.260858689535148 -12.371752491310167" fill="red" stroke="none" /><line stroke="#e1ed5e" stroke-width="0.3" x1="102.19456741930631" x2="102.32365962044197" y1="184.97166512339345" y2="189.96999836594603" /><path d="M 102.22038585953345 185.97133177190398 a86.0,86.0 0 0,1 -42.740103519485714,-10.115201625700543" fill="none" id="id19" stroke="none" /><text fill="#e1ed5e" style="font-size:6.75px; font-family:Arial;" text-anchor="middle"><textPath startOffset="22.20632615414155" xlink:href="#id19">July</textPath></text><path d="M 94.11515582081647 120.15858648285463 l -10.242520174043612 35.08584466198862 a57.550317579480556,57.550317579480556 0 0,0 -0.9485526258652227,-0.2857911250773525 l 10.844947774349082 -34.904338167805534" fill="red" stroke="none" /><line stroke="#e1ed5e" stroke-width="0.3" x1="58.666819895761336" x2="56.23545636021788" y1="174.27360380694188" y2="178.64263932499728" /><path d="M 58.180547188652646 175.14741091055294 a86.0,86.0 0 0,1 -31.652253787137756,-30.449443065178592" fill="none" id="id20" stroke="none" /><text fill="#e1ed5e" style="font-size:6.75px; font-family:Arial;" text-anchor="middle"><textPath startOffset="22.20632615414155" xlink:href="#id20">August</textPath></text><path d="M 88.54995079064634 117.60387380957326 l -26.474296225744332 40.702896680526344 a69.55526911504109,69.55526911504109 0 0,0 -0.9980363057291802,-0.6614440421809337 l 27.171007230213473 -40.24115461725409" fill="red" stroke="none" /><path d="M 85.70375840098266 115.38237550388516 l -24.94408439575828 26.839170989005257 a57.64080301685231,57.64080301685231 0 0,0 -0.7209606394983235,-0.6817132847398463 l 25.402380869647423 -26.40582306751948" fill="red" stroke="none" /><path d="M 85.44109423537348 115.13401014063109 l -20.913975406149568 21.740117079856397 a51.166654735566766,51.166654735566766 0 0,0 -0.6294717946526175,-0.6160706373183081 l 21.28509715317798 -21.37689633961552" fill="red" stroke="none" /><path d="M 83.72743513129214 113.27417163493432 l -9.704496606618155 7.916339841090841 a33.52380496764084,33.52380496764084 0 0,0 -0.36091103918808887,-0.4502920139963026 l 9.839325557861105 -7.748119993516279" fill="red" stroke="none" /><path d="M 83.50135304334701 112.99209946851258 l -28.71692816244562 22.613562681646204 a57.55181500614989,57.55181500614989 0 0,0 -0.6061937683851059,-0.7835871613800658 l 29.101928748048792 -22.115897526152885" fill="red" stroke="none" /><path d="M 83.06392112726016 112.41649034213515 l -19.902955042091897 14.591621290678681 a45.678797201203274,45.678797201203274 0 0,0 -0.45944214423193697,-0.6381249543926497 l 20.15117697869944 -14.246862730834893" fill="red" stroke="none" /><path d="M 82.24976979558568 111.22182372390057 l -31.147064160421188 19.691398900186847 a57.849569827335486,57.849569827335486 0 0,0 -0.5248756491478626,-0.8462666704713705 l 31.481404449237008 -19.152335898350213" fill="red" stroke="none" /><line stroke="#e1ed5e" stroke-width="0.3" x1="26.63291911575756" x2="22.317208475507996" y1="142.92168965132927" y2="145.44649492493687" /><path d="M 25.769776987707644 143.4266507060508 a86.0,86.0 0 0,1 -11.730757126820373,-40.83630448921669" fill="none" id="id21" stroke="none" /><text fill="#e1ed5e" style="font-size:6.75px; font-family:Arial;" text-anchor="middle"><textPath startOffset="21.46611528233685" xlink:href="#id21">September</textPath></text><line stroke="#e1ed5e" stroke-width="0.3" x1="15.007084014347285" x2="10.007500721073583" y1="101.09737516637583" y2="101.16192664675087" /><path d="M 14.007167355692545 101.11028546245083 a86.0,86.0 0 0,1 10.666146001902534,-42.60595125391555" fill="none" id="id22" stroke="none" /><text fill="#e1ed5e" style="font-size:6.75px; font-family:Arial;" text-anchor="middle"><textPath startOffset="22.20632615414155" xlink:href="#id22">October</textPath></text><path d="M 80.65960295795068 91.81776055985345 l -14.250105231080493 -6.028716618096407 a36.47290933076839,36.47290933076839 0 0,0 0.24959504332842816,-0.5760997725919657 l 14.144219477909385 6.273115535274972" fill="red" stroke="none" /><line stroke="#e1ed5e" stroke-width="0.3" x1="26.266209847984243" x2="21.928928074336255" y1="57.711370442889674" y2="55.22380399835377" /><path d="M 25.398753493254645 57.213857153982495 a86.0,86.0 0 0,1 29.58750427330803,-30.492523968695096" fill="none" id="id23" stroke="none" /><text fill="#e1ed5e" style="font-size:6.75px; font-family:Arial;" text-anchor="middle"><textPath startOffset="21.46611528233685" xlink:href="#id23">November</textPath></text><line stroke="#e1ed5e" stroke-width="0.3" x1="56.762969772571076" x2="54.21961505331055" y1="26.818313649435495" y2="22.513508569990535" /><path d="M 56.25429882871897 25.957352633546506 a86.0,86.0 0 0,1 42.265352541879196,-11.944610805530505" fill="none" id="id24" stroke="none" /><text fill="#e1ed5e" style="font-size:6.75px; font-family:Arial;" text-anchor="middle"><textPath startOffset="22.20632615414155" xlink:href="#id24">December</textPath></text></svg>