<?xml version="1.0" encoding="utf-8" ?>
<svg baseProfile="full" height="200mm" version="1.1" viewBox="0,0,200,200" width="200mm" xmlns="http://www.w3.org/2000/svg" xmlns:ev="http://www.w3.org/2001/xml-events" xmlns:xlink="http://www.w3.org/1999/xlink"><defs /><rect fill="#1a1a1a" height="200" width="200" x="0" y="0" /><text alignment-baseline="middle" fill="#e1ed5e" style="dominant-baseline: central; font-size:9.0px; font-family:Arial;" text-anchor="middle" x="100.0" y="100.0">2023</text><line stroke="#e1ed5e" stroke-width="0.3" x1="100.0" x2="100.0" y1="15.0" y2="10.0" /><path d="M 100.0 14.0 a86.0,86.0 0 0,1 42.46469731375804,11.215312516191453" fill="none" id="id25" stroke="none" /><text fill="#e1ed5e" style="font-size:6.75px; font-family:Arial;" text-anchor="middle"><textPath startOffset="22.20632615414155" xlink:href="#id25">January</textPath></text><line stroke="#e1ed5e" stroke-width="0.3" x1="143.23703022742887" x2="145.7803849466894" y1="26.81831364943548" y2="22.513508569990506" /><path d="M 143.74570117128098 25.957352633546492 a86.0,86.0 0 0,1 28.547481713284135,27.462654790039103" fill="none" id="id26" stroke="none" /><text fill="#e1ed5e" style="font-size:6.75px; font-family:Arial;" text-anchor="middle"><textPath startOffset="19.985693538727396" xlink:href="#id26">February</textPath></text><path d="M 117.45458315368197 88.32363383020206 l 48.63797889911795 -32.53671808628713 a79.51744197431708,79.51744197431708 0 0,0 0.7512632397826419,1.144225455397243 l -49.19083877425851 31.694674566912212" fill="red" stroke="none" /><path d="M 117.65298651832404 88.62581576622439 l 49.84464871561115 -32.115937831295255 a80.29521454861512,80.29521454861512 0 0,0 0.7386104573477473,1.1683043658391354 l -50.390086769204856 31.25318581774191" fill="red" stroke="none" /><line stroke="#e1ed5e" stroke-width="0.3" x1="172.23445277983987" x2="176.4835382374775" y1="55.19839476539836" y2="52.563006222186495" /><path d="M 173.08426987136738 54.67131705675599 a86.0,86.0 0 0,1 12.851231095245387,41.99856678651699" fill="none" id="id27" stroke="none" /><text fill="#e1ed5e" style="font-size:6.75px; font-family:Arial;" text-anchor="middle"><textPath startOffset="22.20632615414155" xlink:href="#id27">March</textPath></text><path d="M 118.03404312379186 89.2402003453031 l 50.56814587126012 -30.170889286963355 a79.88480226020329,79.88480226020329 0 0,0 0.694390371878621,1.1869382354867382 l -51.07999591760907 29.295971639122723" fill="red" stroke="none" /><path d="M 118.73160827565052 90.50648371742162 l 56.19482482695156 -28.480548847735175 a84.0,84.0 0 0,0 0.6425599481863675,1.2953616460042006 l -56.676744788091334 27.509027613232025" fill="red" stroke="none" /><path d="M 118.89224826269711 90.83032412892265 l 56.10530490737096 -27.231669491892955 a83.36480627777783,83.36480627777783 0 0,0 0.6154776254923228,1.2963528456507354 l -56.56574072670504 26.26187423060168" fill="red" stroke="none" /><path d="M 119.196687751892 91.48605970444005 l 57.13831465867473 -25.341465459057016 a83.5058147186828,83.5058147186828 0 0,0 0.5714553027252632,1.3189976273418924 l -57.566060671242674 24.35416868712852" fill="red" stroke="none" /><path d="M 119.47837535516314 92.15188598940014 l 55.45080648387151 -22.341917297007978 a80.78254936198448,80.78254936198448 0 0,0 0.5085701944121083,1.2942556723759568 l -55.82717022816532 21.384112619736236" fill="red" stroke="none" /><path d="M 119.85752413597 93.16781622104841 l 41.86865452811659 -14.405337762896934 a65.27751108698322,65.27751108698322 0 0,0 0.3564236227179419,1.0656612654716526 l -42.1104154446063 13.682503394502968" fill="red" stroke="none" /><line stroke="#e1ed5e" stroke-width="0.3" x1="184.98032266829074" x2="189.97916517819016" y1="98.17113171792111" y2="98.06355123074" /><path d="M 185.9800911702706 98.14961562048488 a86.0,86.0 0 0,1 -9.607161424134198,41.387399972396054" fill="none" id="id28" stroke="none" /><text fill="#e1ed5e" style="font-size:6.75px; font-family:Arial;" text-anchor="middle"><textPath startOffset="21.466115282336823" xlink:href="#id28">April</textPath></text><path d="M 120.32669344350535 105.2749913415812 l 11.077120223084163 2.874629532285919 a32.4440415668832,32.4440415668832 0 0,0 -0.1449351405065073,0.539357575020396 l -11.025997006235878 -3.0648780404818634" fill="red" stroke="none" /><path d="M 119.12269723197855 108.67885076344098 l 32.51337241895476 14.756218938006514 a56.70525708351685,56.70525708351685 0 0,0 -0.411046642225439,0.8853578989276246 l -32.25455115988949 -15.31369690421297" fill="red" stroke="none" /><line stroke="#e1ed5e" stroke-width="0.3" x1="174.80103733775053" x2="179.2010983576182" y1="140.37084112569926" y2="142.7455964860345" /><path d="M 175.68104954172406 140.8457921977663 a86.0,86.0 0 0,1 -30.038265399797805,32.042727171017184" fill="none" id="id29" stroke="none" /><text fill="#e1ed5e" style="font-size:6.75px; font-family:Arial;" text-anchor="middle"><textPath startOffset="22.206326154141568" xlink:href="#id29">May</textPath></text><line stroke="#e1ed5e" stroke-width="0.3" x1="143.8653032363475" x2="146.44561519142675" y1="172.8068346515853" y2="177.08958963109032" /><path d="M 144.38136562736335 173.6633856474863 a86.0,86.0 0 0,1 -40.68145358897372,12.25698825130547" fill="none" id="id30" stroke="none" /><text fill="#e1ed5e" style="font-size:6.75px; font-family:Arial;" text-anchor="middle"><textPath startOffset="21.466115282336833" xlink:href="#id30">June</textPath></text><path d="M 107.59598834532513 119.57807347666477 l 5.6618383628252875 14.592951231766047 a36.65281569876367,36.65281569876367 0 0,0 -0.5901623086065377,0.22314888693362311 l -5.409805833458474 -14.6882483688063" fill="red" stroke="none" /><line stroke="#e1ed5e" stroke-width="0.3" x1="102.19456741930631" x2="102.32365962044197" y1="184.97166512339345" y2="189.96999836594603" /><path d="M 102.22038585953345 185.97133177190398 a86.0,86.0 0 0,1 -42.740103519485714,-10.115201625700543" fill="none" id="id31" stroke="none" /><text fill="#e1ed5e" style="font-size:6.75px; font-family:Arial;" text-anchor="middle"><textPath startOffset="22.20632615414155" xlink:href="#id31">July</textPath></text><line stroke="#e1ed5e" stroke-width="0.3" x1="58.666819895761336" x2="56.23545636021788" y1="174.27360380694188" y2="178.64263932499728" /><path d="M 58.180547188652646 175.14741091055294 a86.0,86.0 0 0,1 -31.652253787137756,-30.449443065178592" fill="none" id="id32" stroke="none" /><text fill="#e1ed5e" style="font-size:6.75px; font-family:Arial;" text-anchor="middle"><textPath startOffset="22.20632615414155" xlink:href="#id32">August</textPath></text><line stroke="#e1ed5e" stroke-width="0.3" x1="26.63291911575756" x2="22.317208475507996" y1="142.92168965132927" y2="145.44649492493687" /><path d="M 25.769776987707644 143.4266507060508 a86.0,86.0 0 0,1 -11.730757126820373,-40.83630448921669" fill="none" id="id33" stroke="none" /><text fill="#e1ed5e" style="font-size:6.75px; font-family:Arial;" text-anchor="middle"><textPath startOffset="21.46611528233685" xlink:href="#id33">September</textPath></text><line stroke="#e1ed5e" stroke-width="0.3" x1="15.007084014347285" x2="10.007500721073583" y1="101.09737516637583" y2="101.16192664675087" /><path d="M 14.007167355692545 101.11028546245083 a86.0,86.0 0 0,1 10.666146001902534,-42.60595125391555" fill="none" id="id34" stroke="none" /><text fill="#e1ed5e" style="font-size:6.75px; font-family:Arial;" text-anchor="middle"><textPath startOffset="22.20632615414155" xlink:href="#id34">October</textPath></text><line stroke="#e1ed5e" stroke-width="0.3" x1="26.266209847984243" x2="21.928928074336255" y1="57.711370442889674" y2="55.22380399835377" /><path d="M 25.398753493254645 57.213857153982495 a86.0,86.0 0 0,1 29.58750427330803,-30.492523968695096" fill="none" id="id35" stroke="none" /><text fill="#e1ed5e" style="font-size:6.75px; font-family:Arial;" text-anchor="middle"><textPath startOffset="21.46611528233685" xlink:href="#id35">November</textPath></text><line stroke="#e1ed5e" stroke-width="0.3" x1="56.762969772571076" x2="54.21961505331055" y1="26.818313649435495" y2="22.513508569990535" /><path d="M 56.25429882871897 25.957352633546506 a86.0,86.0 0 0,1 42.265352541879196,-11.944610805530505" fill="none" id="id36" stroke="none" /><text fill="#e1ed5e" style="font-size:6.75px; font-family:Arial;" text-anchor="middle"><textPath startOffset="22.20632615414155" xlink:href="#id36">December</textPath></text><path d="M 90.91171255644093 81.06846463323043 l -9.923869493280542 -20.672110939932228 a43.93075132725768,43.93075132725768 0 0,0 0.6845285251551123,-0.3213953210857497 l 9.566562756825821 20.83987124365799" fill="red" stroke="none" /><path d="M 91.23893434514133 80.91482961587045 l -9.494826296061868 -20.68360000561799 a43.75880127741328,43.75880127741328 0 0,0 0.6872588159880884,-0.30835299762021473 l 9.137385361607006 20.843973333754736" fill="red" stroke="none" /></svg>